<?xml version="1.0" encoding="UTF-8"?>
<svg id="Layer_1" data-name="Layer 1" xmlns="http://www.w3.org/2000/svg" viewBox="0 0 46.04 50.86">
  <defs>
    <style>
      .cls-1 {
        fill: #1865b5;
      }
    </style>
  </defs>
  <path class="cls-1" d="M40.2,7.9h-5.75C32.06,1.59,25.02-1.59,18.71.79c-3.28,1.24-5.87,3.83-7.11,7.11h-5.75C2.62,7.9,0,10.52,0,13.74v21.74c0,3.23,2.62,5.85,5.85,5.86h1.05v6.76c0,1.52,1.24,2.76,2.77,2.76.6,0,1.19-.2,1.67-.57l11.74-8.95h17.12c3.23,0,5.85-2.62,5.85-5.85V13.74c0-3.23-2.62-5.84-5.85-5.85ZM23.02,1.48c4.26,0,8.12,2.52,9.83,6.42.21.48.39.97.52,1.48,1.56,5.72-1.81,11.62-7.53,13.18-5.72,1.56-11.62-1.81-13.18-7.53-.51-1.85-.51-3.8,0-5.65.14-.5.31-1,.52-1.48,1.71-3.9,5.57-6.42,9.83-6.42ZM44.57,35.49c0,2.41-1.95,4.38-4.37,4.38,0,0,0,0,0,0h-17.61l-12.14,9.26c-.57.43-1.37.32-1.8-.24-.17-.22-.26-.5-.26-.78v-8.23h-2.52c-2.41,0-4.37-1.96-4.37-4.37V13.74c0-2.41,1.96-4.37,4.37-4.37h5.3c-.22.93-.33,1.88-.33,2.84,0,6.74,5.47,12.21,12.21,12.21s12.21-5.47,12.21-12.21c0-.96-.11-1.91-.33-2.84h5.3c2.41,0,4.37,1.96,4.37,4.37v21.75Z"/>
  <path class="cls-1" d="M14.94,33.29h-7.84c-.38,0-.7.29-.74.67-.03.39.27.73.66.76.02,0,.03,0,.05,0h7.84c.38,0,.7-.29.74-.67.03-.39-.27-.73-.67-.76-.02,0-.03,0-.05,0Z"/>
  <path class="cls-1" d="M38.97,33.29h-20.53c-.38,0-.7.29-.74.67-.03.39.27.73.67.76.02,0,.03,0,.05,0h20.53c.38,0,.7-.29.74-.67.03-.39-.27-.73-.66-.76-.02,0-.03,0-.05,0Z"/>
  <path class="cls-1" d="M38.97,27.03H7.1c-.38,0-.7.29-.74.67-.03.39.27.73.66.76.02,0,.03,0,.05,0h31.87c.38,0,.7-.29.74-.67.03-.39-.27-.73-.66-.76-.02,0-.03,0-.05,0Z"/>
  <path class="cls-1" d="M19.73,17.34c.31.31.81.31,1.12,0h0s9.14-9.14,9.14-9.14c.31-.31.31-.81,0-1.12s-.81-.31-1.12,0l-8.58,8.58-3.77-3.77c-.31-.31-.81-.31-1.12,0s-.31.81,0,1.12l4.34,4.33Z"/>
</svg>