<?xml version="1.0" encoding="UTF-8"?>
<svg id="Layer_1" data-name="Layer 1" xmlns="http://www.w3.org/2000/svg" viewBox="0 0 44.75 49.74">
  <defs>
    <style>
      .cls-1 {
        fill: #eefaff;
      }
    </style>
  </defs>
  <path class="cls-1" d="M40.21,8.19h-5.51c.23.96.34,1.96.34,2.95,0,7-5.67,12.67-12.67,12.67s-12.67-5.67-12.67-12.67c0-.99.11-1.98.34-2.95h-5.51c-2.51,0-4.54,2.03-4.54,4.54v22.58c0,2.51,2.03,4.54,4.54,4.54h2.62v8.55c0,.29.09.58.27.81.45.59,1.28.7,1.87.26l12.6-9.61h18.29c2.51,0,4.54-2.04,4.54-4.55V12.73c0-2.51-2.02-4.54-4.53-4.54ZM13.94,34.51H5.76c-.41-.02-.72-.38-.69-.79.04-.39.37-.7.77-.69h8.19c.41.03.71.38.69.79-.03.39-.37.7-.77.69ZM38.9,34.5h-21.36c-.41-.02-.72-.38-.69-.78.03-.4.37-.7.77-.7h21.36c.41.03.71.38.68.79-.03.4-.37.7-.76.69ZM38.9,28.01H5.81s-.04,0-.05,0c-.41-.02-.72-.38-.69-.78.04-.4.37-.7.77-.7h33.09s.03,0,.05,0c.41.02.72.38.69.78-.03.4-.37.7-.76.7ZM25.3,21.88c5.94-1.62,9.43-7.75,7.81-13.69-.14-.52-.32-1.03-.54-1.53-1.78-4.05-5.78-6.67-10.21-6.67s-8.42,2.62-10.2,6.67c-.22.49-.4,1-.55,1.53-.52,1.92-.52,3.95,0,5.87,1.62,5.94,7.75,9.44,13.69,7.82ZM14.45,10.8c.32-.32.85-.32,1.17,0l3.92,3.92,8.91-8.91c.32-.32.84-.32,1.17,0,.32.32.32.85,0,1.17l-9.49,9.49h0c-.32.32-.84.32-1.16,0l-4.5-4.5c-.32-.33-.32-.85,0-1.17Z"/>
</svg>