<?xml version="1.0" encoding="UTF-8"?><svg id="Layer_1" xmlns="http://www.w3.org/2000/svg" xmlns:xlink="http://www.w3.org/1999/xlink" viewBox="0 0 84.23 99.15"><defs><style>.cls-1{fill:url(#linear-gradient-2);}.cls-2{fill:url(#linear-gradient-3);}.cls-3{fill:url(#linear-gradient);}</style><linearGradient id="linear-gradient" x1="-612.28" y1="839.11" x2="546.62" y2="-479.58" gradientUnits="userSpaceOnUse"><stop offset="0" stop-color="#0f95e8"/><stop offset="1" stop-color="#0375c6"/></linearGradient><linearGradient id="linear-gradient-2" x1="-630.72" y1="822.91" x2="528.18" y2="-495.78" xlink:href="#linear-gradient"/><linearGradient id="linear-gradient-3" x1="-653" y1="803.33" x2="505.9" y2="-515.37" xlink:href="#linear-gradient"/></defs><path class="cls-3" d="M84.23,40.12c0-3.47-2.83-6.3-6.3-6.3h-10.5v4.2h10.5c1.16,0,2.1.94,2.1,2.1v35.92c0,1.16-.94,2.1-2.1,2.1h-10.5v4.2h10.5c3.47,0,6.3-2.83,6.3-6.3v-35.92Z"/><path class="cls-1" d="M56.82,90.75h6.41V25.17c-1.44.29-2.94.29-4.41,0v14.8c0,2.74-1.76,5.07-4.2,5.94v34.18c0,1.16-.94,2.1-2.1,2.1s-2.1-.94-2.1-2.1v-34.18c-2.44-.87-4.2-3.2-4.2-5.94v-8.5c0-1.27,0-2.85-.78-3.98-.95-1.38-3.09-2.08-6.36-2.08-.19,0-.37.08-.5.21-2.4,2.48-5.61,3.84-9.06,3.84s-6.46-1.28-8.83-3.61c-.29-.29-.68-.44-1.12-.44-2.15,4.4-6.23,7.38-10.95,8.09v57.24h31.41c1.16,0,2.1.94,2.1,2.1s-.94,2.1-2.1,2.1H8.97c.87,2.44,3.2,4.2,5.94,4.2h42.01c2.74,0,5.07-1.78,5.94-4.22h-6.05c-1.16,0-2.1-.92-2.1-2.08s.94-2.1,2.1-2.1ZM21.01,80.09c0,1.16-.94,2.1-2.1,2.1s-2.1-.94-2.1-2.1v-40.12c0-1.16.94-2.1,2.1-2.1s2.1.94,2.1,2.1v40.12ZM37.81,80.09c0,1.16-.94,2.1-2.1,2.1s-2.1-.94-2.1-2.1v-40.12c0-1.16.94-2.1,2.1-2.1s2.1.94,2.1,2.1v40.12ZM48.42,94.8c-1.16,0-2.1-.94-2.1-2.1s.94-2.1,2.1-2.1,2.1.94,2.1,2.1-.94,2.1-2.1,2.1Z"/><path class="cls-2" d="M67.26,13.42c-.51-2.26-2.45-4.17-4.71-4.66-1.74-.37-3.49-.05-4.92.91-.54.36-1.22.45-1.83.25-.62-.21-1.1-.68-1.32-1.3-.88-2.52-3.27-4.21-5.95-4.21-1.17,0-2.3.32-3.26.93-.87.55-2,.39-2.69-.38-2.82-3.16-6.82-4.97-10.96-4.97-5.29,0-10.2,2.9-12.82,7.56-.42.75-1.25,1.16-2.1,1.06-.64-.08-1.27-.12-1.91-.12C6.63,8.49,0,15.06,0,23.17v25.21c0,1.14,1.01,2.1,2.21,2.1s2.13-.96,2.21-2.2v-16.7c0-1.15.93-2.09,2.08-2.1,3.98-.03,7.54-2.29,9.3-5.9.7-1.43,2.18-2.35,3.77-2.35s2.98.58,4.06,1.64c1.58,1.56,3.67,2.41,5.89,2.41s4.44-.91,6.04-2.56c.91-.95,2.2-1.49,3.52-1.49,4.73,0,8.04,1.31,9.82,3.89,1.53,2.21,1.53,4.71,1.53,6.37v8.5c0,1.16.94,2.1,2.1,2.1s2.1-.94,2.1-2.1v-17.74c0-.73.38-1.41,1-1.79.62-.38,1.4-.41,2.05-.08,5.35,2.72,10.79-1.63,9.59-6.94Z"/></svg>