<?xml version="1.0" encoding="UTF-8"?><svg id="Layer_1" xmlns="http://www.w3.org/2000/svg" viewBox="0 0 41.81 66.89"><defs><style>.cls-1{fill:#10416a;}</style></defs><circle class="cls-1" cx="40.5" cy="18.7" r="1.31"/><path class="cls-1" d="M41.29,3.99c-.33-.78-.8-1.48-1.4-2.08s-1.3-1.07-2.08-1.4c-.8-.34-1.66-.51-2.54-.51H6.53c-.88,0-1.74.17-2.54.51-.78.33-1.48.8-2.08,1.4-.6.6-1.07,1.3-1.4,2.08-.34.8-.51,1.66-.51,2.54v36.9c0,3.66,1.38,7.15,3.89,9.83l5.49,5.86c.74.79,1.78,1.24,2.86,1.24h1.48v5.23c0,.72.59,1.31,1.31,1.31h11.76c.72,0,1.31-.59,1.31-1.31v-5.23h1.48c1.08,0,2.12-.45,2.86-1.24l5.49-5.86c2.51-2.67,3.89-6.16,3.89-9.83v-18.86c0-.72-.59-1.31-1.31-1.31s-1.31.59-1.31,1.31v13.71l-7.24,7.76c-.74.79-1.78,1.25-2.87,1.25H12.72c-1.08,0-2.13-.45-2.87-1.25l-7.24-7.76V6.53c0-2.16,1.76-3.92,3.92-3.92h28.74c2.16,0,3.92,1.76,3.92,3.92v6.29c0,.72.59,1.31,1.31,1.31s1.31-.59,1.31-1.31h0v-6.29c0-.88-.17-1.74-.51-2.54ZM25.48,64.28h-9.15v-3.92h1.96c.72,0,1.31-.59,1.31-1.31v-3.92h2.61v3.92c0,.72.59,1.31,1.31,1.31h1.96v3.92ZM7.95,47.83c.61.66,1.34,1.18,2.17,1.54.83.36,1.7.54,2.6.54h16.36c.9,0,1.78-.18,2.6-.54s1.56-.88,2.17-1.54l5.33-5.72v1.32c0,3-1.13,5.85-3.18,8.04l-5.49,5.86c-.25.26-.59.41-.95.41h-4.75v-3.92c0-.72-.59-1.31-1.31-1.31h-5.23c-.72,0-1.31.59-1.31,1.31v3.92h-4.75c-.36,0-.71-.15-.95-.41l-5.49-5.86c-2.05-2.19-3.18-5.04-3.18-8.04v-1.32l5.33,5.72Z"/><path class="cls-1" d="M36.58,32.92V6.53c0-.72-.59-1.31-1.31-1.31H6.53c-.72,0-1.31.58-1.31,1.31v26.39c0,.72.59,1.31,1.31,1.31h28.74c.72,0,1.31-.58,1.31-1.31ZM33.97,31.62H7.84V7.84h26.13v23.78Z"/><path class="cls-1" d="M12.79,25.36c.07.03,1.73.77,3.8.77,2.83,0,5.23-2.33,5.23-5.1,0-3.05-2.25-5.36-5.23-5.36-.4,0-.83.04-1.23.1l.49-2.72h3.74c.72,0,1.31-.58,1.31-1.31s-.59-1.31-1.31-1.31h-4.83c-.63,0-1.17.45-1.29,1.07l-1.05,5.75c-.08.45.08.91.43,1.22.35.3.83.4,1.26.26.39-.13,1.61-.46,2.47-.46,1.51,0,2.61,1.15,2.61,2.74,0,1.3-1.25,2.48-2.61,2.48-1.49,0-2.72-.54-2.73-.54-.66-.3-1.43,0-1.73.66-.3.66,0,1.43.66,1.73h0Z"/><circle class="cls-1" cx="24.82" cy="24.82" r="1.31"/><path class="cls-1" d="M27.44,13.07h1.31v11.76c0,.72.59,1.31,1.31,1.31s1.31-.58,1.31-1.31v-13.07c0-.72-.59-1.31-1.31-1.31h-2.61c-.72,0-1.31.58-1.31,1.31s.59,1.31,1.31,1.31Z"/><path class="cls-1" d="M13.99,37.23c-.51-.51-1.34-.51-1.85,0l-2.61,2.61c-.51.51-.51,1.34,0,1.85l2.61,2.61c.26.26.59.38.92.38s.67-.13.92-.38c.51-.51.51-1.34,0-1.85l-1.69-1.69,1.69-1.69c.51-.51.51-1.34,0-1.85h0Z"/><path class="cls-1" d="M27.82,44.3c.26.26.59.38.92.38s.67-.13.92-.38l2.61-2.61c.51-.51.51-1.34,0-1.85l-2.61-2.61c-.51-.51-1.34-.51-1.85,0-.51.51-.51,1.34,0,1.85l1.69,1.69-1.69,1.69c-.51.51-.51,1.34,0,1.85h0Z"/><path class="cls-1" d="M18.29,36.84c-.72,0-1.31.58-1.31,1.31v5.23c0,.72.59,1.31,1.31,1.31h5.23c.72,0,1.31-.58,1.31-1.31v-5.23c0-.72-.59-1.31-1.31-1.31h-5.23ZM22.21,42.07h-2.61v-2.61h2.61v2.61Z"/></svg>