<?xml version="1.0" encoding="UTF-8"?><svg id="Layer_1" xmlns="http://www.w3.org/2000/svg" xmlns:xlink="http://www.w3.org/1999/xlink" viewBox="0 0 99.53 99.53"><defs><style>.cls-1{fill:url(#linear-gradient);fill-rule:evenodd;}</style><linearGradient id="linear-gradient" x1="-472.01" y1="643.49" x2="686.89" y2="-675.2" gradientUnits="userSpaceOnUse"><stop offset="0" stop-color="#0f95e8"/><stop offset="1" stop-color="#0375c6"/></linearGradient></defs><path class="cls-1" d="M49.77,99.53c-13.22,0-25.86-5.25-35.19-14.58C5.25,75.62,0,62.99,0,49.77S5.25,23.91,14.58,14.58C23.91,5.25,36.55,0,49.77,0s25.86,5.25,35.19,14.58c9.33,9.33,14.58,21.97,14.58,35.19s-5.25,25.86-14.58,35.19c-9.33,9.33-21.97,14.58-35.19,14.58ZM44.13,74.26h-7c-.58,0-1.17-.58-1.17-1.17s.58-1.17,1.17-1.17h7c.58,0,1.17.58,1.17,1.17s-.58,1.17-1.17,1.17ZM68.62,82.43H30.91c-3.11,0-5.44-2.53-5.44-5.44v-7.58c0-3.11,2.33-5.44,5.44-5.44h37.71c3.11,0,5.44,2.33,5.44,5.44v7.58c0,2.92-2.33,5.44-5.44,5.44ZM30.91,66.29c-1.75,0-3.11,1.36-3.11,3.11v7.58c0,1.56,1.36,3.11,3.11,3.11h37.71c1.75,0,3.11-1.56,3.11-3.11v-7.58c0-1.75-1.36-3.11-3.11-3.11H30.91ZM54.24,51.13c0-.19,0-.39.19-.58v-.97c-.19-1.17-.58-2.14-1.17-2.92h-.19v-.19h-.19v-.19h-.19v-.19h-.19v-.19h-.39v-.19h-.39v-.19h-.39v-.19h-.58q-.19,0-.19-.19h-.78c-.39,0-.97.19-1.36.19h-.19v.19h-.39v.19h-.39v.19h-.19c-.39.19-.58.39-.78.58,0,0,0,.19-.19.19v.19h-.19c-.58.78-.78,1.56-.97,2.53v.39c0,1.17.58,2.33,1.36,3.3.97.78,2.14,1.36,3.3,1.36s2.33-.58,3.3-1.36c.58-.58.97-1.17,1.17-1.94ZM47.63,43.16l18.27-11.28c.58-.19,1.17-.19,1.56.19s.39.97.19,1.56l-9.53,15.55c10.89,1.36,21.19,5.25,30.13,11.66.97-3.3,1.56-6.61,1.56-9.91h-5.83c-.58,0-1.17-.58-1.17-1.17s.58-1.17,1.17-1.17h5.83c-.19-6.42-1.94-12.44-4.86-17.89l-5.05,2.92c-.19.19-.39.19-.58.19-.39,0-.78-.19-.97-.58-.39-.58-.19-1.17.39-1.56l5.05-2.92c-3.3-5.25-7.78-9.72-13.03-13.03l-2.92,5.05c-.19.39-.58.58-.97.58-.19,0-.39-.19-.58-.19-.58-.39-.78-.97-.39-1.56l2.92-5.05c-5.44-2.92-11.47-4.67-17.89-4.86v5.83c0,.58-.58,1.17-1.17,1.17s-1.17-.58-1.17-1.17v-5.83c-6.42.19-12.44,1.94-17.89,4.86l2.92,5.05c.39.58.19,1.17-.39,1.56-.19,0-.39.19-.58.19-.39,0-.78-.19-.97-.58l-2.92-5.05c-5.25,3.3-9.72,7.78-13.03,13.03l5.05,2.92c.58.39.78.97.39,1.56-.19.39-.58.58-.97.58-.19,0-.39,0-.58-.19l-5.05-2.92c-2.92,5.44-4.67,11.47-4.86,17.89h5.83c.58,0,1.17.58,1.17,1.17s-.58,1.17-1.17,1.17h-5.83c0,3.3.58,6.61,1.56,9.91,9.33-6.61,20.22-10.69,31.49-11.86.19-1.56.78-2.92,1.94-3.89v-.19h.19v-.19h.19v-.19h.19v-.19h.19v-.19h.39v-.19h.19v-.19h.39l.19-.19h.19v-.19h.39v-.19h.39ZM56.77,51.32l-.39.58c-.39,1.17-.97,1.94-1.75,2.72-1.17,1.36-2.92,2.14-4.86,2.14s-3.69-.78-4.86-2.14c-.97-.97-1.75-2.14-1.94-3.3-11.47,1.17-22.36,5.44-31.69,12.25-.19.19-.39.39-.58.39s-.39,0-.39-.19c-.39,0-.58-.39-.78-.58-1.36-4.47-2.14-8.94-2.14-13.41,0-11.28,4.47-21.97,12.44-29.94,7.97-7.97,18.66-12.44,29.94-12.44s21.97,4.47,29.94,12.44c7.97,7.97,12.44,18.66,12.44,29.94,0,4.47-.78,8.94-2.14,13.41-.19.19-.39.58-.78.58-.39.19-.78.19-.97-.19-9.33-6.8-20.02-11.08-31.49-12.25ZM56.38,47.43l6.8-11.08-11.08,6.8h.19v.19h.39v.19h.39v.19h.39v.19h.19v.19h.39v.19h.19v.19h.19v.19h.19v.19h.19s0,.19.19.19v.19h.19c.58.78.97,1.36,1.17,2.14ZM62.4,74.26h-7c-.58,0-1.17-.58-1.17-1.17s.58-1.17,1.17-1.17h7c.58,0,1.17.58,1.17,1.17s-.58,1.17-1.17,1.17Z"/></svg>