<?xml version="1.0" encoding="UTF-8"?><svg id="Layer_1" xmlns="http://www.w3.org/2000/svg" viewBox="0 0 50.68 50.68"><defs><style>.cls-1{fill:#1865b5;}</style></defs><path class="cls-1" d="M49.42,19.98h-3.84s-.06-.03-.07-.06c-.46-1.72-1.14-3.4-2.06-5-.02-.03-.02-.07,0-.1l2.71-2.71c.5-.5.5-1.31,0-1.81l-5.77-5.78c-.27-.27-.63-.39-1.01-.34-.35.05-.69.23-1.02.56l-2.53,2.54c-1.59-.94-3.29-1.64-5.05-2.11-.03,0-.06-.03-.06-.08V1.28c0-.7-.58-1.28-1.28-1.28h-8.17c-.7,0-1.28.57-1.28,1.27v3.89c-1.78.47-3.48,1.18-5.06,2.09-.02,0-.06.02-.09,0l-2.71-2.71c-.5-.5-1.31-.5-1.81,0l-5.76,5.78c-.45.45-.55,1.25.22,2.03l2.54,2.53c-.93,1.59-1.63,3.28-2.11,5.04,0,.03-.03.06-.08.06H1.28c-.7,0-1.28.58-1.28,1.28v8.17c0,.7.57,1.28,1.27,1.28h3.91c.47,1.79,1.18,3.48,2.08,5.05,0,.02.02.06,0,.09l-2.71,2.71c-.5.5-.5,1.31,0,1.81l5.77,5.78c.27.27.63.39,1.01.34.35-.05.69-.23,1.02-.56l2.53-2.54c1.57.92,3.27,1.63,5.06,2.11.02,0,.06.03.06.06v3.84c0,.7.58,1.28,1.28,1.28h8.17c.7,0,1.28-.57,1.28-1.27l-.02-3.88c1.76-.46,3.47-1.16,5.06-2.09.03-.02.07-.02.1,0l2.71,2.71c.5.5,1.31.5,1.81,0l5.76-5.78c.45-.45.56-1.25-.22-2.03l-2.54-2.51c.93-1.59,1.63-3.3,2.1-5.05,0-.03.03-.06.07-.06h3.84c.7,0,1.28-.58,1.28-1.28v-8.17c.02-.7-.56-1.28-1.27-1.28ZM49.5,29.43s-.03.08-.08.08h-3.84c-.58,0-1.09.39-1.23.96-.44,1.66-1.1,3.26-1.98,4.76-.27.47-.2,1.04.18,1.42l2.55,2.55c.18.18.22.3.22.33l-5.76,5.78s-.08.03-.11,0l-2.71-2.71c-.41-.41-1.05-.49-1.55-.2-1.51.87-3.11,1.53-4.76,1.96-.52.14-.88.6-.88,1.13v3.92s-.03.07-.08.07h-8.17s-.08-.03-.08-.08v-3.84c0-.57-.39-1.07-.94-1.22-1.68-.45-3.28-1.11-4.76-1.99-.19-.11-.4-.17-.61-.17-.3,0-.6.12-.82.34l-2.55,2.55c-.18.18-.3.21-.33.22l-5.76-5.78s-.03-.08,0-.11l2.71-2.71c.41-.41.49-1.04.19-1.54-.86-1.47-1.52-3.07-1.96-4.75-.14-.52-.61-.9-1.14-.9H1.3s-.07-.03-.07-.08v-8.17s.03-.08.08-.08h3.84c.58,0,1.09-.39,1.23-.96.44-1.66,1.1-3.26,1.98-4.75.27-.46.2-1.06-.18-1.44l-2.56-2.54c-.18-.18-.22-.3-.22-.33l5.76-5.78s.08-.03.11,0l2.71,2.71c.41.41,1.04.49,1.54.19,1.48-.86,3.09-1.52,4.77-1.97.52-.14.89-.61.89-1.14V1.28s.03-.07.08-.07h8.17s.08.03.08.08v3.83c0,.58.39,1.09.96,1.24,1.66.44,3.25,1.1,4.76,1.99.46.27,1.06.2,1.43-.18l2.55-2.55c.18-.18.3-.22.33-.22l5.76,5.78s.03.08,0,.11l-2.71,2.71c-.41.41-.49,1.04-.2,1.55.86,1.5,1.51,3.08,1.94,4.7.15.57.66.96,1.23.96h3.84s.08.03.08.08v8.15Z"/><path class="cls-1" d="M25.36,10c-8.48,0-15.38,6.81-15.38,15.18s6.9,15.17,15.38,15.17,15.37-6.81,15.37-15.17-6.89-15.18-15.37-15.18ZM25.36,39.16c-7.81,0-14.18-6.27-14.18-13.97s6.36-13.98,14.18-13.98,14.17,6.27,14.17,13.98-6.36,13.97-14.17,13.97Z"/><path class="cls-1" d="M33.2,18.35v-1.74c0-.33-.27-.6-.6-.6s-.6.27-.6.6v1.74c-1.3.28-2.27,1.43-2.27,2.8s.98,2.51,2.27,2.79v9.81c0,.33.27.6.6.6s.6-.27.6-.6v-9.81c1.29-.28,2.26-1.43,2.26-2.79s-.97-2.53-2.26-2.8ZM32.6,22.81c-.92,0-1.67-.74-1.67-1.66s.75-1.67,1.67-1.67,1.66.75,1.66,1.67-.74,1.66-1.66,1.66Z"/><path class="cls-1" d="M25.96,26.62v-10.01c0-.33-.27-.6-.6-.6s-.6.27-.6.6v10.01c-1.29.28-2.27,1.43-2.27,2.8s.97,2.51,2.27,2.79v1.54c0,.33.27.6.6.6s.6-.27.6-.6v-1.54c1.29-.27,2.27-1.43,2.27-2.79s-.98-2.53-2.27-2.8ZM25.36,31.08c-.92,0-1.67-.74-1.67-1.66s.75-1.67,1.67-1.67,1.66.75,1.66,1.67-.74,1.66-1.66,1.66Z"/><path class="cls-1" d="M18.71,21.02v-4.4c0-.33-.27-.6-.6-.6s-.6.27-.6.6v4.41c-1.29.28-2.27,1.43-2.27,2.8s.97,2.51,2.27,2.79v7.14c0,.33.27.6.6.6s.6-.27.6-.6v-7.14c1.29-.27,2.27-1.43,2.27-2.79s-.98-2.54-2.27-2.81ZM18.12,25.48c-.92,0-1.67-.74-1.67-1.66s.75-1.67,1.67-1.67,1.66.75,1.66,1.67-.74,1.66-1.66,1.66Z"/></svg>