<?xml version="1.0" encoding="UTF-8"?><svg id="Layer_1" xmlns="http://www.w3.org/2000/svg" viewBox="0 0 50.68 50.68"><defs><style>.cls-1{fill:#eefaff;}</style></defs><path class="cls-1" d="M19.78,23.81c0,.92-.75,1.66-1.66,1.66s-1.67-.74-1.67-1.66.76-1.66,1.67-1.66,1.66.75,1.66,1.66Z"/><path class="cls-1" d="M25.37,27.75c-.92,0-1.67.75-1.67,1.67s.74,1.66,1.67,1.66,1.65-.75,1.65-1.66-.74-1.67-1.65-1.67ZM25.37,27.75c-.92,0-1.67.75-1.67,1.67s.74,1.66,1.67,1.66,1.65-.75,1.65-1.66-.74-1.67-1.65-1.67ZM25.36,11.2c-7.83,0-14.18,6.27-14.18,13.98s6.36,13.97,14.18,13.97,14.17-6.26,14.17-13.97-6.36-13.98-14.17-13.98ZM18.71,26.62v7.14c0,.33-.27.6-.6.6s-.6-.27-.6-.6v-7.14c-1.3-.28-2.26-1.43-2.26-2.8s.97-2.52,2.26-2.8v-4.41c0-.33.27-.6.6-.6s.6.27.6.6v4.4c1.29.27,2.27,1.43,2.27,2.81s-.98,2.52-2.27,2.8ZM25.96,32.21v1.54c0,.33-.27.6-.6.6s-.6-.27-.6-.6v-1.54c-1.3-.28-2.27-1.42-2.27-2.79s.98-2.52,2.27-2.8v-10.01c0-.33.27-.6.6-.6s.6.27.6.6v10.01c1.29.27,2.26,1.42,2.26,2.8s-.97,2.52-2.26,2.79ZM33.2,23.94v9.81c0,.33-.27.6-.6.6s-.6-.27-.6-.6v-9.81c-1.29-.28-2.26-1.42-2.26-2.79s.97-2.52,2.26-2.8v-1.74c0-.33.27-.6.6-.6s.6.27.6.6v1.74c1.29.27,2.26,1.42,2.26,2.8s-.97,2.51-2.26,2.79ZM32.6,19.48c-.91,0-1.66.75-1.66,1.67s.74,1.66,1.66,1.66,1.66-.75,1.66-1.66-.74-1.67-1.66-1.67ZM25.37,27.75c-.92,0-1.67.75-1.67,1.67s.74,1.66,1.67,1.66,1.65-.75,1.65-1.66-.74-1.67-1.65-1.67Z"/><path class="cls-1" d="M49.42,19.98h-3.84s-.06-.03-.07-.06c-.46-1.73-1.15-3.41-2.06-5,0-.03-.02-.07.01-.1l2.71-2.71c.49-.5.49-1.31,0-1.81l-5.78-5.78c-.27-.27-.63-.39-1.01-.35-.35.05-.68.24-1.01.56l-2.53,2.54c-1.6-.93-3.29-1.64-5.05-2.1-.04,0-.07-.03-.07-.08V1.28c0-.71-.57-1.28-1.28-1.28h-8.17c-.7,0-1.28.56-1.28,1.27v3.89c-1.77.47-3.48,1.18-5.06,2.09-.01.01-.05.02-.09-.01l-2.71-2.71c-.5-.5-1.31-.5-1.81,0l-5.76,5.78c-.45.45-.56,1.25.21,2.02l2.54,2.53c-.93,1.59-1.63,3.29-2.11,5.05,0,.03-.03.06-.08.06H1.28c-.7,0-1.28.58-1.28,1.28v8.17c0,.7.57,1.28,1.27,1.28h3.91c.47,1.79,1.18,3.48,2.08,5.05.01.02.03.06-.01.09l-2.71,2.71c-.5.5-.5,1.31,0,1.81l5.77,5.78c.28.28.64.4,1.01.35.35-.05.69-.23,1.02-.56l2.53-2.54c1.57.92,3.27,1.63,5.06,2.11.02,0,.05.03.05.06v3.83c0,.71.58,1.29,1.29,1.29h8.16c.71,0,1.28-.57,1.28-1.28v-3.88c1.75-.46,3.45-1.16,5.05-2.09.03-.02.07-.02.1,0l2.71,2.7c.49.5,1.31.5,1.81,0l5.76-5.78c.45-.44.56-1.25-.21-2.02l-2.54-2.52c.93-1.59,1.63-3.29,2.1-5.05,0-.03.03-.06.07-.06h3.84c.71,0,1.28-.58,1.28-1.28v-8.17c.02-.7-.56-1.28-1.26-1.28ZM40.73,25.18c0,8.36-6.9,15.17-15.37,15.17s-15.38-6.81-15.38-15.17,6.9-15.18,15.38-15.18,15.37,6.81,15.37,15.18Z"/><path class="cls-1" d="M19.78,23.81c0,.92-.75,1.66-1.66,1.66s-1.67-.74-1.67-1.66.76-1.66,1.67-1.66,1.66.75,1.66,1.66Z"/><path class="cls-1" d="M25.37,27.75c-.92,0-1.67.75-1.67,1.67s.74,1.66,1.67,1.66,1.65-.75,1.65-1.66-.74-1.67-1.65-1.67ZM25.37,27.75c-.92,0-1.67.75-1.67,1.67s.74,1.66,1.67,1.66,1.65-.75,1.65-1.66-.74-1.67-1.65-1.67ZM25.36,11.2c-7.83,0-14.18,6.27-14.18,13.98s6.36,13.97,14.18,13.97,14.17-6.26,14.17-13.97-6.36-13.98-14.17-13.98ZM18.71,26.62v7.14c0,.33-.27.6-.6.6s-.6-.27-.6-.6v-7.14c-1.3-.28-2.26-1.43-2.26-2.8s.97-2.52,2.26-2.8v-4.41c0-.33.27-.6.6-.6s.6.27.6.6v4.4c1.29.27,2.27,1.43,2.27,2.81s-.98,2.52-2.27,2.8ZM25.96,32.21v1.54c0,.33-.27.6-.6.6s-.6-.27-.6-.6v-1.54c-1.3-.28-2.27-1.42-2.27-2.79s.98-2.52,2.27-2.8v-10.01c0-.33.27-.6.6-.6s.6.27.6.6v10.01c1.29.27,2.26,1.42,2.26,2.8s-.97,2.52-2.26,2.79ZM33.2,23.94v9.81c0,.33-.27.6-.6.6s-.6-.27-.6-.6v-9.81c-1.29-.28-2.26-1.42-2.26-2.79s.97-2.52,2.26-2.8v-1.74c0-.33.27-.6.6-.6s.6.27.6.6v1.74c1.29.27,2.26,1.42,2.26,2.8s-.97,2.51-2.26,2.79ZM32.6,19.48c-.91,0-1.66.75-1.66,1.67s.74,1.66,1.66,1.66,1.66-.75,1.66-1.66-.74-1.67-1.66-1.67ZM25.37,27.75c-.92,0-1.67.75-1.67,1.67s.74,1.66,1.67,1.66,1.65-.75,1.65-1.66-.74-1.67-1.65-1.67Z"/><path class="cls-1" d="M49.42,21.2h-3.84c-.57,0-1.08-.4-1.23-.96-.43-1.62-1.08-3.21-1.94-4.7-.29-.51-.21-1.14.2-1.55l2.71-2.71s.03-.08,0-.11l-5.77-5.78s-.14.03-.33.22l-2.55,2.55c-.38.38-.97.45-1.43.18-1.51-.88-3.1-1.55-4.76-1.99-.57-.15-.96-.66-.96-1.24V1.28s-.04-.08-.08-.08h-8.17s-.08.04-.08.08v3.9c0,.52-.36,1-.88,1.13-1.69.45-3.3,1.11-4.78,1.97-.49.3-1.13.22-1.53-.19l-2.72-2.71s-.08-.04-.11,0l-5.76,5.78s.03.14.21.32l2.56,2.54c.38.39.45.98.18,1.44-.87,1.49-1.54,3.09-1.98,4.75-.14.57-.65.96-1.23.96H1.31c-.05,0-.08.04-.08.08v8.17c0,.05.03.08.07.08h3.9c.54,0,1.01.38,1.15.9.44,1.67,1.1,3.27,1.96,4.74.3.5.22,1.13-.19,1.54l-2.71,2.71s-.04.08,0,.12l5.76,5.78s.14-.03.33-.22l2.55-2.55c.23-.23.52-.35.83-.35.2,0,.41.06.61.17,1.48.87,3.08,1.54,4.76,1.99.55.15.94.65.94,1.22v3.84s.04.08.08.08h8.17s.08-.04.08-.08v-3.91c0-.53.36-.99.88-1.13,1.66-.43,3.26-1.09,4.77-1.96.5-.29,1.14-.21,1.55.2l2.7,2.71s.08.03.12,0l5.76-5.79s-.03-.14-.21-.32l-2.55-2.55c-.38-.38-.45-.94-.18-1.42.88-1.49,1.54-3.1,1.98-4.75.14-.57.66-.96,1.23-.96h3.85s.08-.04.08-.08v-8.15c0-.05-.04-.08-.08-.08ZM25.36,40.35c-8.48,0-15.38-6.81-15.38-15.17s6.9-15.18,15.38-15.18,15.37,6.81,15.37,15.18-6.9,15.17-15.37,15.17Z"/><path class="cls-1" d="M19.78,23.81c0,.92-.75,1.66-1.66,1.66s-1.67-.74-1.67-1.66.76-1.66,1.67-1.66,1.66.75,1.66,1.66Z"/><path class="cls-1" d="M25.37,27.75c-.92,0-1.67.75-1.67,1.67s.74,1.66,1.67,1.66,1.65-.75,1.65-1.66-.74-1.67-1.65-1.67ZM25.37,27.75c-.92,0-1.67.75-1.67,1.67s.74,1.66,1.67,1.66,1.65-.75,1.65-1.66-.74-1.67-1.65-1.67ZM25.36,11.2c-7.83,0-14.18,6.27-14.18,13.98s6.36,13.97,14.18,13.97,14.17-6.26,14.17-13.97-6.36-13.98-14.17-13.98ZM18.71,26.62v7.14c0,.33-.27.6-.6.6s-.6-.27-.6-.6v-7.14c-1.3-.28-2.26-1.43-2.26-2.8s.97-2.52,2.26-2.8v-4.41c0-.33.27-.6.6-.6s.6.27.6.6v4.4c1.29.27,2.27,1.43,2.27,2.81s-.98,2.52-2.27,2.8ZM25.96,32.21v1.54c0,.33-.27.6-.6.6s-.6-.27-.6-.6v-1.54c-1.3-.28-2.27-1.42-2.27-2.79s.98-2.52,2.27-2.8v-10.01c0-.33.27-.6.6-.6s.6.27.6.6v10.01c1.29.27,2.26,1.42,2.26,2.8s-.97,2.52-2.26,2.79ZM33.2,23.94v9.81c0,.33-.27.6-.6.6s-.6-.27-.6-.6v-9.81c-1.29-.28-2.26-1.42-2.26-2.79s.97-2.52,2.26-2.8v-1.74c0-.33.27-.6.6-.6s.6.27.6.6v1.74c1.29.27,2.26,1.42,2.26,2.8s-.97,2.51-2.26,2.79ZM32.6,19.48c-.91,0-1.66.75-1.66,1.67s.74,1.66,1.66,1.66,1.66-.75,1.66-1.66-.74-1.67-1.66-1.67ZM25.37,27.75c-.92,0-1.67.75-1.67,1.67s.74,1.66,1.67,1.66,1.65-.75,1.65-1.66-.74-1.67-1.65-1.67Z"/><path class="cls-1" d="M19.78,23.81c0,.92-.75,1.66-1.66,1.66s-1.67-.74-1.67-1.66.76-1.66,1.67-1.66,1.66.75,1.66,1.66Z"/><path class="cls-1" d="M25.37,27.75c-.92,0-1.67.75-1.67,1.67s.74,1.66,1.67,1.66,1.65-.75,1.65-1.66-.74-1.67-1.65-1.67ZM25.37,27.75c-.92,0-1.67.75-1.67,1.67s.74,1.66,1.67,1.66,1.65-.75,1.65-1.66-.74-1.67-1.65-1.67ZM25.36,11.2c-7.83,0-14.18,6.27-14.18,13.98s6.36,13.97,14.18,13.97,14.17-6.26,14.17-13.97-6.36-13.98-14.17-13.98ZM18.71,26.62v7.14c0,.33-.27.6-.6.6s-.6-.27-.6-.6v-7.14c-1.3-.28-2.26-1.43-2.26-2.8s.97-2.52,2.26-2.8v-4.41c0-.33.27-.6.6-.6s.6.27.6.6v4.4c1.29.27,2.27,1.43,2.27,2.81s-.98,2.52-2.27,2.8ZM25.96,32.21v1.54c0,.33-.27.6-.6.6s-.6-.27-.6-.6v-1.54c-1.3-.28-2.27-1.42-2.27-2.79s.98-2.52,2.27-2.8v-10.01c0-.33.27-.6.6-.6s.6.27.6.6v10.01c1.29.27,2.26,1.42,2.26,2.8s-.97,2.52-2.26,2.79ZM33.2,23.94v9.81c0,.33-.27.6-.6.6s-.6-.27-.6-.6v-9.81c-1.29-.28-2.26-1.42-2.26-2.79s.97-2.52,2.26-2.8v-1.74c0-.33.27-.6.6-.6s.6.27.6.6v1.74c1.29.27,2.26,1.42,2.26,2.8s-.97,2.51-2.26,2.79ZM32.6,19.48c-.91,0-1.66.75-1.66,1.67s.74,1.66,1.66,1.66,1.66-.75,1.66-1.66-.74-1.67-1.66-1.67ZM25.37,27.75c-.92,0-1.67.75-1.67,1.67s.74,1.66,1.67,1.66,1.65-.75,1.65-1.66-.74-1.67-1.65-1.67Z"/><path class="cls-1" d="M34.26,21.15c0,.91-.74,1.66-1.66,1.66s-1.66-.75-1.66-1.66.75-1.67,1.66-1.67,1.66.76,1.66,1.67Z"/><path class="cls-1" d="M34.26,21.15c0,.91-.74,1.66-1.66,1.66s-1.66-.75-1.66-1.66.75-1.67,1.66-1.67,1.66.76,1.66,1.67Z"/><path class="cls-1" d="M27.02,29.42c0,.91-.74,1.66-1.65,1.66s-1.67-.75-1.67-1.66.75-1.67,1.67-1.67,1.65.76,1.65,1.67Z"/><path class="cls-1" d="M27.02,29.42c0,.91-.74,1.66-1.65,1.66s-1.67-.75-1.67-1.66.75-1.67,1.67-1.67,1.65.76,1.65,1.67Z"/><path class="cls-1" d="M19.78,23.81c0,.92-.75,1.66-1.66,1.66s-1.67-.74-1.67-1.66.76-1.66,1.67-1.66,1.66.75,1.66,1.66Z"/><path class="cls-1" d="M19.78,23.81c0,.92-.75,1.66-1.66,1.66s-1.67-.74-1.67-1.66.76-1.66,1.67-1.66,1.66.75,1.66,1.66Z"/></svg>