<?xml version="1.0" encoding="UTF-8"?><svg id="Layer_1" xmlns="http://www.w3.org/2000/svg" xmlns:xlink="http://www.w3.org/1999/xlink" viewBox="0 0 89.64 89.64"><defs><style>.cls-1{fill:url(#linear-gradient);}</style><linearGradient id="linear-gradient" x1="-309.1" y1="448.23" x2="849.8" y2="-870.46" gradientUnits="userSpaceOnUse"><stop offset="0" stop-color="#0f95e8"/><stop offset="1" stop-color="#0375c6"/></linearGradient></defs><g id="_09_Bra"><path class="cls-1" d="M8.59,16.83h4.54c.47,2.86,2.97,5.06,5.98,5.06h28.04c3,0,5.51-2.2,5.98-5.06h4.34v19.85c-1.18-.19-2.18-.47-3.88-1.45-1.34-.8-3.06-.85-4.52.03-1.39.82-2.21,2.36-2.15,3.97.03.87.42,7.87,4.78,13.13-3.65,4.15-5.93,10.48-5.93,17.7,0,4.01.71,7.75,1.97,10.98H8.59V16.83ZM44.42,71.47c0-.68-.53-1.21-1.21-1.21H14.97c-.66,0-1.21.53-1.21,1.21s.55,1.21,1.21,1.21h28.23c.68,0,1.21-.55,1.21-1.21ZM45.69,60.67c0-.68-.53-1.21-1.21-1.21H14.97c-.66,0-1.21.53-1.21,1.21s.55,1.21,1.21,1.21h29.51c.68,0,1.21-.55,1.21-1.21ZM13.76,28.27c0,.66.53,1.21,1.21,1.21h22.56c.66,0,1.21-.55,1.21-1.21s-.55-1.21-1.21-1.21H14.97c-.68,0-1.21.53-1.21,1.21ZM13.75,39.06c0,.66.55,1.21,1.21,1.21h29.35c.68,0,1.21-.55,1.21-1.21s-.53-1.21-1.21-1.21H14.96c-.66,0-1.21.55-1.21,1.21ZM13.75,49.86c0,.66.55,1.21,1.21,1.21h32.08c.68,0,1.21-.55,1.21-1.21s-.53-1.21-1.21-1.21H14.96c-.66,0-1.21.53-1.21,1.21ZM53.22,14.41h5.46c.68,0,1.21.55,1.21,1.21v21.45c1.57.29,3.49.82,6.04,2.15.05.02.08.05.13.06V13.13c0-2.7-2.2-4.89-4.89-4.89h-7.98c.03.15.03.31.03.47v5.7h0ZM4.89,89.64h48.76c-1.91-1.57-3.55-3.67-4.83-6.17H7.38c-.66,0-1.21-.53-1.21-1.21V15.62c0-.66.55-1.21,1.21-1.21h5.65v-5.7c0-.16,0-.32.03-.47H4.89c-2.7,0-4.89,2.2-4.89,4.89v71.62c0,2.7,2.2,4.89,4.89,4.89ZM33.12,11.97c1.18,0,2.14-.96,2.14-2.13s-.96-2.13-2.14-2.13-2.13.96-2.13,2.13.96,2.13,2.13,2.13ZM16.27,15.81v-7.11c0-1.57,1.28-2.84,2.84-2.84.36-.07,4.6.63,9.01-3.78,1.34-1.34,3.12-2.08,5.01-2.08s3.68.74,5.01,2.08c4.36,4.36,8.7,3.72,9.01,3.78,1.57,0,2.84,1.28,2.84,2.84v7.11c0,1.57-1.28,2.84-2.84,2.84h-28.04c-1.57,0-2.84-1.28-2.84-2.84h0ZM28.57,9.84c0,2.51,2.04,4.55,4.55,4.55s4.56-2.04,4.56-4.55-2.05-4.55-4.56-4.55-4.55,2.04-4.55,4.55ZM89.64,70.07c0,10.79-5.91,19.58-13.16,19.58-2.58,0-5.04-1.07-7.16-3.1-2.12,2.04-4.57,3.1-7.14,3.1-7.27,0-13.18-8.79-13.18-19.58,0-7.75,3.05-14.45,7.45-17.63-.23-.17-.47-.32-.69-.5-5.27-4.47-5.62-12.49-5.64-12.82-.02-.44.21-.86.6-1.08.37-.23.84-.23,1.23,0,2.6,1.5,4.07,1.71,5.8,1.97,7.57,1.08,10.77,4.42,12.07,9.36,1.78-3.63,5.4-7.62,12.69-7.29.67.03,1.19.6,1.16,1.26-.03.67-.6,1.23-1.26,1.16-5.06-.22-8.63,1.93-10.63,6.42-.16.35-.28.71-.41,1.07,1.6-.99,3.32-1.51,5.11-1.51,7.25,0,13.16,8.8,13.16,19.61ZM59.59,59.43c-.56-.36-1.31-.2-1.68.36-1.7,2.63-2.67,6.37-2.67,10.27s.96,6.89,1.77,8.62c.29.61,1.01.86,1.61.59.61-.28.87-1,.59-1.61-.7-1.51-1.54-4.05-1.54-7.59s.83-6.7,2.28-8.95c.36-.56.2-1.31-.36-1.68Z"/></g></svg>