<?xml version="1.0" encoding="UTF-8"?><svg id="Layer_1" xmlns="http://www.w3.org/2000/svg" viewBox="0 0 57.34 57.2"><defs><style>.cls-1{fill:#10416a;}</style></defs><path class="cls-1" d="M25.75,34.27c-7.21,0-12.85,3.58-12.85,8.15.39,10.79,25.32,10.78,25.7,0,0-4.57-5.65-8.15-12.85-8.15ZM25.75,48.51c-5.86,0-10.8-2.79-10.8-6.1s4.95-6.1,10.8-6.1,10.8,2.79,10.8,6.1-4.95,6.1-10.8,6.1h0Z"/><path class="cls-1" d="M31.14,41.07c-1.7.74-3.54,1.1-5.39,1.08-1.85.02-3.69-.34-5.39-1.08-.52-.22-1.12.01-1.35.53-.22.51,0,1.09.5,1.33,3.99,1.68,8.48,1.68,12.47,0,.51-.24.73-.86.48-1.37-.24-.5-.82-.72-1.33-.5Z"/><path class="cls-1" d="M18.87,26.39c0-4.82-2.45-8.59-5.58-8.59-7.38.23-7.38,16.95,0,17.18,3.13,0,5.58-3.77,5.58-8.59ZM9.75,26.39c.21-8.38,6.74-8.92,7.07,0-.31,8.66-6.76,8.66-7.07,0Z"/><path class="cls-1" d="M23.81,25.5c.09,7.22,7.3,7.22,7.39,0-.09-7.22-7.3-7.22-7.39,0ZM27.5,22.09c2.16.31,2.15,6.52,0,6.82-2.15-.31-2.15-6.52,0-6.82h0Z"/><path class="cls-1" d="M38.76,26.19c-4.88.12-4.88,10.8,0,10.92,4.88-.12,4.88-10.8,0-10.92ZM38.76,35.06c-2.16-.31-2.15-6.52,0-6.82,2.16.31,2.15,6.52,0,6.82Z"/><path class="cls-1" d="M23.12,18.05c3.82-.07,3.82-8.21,0-8.28-3.83.07-3.82,8.21,0,8.28ZM23.12,11.82c.26,0,.85.79.85,2.09s-.59,2.09-.85,2.09c-1.11-.3-1.11-3.88,0-4.18Z"/><path class="cls-1" d="M13.94,22.07c-2.83-1.19-2.83,9.83,0,8.64.51-.23.74-.84.51-1.36,0,0,0,0,0,0-.79-1.9-.79-4.03,0-5.93.23-.51,0-1.12-.51-1.36,0,0,0,0,0,0Z"/><path class="cls-1" d="M57.34,11.68C57.35,5.24,52.14,0,45.69,0c-3.65,0-7.1,1.7-9.31,4.61C19.19-1.95-.34,11.71,0,30.17c1.49,36.04,52.85,36.03,54.34,0,0-3.14-.54-6.26-1.62-9.22,2.9-2.2,4.61-5.63,4.61-9.28ZM45.67,2.05c5.32,0,9.62,4.31,9.63,9.63-.52,12.77-18.74,12.77-19.26,0,0-5.32,4.31-9.62,9.63-9.63ZM2.05,30.17C1.75,13.3,19.42.66,35.26,6.41c-4.01,7.51,1.86,17.1,10.41,16.95,1.83,0,3.64-.44,5.27-1.27.9,2.6,1.36,5.33,1.37,8.09-1.38,33.31-48.87,33.32-50.25,0Z"/><path class="cls-1" d="M45.66,14.9c.57,0,1.02-.46,1.02-1.02h0V5.68c0-.57-.46-1.02-1.03-1.02-.56,0-1.02.46-1.02,1.02v8.19c0,.57.46,1.02,1.02,1.02h0Z"/><path class="cls-1" d="M45.68,16.94c-.57,0-1.02.47-1.01,1.04,0,.55.45,1,1.01,1.01.57,0,1.02-.46,1.02-1.02,0-.57-.46-1.02-1.02-1.02Z"/></svg>