<?xml version="1.0" encoding="UTF-8"?><svg id="Layer_1" xmlns="http://www.w3.org/2000/svg" xmlns:xlink="http://www.w3.org/1999/xlink" viewBox="0 0 99.14 99.15"><defs><style>.cls-1{fill:url(#linear-gradient-2);}.cls-2{fill:url(#linear-gradient-4);}.cls-3{fill:url(#linear-gradient-3);}.cls-4{fill:url(#linear-gradient-5);}.cls-5{fill:url(#linear-gradient-6);}.cls-6{fill:url(#linear-gradient);}</style><linearGradient id="linear-gradient" x1="-321.76" y1="463.15" x2="837.14" y2="-855.54" gradientUnits="userSpaceOnUse"><stop offset="0" stop-color="#0f95e8"/><stop offset="1" stop-color="#0375c6"/></linearGradient><linearGradient id="linear-gradient-2" x1="-306.01" y1="476.99" x2="852.89" y2="-841.7" xlink:href="#linear-gradient"/><linearGradient id="linear-gradient-3" x1="-324.35" y1="460.88" x2="834.55" y2="-857.82" xlink:href="#linear-gradient"/><linearGradient id="linear-gradient-4" x1="-296.69" y1="485.18" x2="862.21" y2="-833.51" xlink:href="#linear-gradient"/><linearGradient id="linear-gradient-5" x1="-324.44" y1="460.79" x2="834.46" y2="-857.9" xlink:href="#linear-gradient"/><linearGradient id="linear-gradient-6" x1="-349.24" y1="439" x2="809.67" y2="-879.69" xlink:href="#linear-gradient"/></defs><g id="Icon"><g id="FamilyMembers"><circle class="cls-6" cx="73.91" cy="12.92" r="12.92"/><path class="cls-1" d="M68.07,75l-5.44-21.34c-.97-3.8-4.4-6.47-8.33-6.47h-9.45c-3.93,0-7.36,2.67-8.33,6.47l-5.44,21.34c-.81,3.18,1.59,6.25,4.86,6.25h4.09v13.59c0,2.36,1.92,4.3,4.3,4.3h10.52c2.36,0,4.3-1.92,4.3-4.3v-13.59h4.09c3.25,0,5.65-3.08,4.84-6.25Z"/><circle class="cls-3" cx="49.57" cy="35.4" r="9.55"/><path class="cls-2" d="M98.93,66.5l-7.36-28.87c-1.32-5.15-5.94-8.75-11.25-8.75h-12.78c-1.99,0-3.87.5-5.54,1.41.66,1.57,1.01,3.29,1.01,5.11,0,3.49-1.34,6.66-3.52,9.06,3.35,1.53,5.94,4.51,6.89,8.25l4.22,16.56,1.22,4.78c.08.29.14.6.17.89.37,2.4-.27,4.8-1.78,6.74-1.68,2.19-4.26,3.43-7.01,3.43h-.21v9.72c0,.87-.14,1.7-.39,2.5,1.05,1.1,2.56,1.8,4.2,1.8h14.23c3.21,0,5.81-2.59,5.81-5.81v-18.4h5.52c4.42.02,7.65-4.14,6.56-8.42h0Z"/><path class="cls-4" d="M27.32,74.05l1.22-4.78,4.22-16.56c.95-3.76,3.54-6.72,6.89-8.25-2.19-2.38-3.52-5.58-3.52-9.06,0-1.8.35-3.52,1.01-5.11-1.67-.91-3.54-1.41-5.54-1.41h-12.78c-5.31,0-9.95,3.6-11.25,8.75L.21,66.5c-1.08,4.28,2.15,8.44,6.56,8.44h5.52v18.4c0,3.21,2.59,5.81,5.81,5.81h14.23c1.65,0,3.14-.7,4.2-1.8-.25-.79-.39-1.63-.39-2.5v-9.72h-.21c-2.77,0-5.33-1.26-7.01-3.43-1.51-1.94-2.13-4.36-1.78-6.74.04-.31.1-.62.17-.91h0Z"/><circle class="cls-5" cx="25.22" cy="12.92" r="12.92"/></g></g></svg>