<?xml version="1.0" encoding="UTF-8"?>
<svg id="Layer_1" data-name="Layer 1" xmlns="http://www.w3.org/2000/svg" viewBox="0 0 51.46 50.32">
  <defs>
    <style>
      .cls-1 {
        fill: #eefaff;
      }
    </style>
  </defs>
  <path class="cls-1" d="M47.67,26.37h-.62v16.6c0,4.06-3.29,7.35-7.35,7.35h-6.62v-16.6c0-4.06-3.29-7.35-7.35-7.35s-7.35,3.29-7.35,7.35v16.6h-6.62c-4.06,0-7.35-3.29-7.35-7.35v-16.6h-.62c-2.09,0-3.79-1.7-3.79-3.79,0-1.06.45-2.08,1.23-2.8L20.77,1.93c2.81-2.57,7.11-2.57,9.92,0l19.54,17.86c.79.72,1.23,1.73,1.23,2.8,0,2.09-1.7,3.79-3.79,3.79h0Z"/>
</svg>