<?xml version="1.0" encoding="UTF-8"?>
<svg id="Layer_1" data-name="Layer 1" xmlns="http://www.w3.org/2000/svg" viewBox="0 0 52.07 50.98">
  <defs>
    <style>
      .cls-1 {
        fill: #1865b5;
      }
    </style>
  </defs>
  <path class="cls-1" d="M50.43,19.31L31.73,2.21c-1.56-1.43-3.58-2.21-5.7-2.21s-4.14.79-5.7,2.21L1.64,19.31c-1.04.95-1.64,2.31-1.64,3.72,0,2.5,1.83,4.58,4.22,4.97v14.54c0,4.66,3.79,8.44,8.44,8.44h6.33c.78,0,1.41-.63,1.41-1.41v-15.88c0-3.1,2.52-5.63,5.63-5.63s5.63,2.52,5.63,5.63v15.88c0,.78.63,1.41,1.41,1.41h6.33c4.66,0,8.44-3.79,8.44-8.44v-14.54c2.39-.39,4.22-2.47,4.22-4.97,0-1.41-.6-2.76-1.64-3.72h0ZM47.03,26.65h-.6v15.88c0,3.89-3.15,7.04-7.04,7.04h-6.33v-15.88c0-3.89-3.15-7.04-7.04-7.04s-7.04,3.15-7.04,7.04v15.88h-6.33c-3.89,0-7.04-3.15-7.04-7.04v-15.88h-.6c-2,0-3.63-1.62-3.63-3.63,0-1.02.43-1.99,1.18-2.68L21.29,3.25c2.69-2.46,6.81-2.46,9.5,0l18.7,17.1c.75.69,1.18,1.66,1.18,2.68,0,2-1.62,3.63-3.63,3.63h0Z"/>
</svg>