<?xml version="1.0" encoding="UTF-8"?>
<svg id="Layer_1" data-name="Layer 1" xmlns="http://www.w3.org/2000/svg" viewBox="0 0 75.71 50.89">
  <defs>
    <style>
      .cls-1 {
        fill: #eefaff;
      }
    </style>
  </defs>
  <path class="cls-1" d="M23.89,20.51v-7.19c0-1.08.28-1.89.86-2.48.57-.58,1.34-.87,2.35-.87.56,0,1.3.08,1.64.48.32.37.5,1.14.5,2.15v7.9c0,.7.29,1.16.53,1.41.37.41.91.64,1.5.64s1.12-.23,1.49-.64c.35-.38.53-.87.53-1.42v-8.01c0-1.34-.22-2.5-.65-3.43-.48-1.04-1.23-1.83-2.22-2.35-.91-.47-2.02-.71-3.31-.71s-2.52.31-3.58.91c-.06-.09-.12-.17-.18-.23-.37-.4-.89-.62-1.48-.62-.72,0-1.19.31-1.45.58s-.58.73-.58,1.48v12.02c-.1-.33-.31-.71-.73-1.05l-9.27-8,8.78-7.78c.41-.36.65-.77.72-1.24.1-.63-.14-1.24-.64-1.65-.35-.28-.8-.42-1.31-.42-.35,0-.69.07-1.02.22-.27.12-.54.28-.82.51l-7.54,6.7V2.05c0-.75-.31-1.21-.58-1.48s-.73-.58-1.45-.58-1.19.31-1.45.58-.58.73-.58,1.48v18.46c0,.55.18,1.04.53,1.42.38.41.91.64,1.49.64.63,0,1.18-.24,1.55-.69.22-.26.47-.71.47-1.37v-5.71l8.13,7.02c.24.21.47.37.72.49.33.16.69.25,1.06.25.69,0,1.14-.28,1.4-.52.31-.29.51-.67.57-1.08.07.36.23.69.48.96.38.41.91.64,1.49.64,1.19,0,2.03-.84,2.03-2.05Z"/>
  <path class="cls-1" d="M37.58,21.54c1.12.72,2.44,1.08,3.92,1.08,1.11,0,2.14-.2,3.04-.6.92-.41,1.72-1,2.37-1.76.65-.75,1.14-1.64,1.47-2.66.32-.98.48-2.08.48-3.27,0-1.6-.29-3.03-.87-4.24-.6-1.27-1.47-2.27-2.59-2.99-1.12-.72-2.44-1.08-3.92-1.08-1.09,0-2.11.2-3.02.6-.93.41-1.73,1-2.39,1.77-.65.75-1.14,1.64-1.47,2.66-.32.98-.48,2.08-.48,3.28,0,1.6.29,3.03.87,4.24.6,1.27,1.47,2.28,2.59,2.99ZM38.21,14.31c0-1.01.15-1.87.45-2.54.27-.6.63-1.04,1.1-1.34.48-.31,1.05-.46,1.74-.46,1.04,0,1.78.32,2.36,1,.62.74.94,1.86.94,3.33,0,1-.15,1.85-.45,2.53-.27.61-.63,1.05-1.1,1.35-.48.31-1.05.46-1.74.46-1.02,0-1.77-.32-2.35-1.01-.63-.74-.95-1.86-.95-3.33Z"/>
  <path class="cls-1" d="M52.96,20.95c.2.51.49.91.89,1.19.4.28.86.43,1.34.43s.97-.15,1.37-.43c.42-.3.72-.73.87-1.21l2.72-7.55,2.68,7.57c.19.51.49.91.89,1.19.4.28.86.43,1.35.43s.94-.15,1.35-.43c.42-.3.72-.73.87-1.22l4.26-11.98c.11-.34.16-.68.14-1.02-.03-.44-.18-.85-.44-1.17-.2-.25-.67-.68-1.51-.68-.51,0-.95.14-1.29.4-.31.24-.54.58-.71,1.06l-2.69,7.66-2.59-7.42c-.22-.7-.63-1.09-.94-1.3-.4-.27-.87-.41-1.35-.41s-.97.15-1.37.43c-.39.28-.69.68-.9,1.22l-2.68,7.48-2.6-7.6c-.14-.47-.38-.84-.7-1.1-.24-.19-.67-.43-1.29-.43-.44,0-.85.13-1.19.38-.37.27-.63.65-.76,1.12-.11.42-.08.88.09,1.39l4.21,12Z"/>
  <path class="cls-1" d="M12.17,29.76c-.18-.46-.45-.82-.81-1.08-.37-.27-.81-.41-1.25-.41s-.86.14-1.23.41c-.34.24-.61.58-.82,1.05L.24,47.92c-.16.35-.24.7-.24,1.05,0,.58.25,1.11.68,1.45.35.28.8.43,1.32.43.42,0,.82-.14,1.2-.41.36-.26.63-.62.8-1.08l1.72-4.03h8.75l1.75,4.07c.15.35.37.65.63.89.39.36.89.55,1.44.55.72,0,1.16-.29,1.4-.53.35-.34.54-.82.54-1.35,0-.34-.08-.69-.23-1.03l-7.83-18.18ZM7.44,41.36l2.67-6.27,2.67,6.27h-5.34Z"/>
  <path class="cls-1" d="M32.07,35.34c-1.12-.7-2.43-1.06-3.91-1.06-1.23,0-2.33.25-3.29.76v-4.71c0-.75-.31-1.21-.58-1.48s-.73-.58-1.45-.58-1.19.31-1.45.58-.58.73-.58,1.48v18.46c0,.55.18,1.04.53,1.42.38.41.91.64,1.49.64s1.12-.23,1.49-.64c.08-.08.14-.17.2-.26,1.04.63,2.25.95,3.62.95,1.48,0,2.79-.36,3.9-1.06,1.11-.71,1.98-1.71,2.58-2.99.57-1.22.86-2.65.86-4.25s-.29-3.05-.85-4.26c-.59-1.28-1.46-2.28-2.59-2.99ZM26.39,38.71c.48-.31,1.05-.46,1.74-.46,1.04,0,1.78.32,2.36,1,.62.74.94,1.86.94,3.33,0,1-.15,1.85-.45,2.53-.27.61-.63,1.05-1.1,1.35-.48.31-1.05.46-1.74.46-1.02,0-1.77-.32-2.35-1.01-.63-.74-.95-1.86-.95-3.33,0-1.01.15-1.87.45-2.54.27-.6.63-1.04,1.1-1.34Z"/>
  <path class="cls-1" d="M46.81,35.36c-1.12-.72-2.44-1.08-3.92-1.08-1.09,0-2.11.2-3.02.6-.93.41-1.73,1-2.39,1.77-.65.75-1.14,1.64-1.47,2.66-.32.98-.48,2.08-.48,3.28,0,1.6.29,3.03.87,4.24.6,1.27,1.47,2.28,2.59,2.99,1.12.72,2.44,1.08,3.92,1.08,1.11,0,2.14-.2,3.04-.6.92-.41,1.72-1,2.37-1.76.65-.75,1.14-1.64,1.47-2.66.32-.98.48-2.08.48-3.27,0-1.6-.29-3.03-.87-4.24-.6-1.27-1.47-2.27-2.59-2.99ZM46.18,42.59c0,1-.15,1.85-.45,2.53-.27.61-.63,1.05-1.1,1.35-.48.31-1.05.46-1.74.46-1.02,0-1.77-.32-2.35-1.01-.63-.74-.95-1.86-.95-3.33,0-1.01.15-1.87.45-2.54.27-.6.63-1.04,1.1-1.34.48-.31,1.05-.46,1.74-.46,1.04,0,1.78.32,2.36,1,.62.74.94,1.86.94,3.33Z"/>
  <path class="cls-1" d="M75.21,47.29c-.36-.4-.84-.62-1.37-.62-.32,0-.68.06-1.08.2-.02,0-.16.05-.49.05-.43,0-1-.06-1.23-.37-.28-.37-.42-1.01-.42-1.86v-6.31h2.47c.72,0,1.17-.28,1.43-.51.4-.37.63-.87.63-1.43s-.22-1.06-.63-1.43c-.26-.23-.72-.51-1.43-.51h-2.47v-2.25c0-.74-.31-1.21-.58-1.48-.26-.26-.73-.57-1.45-.57s-1.18.31-1.45.58c-.26.26-.57.73-.57,1.47v2.25h-.77c-.52,0-.99.16-1.37.48-.14.12-.25.26-.35.4-.1-.2-.22-.36-.34-.47-.26-.26-.73-.58-1.45-.58s-1.19.31-1.45.58-.58.73-.58,1.48v7.16c0,1.07-.28,1.89-.86,2.5-.56.59-1.25.87-2.19.87-.77,0-1.3-.17-1.58-.5-.33-.4-.51-1.15-.51-2.17v-7.87c0-.74-.31-1.21-.58-1.48-.26-.26-.73-.57-1.45-.57s-1.19.32-1.45.58c-.26.26-.58.73-.58,1.48v7.98c0,1.32.22,2.47.65,3.41.48,1.03,1.21,1.83,2.18,2.36.91.5,2.02.76,3.31.76s2.41-.3,3.44-.9c.05.08.11.15.17.21.38.41.91.64,1.49.64,1.18,0,2-.84,2-2.05v-10.99s.07.08.11.12c.26.22.71.48,1.37.48h.77v6.56c0,1.16.2,2.18.6,3.04.44.94,1.11,1.67,1.99,2.18.84.48,1.86.73,3.02.73.38,0,.79-.04,1.21-.12.4-.08.73-.16.99-.26.5-.17.89-.51,1.1-.98.13-.29.2-.59.2-.89,0-.66-.27-1.1-.5-1.35Z"/>
</svg>