<?xml version="1.0" encoding="UTF-8"?>
<svg id="Layer_1" data-name="Layer 1" xmlns="http://www.w3.org/2000/svg" xmlns:xlink="http://www.w3.org/1999/xlink" viewBox="0 0 260.43 260.43">
  <defs>
    <style>
      .cls-1 {
        fill: #fff;
      }

      .cls-2 {
        fill: url(#linear-gradient);
      }
    </style>
    <linearGradient id="linear-gradient" x1="130.21" y1="-39.03" x2="130.21" y2="253.06" gradientUnits="userSpaceOnUse">
      <stop offset="0" stop-color="#0f95e8"/>
      <stop offset="1" stop-color="#0375c6"/>
    </linearGradient>
  </defs>
  <rect class="cls-2" width="260.43" height="260.43" rx="49.21" ry="49.21"/>
  <path class="cls-1" d="M125.57,83.8c1.38-3.79,3.37-7.3,5.92-10.26,2.55-2.96,5.58-5.51,8.95-7.44,1.72-.96,3.44-1.79,5.3-2.41,1.86-.62,3.79-1.17,5.78-1.45,2-.34,3.99-.48,6.06-.48s4.13.21,6.2.55c4.13.76,8.33,2.2,12.19,4.27s3.86,2.27,5.65,3.65l.69.55.34.28c.14.07.21.21.34.28.41.34.9.76,1.31,1.1l1.24,1.17.14.14.14.14.28.28.62.62c.41.41.83.83,1.17,1.31l.55.62.55.69c.69.9,1.45,1.79,2.13,2.82,1.38,1.93,2.62,3.79,4.06,6.2,2,3.31,4.27,7.23,6.75,12.74,1.45,3.37,2.34,5.78,4.13,10.74,1.45,4.13,2.62,7.64,3.37,10.19,1.17,4.27,2.41,8.54,3.58,12.81-.48-7.71-1.51-16.46-3.72-26.03-.9-4.06-1.93-8.47-3.99-14.25-3.92-11.02-8.47-17.9-9.78-19.76-1.65-2.48-3.17-4.34-4.2-5.65l-.21-.21-1.51-1.58c-.55-.48-1.1-.96-1.58-1.51-.14-.14-.28-.28-.41-.34l-.41-.34-.83-.69c-2.27-1.86-4.61-3.51-7.02-4.96l-1.86-1.03-1.86-.96c-1.24-.62-2.55-1.17-3.86-1.65-2.55-1.03-5.23-1.79-7.85-2.41-2.62-.55-5.3-.9-7.92-1.03-2.62-.14-5.23,0-7.71.28-2.55.34-5.03.9-7.44,1.65-2.41.76-4.68,1.72-6.89,2.89-4.41,2.34-8.33,5.37-11.64,9.16-3.37,3.72-5.99,8.19-7.92,13.08-.96,2.48-1.72,5.03-2.27,7.71-.55,2.69-.9,5.44-.96,8.19v4.68c-2.2-1.03-4.41-1.86-6.61-2.55-.76-.21-1.51-.48-2.27-.62l-1.17-.28-1.17-.28-.55-.14c-.21,0-.41,0-.55-.07l-1.45-.28c-.28,0-.55-.07-.83-.14-.41,0-.83-.14-1.24-.14-3.03-.34-6.06-.34-9.02-.07s-5.85.83-8.61,1.65c-2.75.83-5.44,1.93-7.92,3.31-.62.34-1.24.69-1.86,1.1-.28.21-.62.34-.9.55l-.9.55c-.55.41-1.17.83-1.72,1.24-.28.21-.55.41-.83.69l-.83.69c-2.2,1.86-4.2,3.92-5.92,6.2-1.79,2.27-3.31,4.75-4.61,7.44-1.31,2.69-2.34,5.51-3.17,8.47-1.58,5.92-2.07,12.33-1.31,18.87.76,6.47,2.69,13.08,5.72,19.14.76,1.51,1.58,3.03,2.48,4.48.41.76.9,1.45,1.38,2.13l.34.55.21.28.21.28.69.96.69.96c.21.34.48.62.76.96l.76.96.34.48c.14.14.28.34.41.48l1.51,1.86,1.58,1.86c4.34,4.82,9.16,9.16,14.32,12.81,3.17,2.2,5.65,3.65,7.92,4.96,11.64,6.61,23.48,9.64,23.48,9.64.69.21,1.72.48,2.89.76,3.17.76,8.68,1.79,17.01,2.07,9.43.28,16.73-.62,21.76-1.24,2.41-.28,9.09-1.24,17.08-3.1,9.92-2.34,23.82-6.61,39.73-14.8-12.53,3.17-25.27,6.06-38.22,8.74-.83.14-1.65.34-2.48.48-5.1,1.03-13.36,2.55-21.55,3.31-2.96.28-5.16.41-7.16.41-4.41.07-8.13-.14-10.74-.41-1.93-.21-4.75-.55-8.06-1.24-3.44-.69-6.27-1.51-8.4-2.2-4.54-1.51-8.06-3.17-10.95-4.54-1.31-.62-2.62-1.24-4.06-2-4.41-2.27-8.81-4.61-13.91-8.54-2.2-1.65-4.27-3.44-6.2-5.37-2-1.93-3.86-3.92-5.65-6.06l-1.31-1.65-1.24-1.65c-.14-.14-.21-.28-.34-.41l-.28-.41-.62-.83c-.21-.28-.41-.55-.62-.83l-.55-.9-.55-.9-.14-.21-.14-.21-.28-.41c-.34-.55-.69-1.1-1.03-1.72-.62-1.1-1.24-2.27-1.79-3.51-.9-1.93-1.65-3.86-2.2-5.85h47.37c1.03,0,1.86-.62,2.13-1.58l.21-.69,2.55,11.91c.21.96,1.1,1.65,2.13,1.65h0c1.03,0,1.86-.69,2.07-1.58l4.68-19.14,15.77,36.08c.28,0,.48.07.69.14.21.14.41.21.76.21h6.27c.9,0,1.38-.62,1.38-1.86v-44.55c0-.62.14-.83.48-.83h.55c.41,0,.69.14.83.69l12.39,38.22c2,6.13,3.72,8.33,7.85,8.33h2.96c4.13,0,5.85-2.2,7.85-8.33l12.39-38.22c.14-.48.34-.69.83-.69h.28c.34,0,.48.28.48.83v44.55c0,1.31.41,1.86,1.38,1.86h6.27c.9,0,1.38-.62,1.38-1.86v-49.3c0-6.54-1.1-8.95-5.37-8.95h-6.54c-3.58,0-4.82,1.1-6.47,6.54l-12.67,41.25c-.21.62-.41.76-.83.76h-.76c-.41,0-.69-.21-.83-.76l-12.67-41.25c-1.65-5.44-2.89-6.54-6.54-6.54h-6.68c-4.34,0-5.44,2.41-5.44,8.95v36.22l-12.88-33.81c-.14-1.03-.96-1.79-2.07-1.79-1.03,0-2,.62-2.27,1.58l-5.3,21.55-2.48-11.57c-.21-.96-1.1-1.65-2.07-1.65-1.03,0-1.93.62-2.2,1.58l-2.07,7.99h-46.89c-.28-1.58-.55-3.17-.69-4.68-.41-4.96,0-9.85,1.38-14.39.62-2.27,1.51-4.41,2.55-6.4,1.03-2,2.27-3.92,3.65-5.65,1.38-1.72,2.96-3.31,4.68-4.75l.62-.55c.28-.21.69-.48.9-.69.34-.28.69-.55,1.1-.76l.69-.41c.21-.14.48-.28.69-.41.48-.28.96-.55,1.45-.83,1.93-1.03,3.99-1.86,6.13-2.48,2.13-.62,4.34-1.03,6.61-1.24,2.27-.21,4.54-.14,6.89.07,2.34.28,4.61.76,6.95,1.45,2.27.69,4.54,1.65,6.75,2.75,2.2,1.1,4.27,2.48,6.27,3.99l13.5,10.19-4.75-16.11c-1.24-4.2-1.79-8.54-1.72-12.81.07-4.27.9-8.33,2.27-12.12h0l.21-.21h0Z"/>
</svg>