<?xml version="1.0" encoding="UTF-8"?><svg id="Layer_1" xmlns="http://www.w3.org/2000/svg" viewBox="0 0 40.23 50.88"><defs><style>.cls-1{fill:#1865b5;}</style></defs><path class="cls-1" d="M28.23,26.99c-1.03,0-2.02.13-2.98.37-1.8-1.67-4.06-2.73-6.48-3.05v-1.5c2.63-1.39,4.45-4.16,4.66-7.13.79-.76,1.34-1.74,1.58-2.79C26.96,5.76,22.06-.05,15.03,0h-4.87c-3.1-.16-5.35,2.97-4.82,5.36-.7.45-1.19,1.09-1.45,1.92-.96,2.95,1.39,7.41,1.87,8.28.17,2.96,1.92,5.74,4.52,7.17v1.58C4.54,24.96-.1,30.28,0,36.07v12.36c0,.42.34.76.76.76h21.55c.42,0,.76-.34.76-.76s-.34-.76-.76-.76H8v-12.29c0-.42-.34-.76-.76-.76s-.76.34-.76.76v2.92H1.52v-2.23c0-5.13,3.78-9.47,8.75-10.22v1.05c0,2.35,1.91,4.25,4.25,4.25s4.25-1.91,4.25-4.25v-1.06c1.75.27,3.41.98,4.8,2.08-4.31,1.81-7.34,6.06-7.34,11.01,0,6.59,5.38,11.94,12,11.94s12-5.36,12-11.94-5.38-11.94-12-11.94h0ZM6.48,39.83v7.84H1.52v-7.84h4.95ZM5.33,7.75c.2-.61.58-1.03,1.17-1.29.35-.15.53-.55.42-.91-.51-1.16.4-4.11,3.23-4.02h4.87c5.94.03,10.23,4.48,8.49,11.02-.1.47-.3.92-.56,1.32l-2.52-6.63c-.16-.46-.78-.64-1.17-.34-2.43,2.23-7.34,1.44-9.34-.03-.39-.27-.97-.08-1.13.36l-2.4,6.21c-.76-1.7-1.57-4.14-1.07-5.7h0ZM17.25,26.9c0,1.51-1.22,2.73-2.73,2.73s-2.73-1.23-2.73-2.73v-3.5c.89.3,1.83.45,2.8.45.91,0,1.81-.14,2.66-.41v3.46h0ZM14.6,22.33c-3.91,0-7.1-3.03-7.32-6.92l2.63-6.81c2.63,1.46,6.88,1.79,9.45.07l2.57,6.74c-.23,3.89-3.42,6.92-7.32,6.92h0ZM28.23,49.36c-5.78,0-10.48-4.68-10.48-10.42s4.7-10.42,10.48-10.42,10.48,4.68,10.48,10.42-4.7,10.42-10.48,10.42Z"/><path class="cls-1" d="M30.1,46.55h-3.74c-.42,0-.76-.34-.76-.76v-4.22h-4.22c-.42,0-.76-.34-.76-.76v-3.74c0-.42.34-.76.76-.76h4.22v-4.22c0-.42.34-.76.76-.76h3.74c.42,0,.76.34.76.76v4.22h4.22c.42,0,.76.34.76.76v3.74c0,.42-.34.76-.76.76h-4.22v4.22c0,.42-.34.76-.76.76ZM27.12,45.02h2.21v-4.22c0-.42.34-.76.76-.76h4.22v-2.21h-4.22c-.42,0-.76-.34-.76-.76v-4.22h-2.21v4.22c0,.42-.34.76-.76.76h-4.22v2.21h4.22c.42,0,.76.34.76.76v4.22Z"/></svg>