<?xml version="1.0" encoding="UTF-8"?><svg id="Layer_1" xmlns="http://www.w3.org/2000/svg" viewBox="0 0 37.18 47.84"><defs><style>.cls-1{fill:#eefaff;}</style></defs><rect class="cls-1" x="0" y="38.29" width="4.96" height="7.85"/><path class="cls-1" d="M13.07,22.32c.92,0,1.81-.14,2.66-.4v3.45c0,1.51-1.22,2.74-2.73,2.74s-2.72-1.23-2.72-2.74v-3.5c.89.3,1.83.45,2.79.45Z"/><path class="cls-1" d="M14.71,37.4c0,3.44,1.47,6.55,3.82,8.74H6.48v-12.29c0-.42-.34-.76-.76-.76s-.76.34-.76.76v2.92H0v-2.23C0,29.41,3.78,25.07,8.75,24.32v1.05c0,2.35,1.91,4.26,4.25,4.26s4.25-1.91,4.25-4.26v-1.05c1.75.26,3.41.98,4.8,2.08-4.31,1.81-7.34,6.06-7.34,11Z"/><path class="cls-1" d="M7.04,17.63h12.07c-1.32,1.92-3.53,3.17-6.04,3.17s-4.72-1.25-6.03-3.17Z"/><path class="cls-1" d="M28.58,36.3h4.22v2.22h-4.22c-.42,0-.76.34-.76.76v4.22h-2.22v-4.22c0-.42-.34-.76-.76-.76h-4.22v-2.22h4.22c.42,0,.76-.34.76-.76v-4.22h2.22v4.22c0,.42.34.76.76.76Z"/><path class="cls-1" d="M26.71,26.99c-5.78,0-10.48,4.68-10.48,10.42s4.7,10.43,10.48,10.43,10.47-4.68,10.47-10.43-4.7-10.42-10.47-10.42ZM33.56,40.04h-4.22v4.22c0,.42-.34.76-.76.76h-3.74c-.42,0-.76-.34-.76-.76v-4.22h-4.22c-.42,0-.76-.34-.76-.76v-3.74c0-.42.34-.76.76-.76h4.22v-4.22c0-.42.34-.76.76-.76h3.74c.42,0,.76.34.76.76v4.22h4.22c.42,0,.76.34.76.76v3.74c0,.42-.34.76-.76.76Z"/><path class="cls-1" d="M0,38.3v7.85h4.96v-7.85H0ZM13.07,22.33c-.96,0-1.9-.15-2.79-.45v3.5c0,1.51,1.22,2.74,2.72,2.74s2.73-1.23,2.73-2.74v-3.45c-.85.26-1.74.4-2.66.4ZM17.83,7.15c-2.57,1.72-6.82,1.39-9.45-.07l-2.63,6.81c.09,1.4.55,2.68,1.29,3.75,1.31,1.92,3.52,3.17,6.03,3.17s4.72-1.25,6.04-3.17c.75-1.07,1.21-2.35,1.29-3.75l-2.57-6.74ZM13.51,0h-4.87c-2.83-.09-3.75,2.85-3.24,4.02.11.36-.07.75-.42.91-.59.26-.97.68-1.17,1.29-.5,1.56.31,4,1.07,5.69l2.4-6.21c.15-.44.74-.62,1.12-.36,2.01,1.47,6.92,2.26,9.35.03.38-.3,1-.12,1.17.34l2.52,6.63c.26-.4.45-.85.56-1.32C23.74,4.48,19.45.04,13.51,0ZM26.71,26.99c-5.78,0-10.48,4.68-10.48,10.42s4.7,10.43,10.48,10.43,10.47-4.68,10.47-10.43-4.7-10.42-10.47-10.42ZM33.56,40.04h-4.22v4.22c0,.42-.34.76-.76.76h-3.74c-.42,0-.76-.34-.76-.76v-4.22h-4.22c-.42,0-.76-.34-.76-.76v-3.74c0-.42.34-.76.76-.76h4.22v-4.22c0-.42.34-.76.76-.76h3.74c.42,0,.76.34.76.76v4.22h4.22c.42,0,.76.34.76.76v3.74c0,.42-.34.76-.76.76ZM27.82,35.54v-4.22h-2.22v4.22c0,.42-.34.76-.76.76h-4.22v2.22h4.22c.42,0,.76.34.76.76v4.22h2.22v-4.22c0-.42.34-.76.76-.76h4.22v-2.22h-4.22c-.42,0-.76-.34-.76-.76Z"/><rect class="cls-1" x="0" y="38.29" width="4.96" height="7.85"/><path class="cls-1" d="M22,11.02c-.11.47-.3.92-.56,1.32l-2.52-6.63c-.17-.46-.79-.64-1.17-.34-2.43,2.23-7.34,1.44-9.35-.03-.38-.26-.97-.08-1.12.36l-2.4,6.21c-.76-1.69-1.57-4.13-1.07-5.69.2-.61.58-1.03,1.17-1.29.35-.16.53-.55.42-.91C4.89,2.85,5.81-.09,8.64,0h4.87c5.94.03,10.23,4.47,8.49,11.02Z"/><path class="cls-1" d="M15.73,21.92v3.45c0,1.51-1.22,2.74-2.73,2.74s-2.72-1.23-2.72-2.74v-3.5c.89.3,1.83.45,2.79.45s1.81-.14,2.66-.4Z"/><path class="cls-1" d="M20.4,13.88c-.08,1.4-.54,2.68-1.29,3.75-1.32,1.92-3.53,3.17-6.04,3.17s-4.72-1.25-6.03-3.17c-.74-1.07-1.2-2.35-1.29-3.75l2.63-6.81c2.63,1.46,6.88,1.79,9.45.07l2.57,6.74Z"/><path class="cls-1" d="M28.58,36.3h4.22v2.22h-4.22c-.42,0-.76.34-.76.76v4.22h-2.22v-4.22c0-.42-.34-.76-.76-.76h-4.22v-2.22h4.22c.42,0,.76-.34.76-.76v-4.22h2.22v4.22c0,.42.34.76.76.76Z"/><path class="cls-1" d="M26.71,26.99c-5.78,0-10.48,4.68-10.48,10.42s4.7,10.43,10.48,10.43,10.47-4.68,10.47-10.43-4.7-10.42-10.47-10.42ZM33.56,40.04h-4.22v4.22c0,.42-.34.76-.76.76h-3.74c-.42,0-.76-.34-.76-.76v-4.22h-4.22c-.42,0-.76-.34-.76-.76v-3.74c0-.42.34-.76.76-.76h4.22v-4.22c0-.42.34-.76.76-.76h3.74c.42,0,.76.34.76.76v4.22h4.22c.42,0,.76.34.76.76v3.74c0,.42-.34.76-.76.76Z"/><path class="cls-1" d="M32.8,36.3v2.22h-4.22c-.42,0-.76.34-.76.76v4.22h-2.22v-4.22c0-.42-.34-.76-.76-.76h-4.22v-2.22h4.22c.42,0,.76-.34.76-.76v-4.22h2.22v4.22c0,.42.34.76.76.76h4.22Z"/><path class="cls-1" d="M32.8,36.3v2.22h-4.22c-.42,0-.76.34-.76.76v4.22h-2.22v-4.22c0-.42-.34-.76-.76-.76h-4.22v-2.22h4.22c.42,0,.76-.34.76-.76v-4.22h2.22v4.22c0,.42.34.76.76.76h4.22Z"/></svg>