<?xml version="1.0" encoding="UTF-8"?>
<svg id="Layer_1" data-name="Layer 1" xmlns="http://www.w3.org/2000/svg" viewBox="0 0 48.13 50.77">
  <defs>
    <style>
      .cls-1 {
        fill: #eefaff;
      }
    </style>
  </defs>
  <path class="cls-1" d="M0,41.68v-21.33c0-.47.41-.88.87-.88h3.51l-.24,8.39c0,1.95.11,3.66.35,5.27l.3.89c-1.16,1.64-1.89,3.25-2.19,4.95-1.08.73-1.97,1.67-2.59,2.72Z"/>
  <path class="cls-1" d="M5.02,12.79c-.08-.31.06-.45.17-.53l.02-.02c.09-.09.2-.14.32-.14.05,0,.1,0,.15.02l2.81.83c.68.2,1.4.06,1.9-.36l1.07-.82c.22-.15.35-.22.63-.22h3.11v4.53c-.86-.1-1.59.09-2.16.58-.82.72-1.14,2.07-.8,3.33.42,1.71,1.6,3.03,3.23,3.65.12,1.06.62,3.4,2.63,5.07v.78h-4.1c-3.16,0-6.12,1.27-8.36,3.56l-.03-.09c-.2-1.33-.42-3.1-.33-5l.24-8.9c.17-1.75,0-3.84-.5-6.26Z"/>
  <path class="cls-1" d="M20.27,32.61c-.47,0-.88-.41-.88-.87v-2.34c.7.46,1.54.73,2.66.88.43.09.94.09,1.44.09.6,0,1.21-.06,1.85-.14l.25-.02c1.13-.19,2.41-.46,3.48-1.08v2.62c0,.46-.41.87-.87.87h-7.92Z"/>
  <path class="cls-1" d="M16.42,13.48v-2.54c0-1.46,1.23-2.7,2.7-2.7h9.65c1.46,0,2.69,1.23,2.69,2.7v2.63c-.81-.96-2.01-1.6-3.33-1.75-1.52-.17-3.05-.26-4.58-.26-1.27,0-2.54.06-3.8.17-1.31.15-2.52.79-3.33,1.75Z"/>
  <path class="cls-1" d="M14.49,17.25c.45,0,.68.05.97.12l.2.04c.28.12.45-.05.53-.13s.22-.22.22-.47v-.08c0-1.96,1.52-3.61,3.46-3.77,2.66-.26,5.39-.23,8.13.08,2,.24,3.45,1.82,3.45,3.77v.25l.17.17v.11h.5c.64-.17,1.17-.14,1.56.09.3.17.5.46.59.83.32,1.27-.52,3.44-2.95,4.24-.17.08-.36.21-.35.48-.57,4.45-2.24,5.46-5.78,6.01-1.29.17-2.22.24-3.16.09-5.46-.88-5.53-5.79-5.53-6,0-.28-.17-.5-.48-.6-1.45-.38-2.5-1.44-2.83-2.83-.21-.86-.04-1.72.44-2.12.19-.19.46-.28.86-.28Z"/>
  <path class="cls-1" d="M18.1,30.62v1.2c0,1.18.92,2.1,2.09,2.1h7.92c1.17,0,2.1-.92,2.1-2.1v-1.2h3.51c3.25,0,6.3,1.5,8.34,4.13.82,1.15,1.38,2.25,1.69,3.36-.5-.18-.98-.3-1.5-.37-11.98-1.89-24.22-1.9-36.36,0-.59.07-1.22.24-1.83.5,1.2-4.44,5.35-7.62,10.02-7.62h4.02Z"/>
  <path class="cls-1" d="M32.84,16.18v-4.54h3.1l.09-.02c.06-.03.23,0,.35.13l1.17.83c.51.43,1.23.56,2,.37l2.89-.83c.17-.05.35-.02.54.12.13.13.17.3.12.47-.58,2.49-.75,4.6-.5,6.24l.24,8.91c.07,1.5-.03,3.11-.32,5.06l-.07.3c-2.15-2.39-5.24-3.75-8.57-3.75h-3.51v-1.12c1.06-1.02,1.71-2.52,2.04-4.73,2.69-1.07,3.81-3.7,3.31-5.56-.24-.98-1.15-1.99-2.88-1.89Z"/>
  <path class="cls-1" d="M47.97,50.67h.08c-.06.06-.14.1-.21.1H.3c-.14,0-.3-.16-.3-.3v-4.37c0-2.48,1.28-4.83,3.34-6.17.08-.02.14-.07.18-.15.68-.43,1.51-.75,2.42-.92,12.03-1.89,24.14-1.89,36,0,3.44.56,6.02,3.64,6.02,7.15v4.65Z"/>
  <path class="cls-1" d="M48.13,20.35v21.36c-.73-1.19-1.73-2.19-2.92-2.92-.35-1.65-1.01-3.19-1.94-4.45l.31-1.16c.29-1.51.42-3.18.42-5.41l-.24-8.3h3.51c.46,0,.87.41.87.88Z"/>
  <path class="cls-1" d="M4.79,34.01c-1.16,1.64-1.89,3.25-2.19,4.95-1.08.73-1.97,1.67-2.59,2.72v-21.33c0-.47.41-.88.87-.88h3.51l-.24,8.39c0,1.95.11,3.66.35,5.27l.3.89Z"/>
  <path class="cls-1" d="M31.46,10.94v2.63c-.81-.96-2.01-1.6-3.33-1.75-1.52-.17-3.05-.26-4.58-.26-1.27,0-2.54.06-3.8.17-1.31.15-2.52.79-3.33,1.75v-2.54c0-1.46,1.23-2.7,2.7-2.7h9.65c1.46,0,2.69,1.23,2.69,2.7Z"/>
  <path class="cls-1" d="M31.32,22.49c-.17.08-.36.21-.35.48-.57,4.45-2.24,5.46-5.78,6.01-1.29.17-2.22.24-3.16.09-5.46-.88-5.53-5.79-5.53-6,0-.28-.17-.5-.48-.6-1.45-.38-2.5-1.44-2.83-2.83-.21-.86-.04-1.72.44-2.12.19-.19.46-.28.86-.28.45,0,.68.05.97.12l.2.04c.28.12.45-.05.53-.13s.22-.22.22-.47v-.08c0-1.96,1.52-3.61,3.46-3.77,2.66-.26,5.39-.23,8.13.08,2,.24,3.45,1.82,3.45,3.77v.25l.17.17v.11h.5c.64-.17,1.17-.14,1.56.09.3.17.5.46.59.83.32,1.27-.52,3.44-2.95,4.24Z"/>
  <path class="cls-1" d="M43.11,12.71c-.58,2.49-.75,4.6-.5,6.24l.24,8.91c.07,1.5-.03,3.11-.32,5.06l-.07.3c-2.15-2.39-5.24-3.75-8.57-3.75h-3.51v-1.12c1.06-1.02,1.71-2.52,2.04-4.73,2.69-1.07,3.81-3.7,3.31-5.56-.24-.98-1.15-1.99-2.88-1.89v-4.54h3.1l.09-.02c.06-.03.23,0,.35.13l1.17.83c.51.43,1.23.56,2,.37l2.89-.83c.17-.05.35-.02.54.12.13.13.17.3.12.47Z"/>
  <path class="cls-1" d="M43.75,38.1c-.5-.18-.98-.3-1.5-.37-11.98-1.89-24.22-1.9-36.36,0-.59.07-1.22.24-1.83.5,1.2-4.44,5.35-7.62,10.02-7.62h4.02v1.2c0,1.18.92,2.1,2.09,2.1h7.92c1.17,0,2.1-.92,2.1-2.1v-1.2h3.51c3.25,0,6.3,1.5,8.34,4.13.82,1.15,1.38,2.25,1.69,3.36Z"/>
  <path class="cls-1" d="M29.07,29.12v2.62c0,.46-.41.87-.87.87h-7.92c-.47,0-.88-.41-.88-.87v-2.34c.7.46,1.54.73,2.66.88.43.09.94.09,1.44.09.6,0,1.21-.06,1.85-.14l.25-.02c1.13-.19,2.41-.46,3.48-1.08Z"/>
  <path class="cls-1" d="M18.1,28.7v.78h-4.1c-3.16,0-6.12,1.27-8.36,3.56l-.03-.09c-.2-1.33-.42-3.1-.33-5l.24-8.9c.17-1.75,0-3.84-.5-6.26-.08-.31.06-.45.17-.53l.02-.02c.09-.09.2-.14.32-.14.05,0,.1,0,.15.02l2.81.83c.68.2,1.4.06,1.9-.36l1.07-.82c.22-.15.35-.22.63-.22h3.11v4.53c-.86-.1-1.59.09-2.16.58-.82.72-1.14,2.07-.8,3.33.42,1.71,1.6,3.03,3.23,3.65.12,1.06.62,3.4,2.63,5.07Z"/>
  <path class="cls-1" d="M48.04,50.67c-.06.06-.14.1-.21.1H.3c-.14,0-.3-.16-.3-.3v-4.37c0-2.48,1.28-4.83,3.34-6.17.08-.02.14-.07.18-.15.68-.43,1.51-.75,2.42-.92,12.03-1.89,24.14-1.89,36,0,3.44.56,6.02,3.64,6.02,7.15v4.65h.08Z"/>
  <path class="cls-1" d="M48.13,20.35v21.36c-.73-1.19-1.73-2.19-2.92-2.92-.35-1.65-1.01-3.19-1.94-4.45l.31-1.16c.29-1.51.42-3.18.42-5.41l-.24-8.3h3.51c.46,0,.87.41.87.88Z"/>
  <path class="cls-1" d="M44.92,4.8h-2.86c-.35,0-.61.25-.61.61v2.85h-1.34v-2.85c0-.36-.24-.61-.61-.61h-2.86v-1.34h2.86c.36,0,.61-.25.61-.61V0h1.34v2.85c0,.36.25.61.61.61h2.86v1.34Z"/>
  <path class="cls-1" d="M44.92,3.47v1.34h-2.86c-.35,0-.61.25-.61.61v2.85h-1.34v-2.85c0-.36-.24-.61-.61-.61h-2.86v-1.34h2.86c.36,0,.61-.25.61-.61V0h1.34v2.85c0,.36.25.61.61.61h2.86Z"/>
  <path class="cls-1" d="M44.92,3.47v1.34h-2.86c-.35,0-.61.25-.61.61v2.85h-1.34v-2.85c0-.36-.24-.61-.61-.61h-2.86v-1.34h2.86c.36,0,.61-.25.61-.61V0h1.34v2.85c0,.36.25.61.61.61h2.86Z"/>
</svg>