<?xml version="1.0" encoding="UTF-8"?>
<svg id="Layer_1" data-name="Layer 1" xmlns="http://www.w3.org/2000/svg" viewBox="0 0 48.29 50.89">
  <defs>
    <style>
      .cls-1 {
        fill: #1865b5;
      }
    </style>
  </defs>
  <g>
    <path class="cls-1" d="M46.28,18.89h-3.55c-.16-1.5,0-3.24.47-5.37.08-.47,0-1.03-.39-1.34-.39-.39-.95-.47-1.42-.32l-2.76.79c-.39.08-.71.08-1.03-.16l-1.11-.79c-.32-.24-.71-.39-1.18-.39h-3.24c-.16-1.74-1.66-3.16-3.47-3.16h-9.23c-1.82,0-3.32,1.34-3.47,3.16h-3.24c-.39,0-.79.16-1.11.39l-1.03.79c-.32.24-.63.32-1.03.16l-2.68-.79c-.47-.16-1.03,0-1.42.32-.39.39-.55.87-.39,1.34.47,2.13.63,3.79.47,5.37H1.92c-.95,0-1.74.79-1.74,1.74v28.81c0,.71.55,1.26,1.26,1.26h45.38c.71,0,1.26-.55,1.26-1.26v-28.81c-.08-.95-.87-1.74-1.82-1.74ZM36.02,12.26l1.11.79c.47.39,1.11.47,1.74.32l2.76-.79c.24-.08.47,0,.71.16.16.16.24.39.16.63-.55,2.37-.71,4.34-.47,5.92l.24,8.52c.08,1.66-.08,3.32-.32,4.89l-.16.63c-2.05-2.45-5.05-3.79-8.29-3.79h-3.55v-1.34c1.03-.95,1.66-2.37,1.97-4.58,2.53-.95,3.63-3.39,3.16-5.13-.24-.95-1.11-1.82-2.76-1.66v-4.74h3.16c.16-.08.39,0,.55.16ZM14.55,30.26h4.03v1.34c0,1.03.79,1.82,1.82,1.82h7.58c1.03,0,1.82-.79,1.82-1.82v-1.34h3.55c3.24,0,6.16,1.5,8.13,4.03.79,1.11,1.42,2.29,1.74,3.63-.55-.24-1.11-.39-1.74-.47-11.44-1.82-23.13-1.82-34.73,0-.71.08-1.42.32-2.05.63,1.03-4.5,5.13-7.81,9.87-7.81ZM16.13,17.63c.16.08.24,0,.32-.08s.16-.16.16-.32v-.08c0-1.97,1.5-3.63,3.47-3.79,2.45-.24,5.05-.24,7.81.08,1.97.24,3.47,1.82,3.47,3.79v.16l.08.08s.08,0,.08.08h.24c1.18-.32,2.05.08,2.29,1.03.32,1.26-.47,3.47-2.92,4.26-.16.08-.24.16-.24.32-.55,4.34-2.21,5.37-5.68,5.92-1.18.16-2.13.24-3.08.08-5.37-.87-5.45-5.68-5.45-5.92,0-.16-.08-.32-.32-.39-1.5-.39-2.53-1.5-2.84-2.84-.24-.95,0-1.82.47-2.21.24-.24.55-.32.95-.32.55,0,.79.08,1.18.16ZM22.21,29.94c.39.08.87.08,1.34.08.63,0,1.26-.08,1.97-.16,1.42-.24,2.6-.55,3.55-1.18v2.84c0,.55-.47,1.03-1.03,1.03h-7.58c-.55,0-1.03-.47-1.03-1.03v-2.6c.71.55,1.58.87,2.76,1.03ZM19.37,8.87h9.23c1.5,0,2.76,1.26,2.76,2.76v3.08c-.71-1.11-1.97-1.89-3.39-2.05-2.76-.32-5.45-.32-7.97-.08-1.42.16-2.68.95-3.39,2.05v-3c0-1.5,1.26-2.76,2.76-2.76ZM5.95,12.74c.16-.16.39-.24.63-.16l2.68.79c.55.16,1.18.08,1.66-.32l1.03-.79c.24-.16.39-.24.71-.24h3.16v4.74c-.87-.16-1.58,0-2.13.47-.71.63-1.03,1.82-.71,3,.39,1.58,1.5,2.84,3.08,3.39.08.79.47,3.24,2.53,4.89v1.03h-4.1c-3.16,0-6,1.34-8.05,3.55l-.16-.39c-.24-1.58-.39-3.16-.32-4.81l.24-8.52c.16-1.66,0-3.63-.47-5.92-.08-.32,0-.55.24-.71ZM.9,20.63c0-.55.47-1.03,1.03-1.03h3.55l-.24,8.21c0,1.66.08,3.32.32,4.97l.32.95c-1.03,1.42-1.82,3-2.13,4.81-1.18.79-2.21,1.89-2.84,3.24v-21.15ZM47.31,49.44c0,.24-.24.47-.47.47H1.37c-.24,0-.47-.24-.47-.47v-4.18c0-2.53,1.34-4.81,3.32-6.08,0,0,.08,0,.08-.08.71-.47,1.58-.79,2.45-.95,11.52-1.82,23.13-1.82,34.49,0,3.39.55,5.92,3.55,5.92,7.02v4.26h.16ZM44.15,38.39c-.32-1.58-.95-3.08-1.89-4.34l.32-1.18c.32-1.66.39-3.39.39-5.13l-.24-8.13h3.55c.55,0,1.03.47,1.03,1.03v21.15c-.71-1.42-1.82-2.6-3.16-3.39Z"/>
    <path class="cls-1" d="M46.84,50.89H1.45c-.81,0-1.45-.64-1.45-1.45v-28.81c0-1.04.88-1.92,1.92-1.92h3.38c.12-1.47-.03-3.07-.49-5.14-.17-.51-.01-1.06.45-1.52.49-.4,1.11-.53,1.61-.36l2.68.79c.33.13.57.09.86-.13l1.02-.79c.37-.28.81-.43,1.22-.43h3.07c.24-1.81,1.78-3.16,3.64-3.16h9.23c1.82,0,3.39,1.37,3.64,3.16h3.07c.48,0,.91.15,1.3.43l1.1.79c.27.2.52.2.88.13l2.75-.79c.57-.19,1.19-.05,1.61.36.38.3.55.87.45,1.51-.45,2.04-.61,3.73-.49,5.15h3.38c1.03,0,1.91.84,2,1.91v28.82c0,.81-.64,1.45-1.45,1.45ZM1.92,19.08c-.84,0-1.55.71-1.55,1.55v28.81c0,.6.47,1.08,1.07,1.08h45.38c.6,0,1.07-.47,1.07-1.08v-28.81c-.07-.85-.8-1.55-1.63-1.55h-3.72l-.02-.17c-.16-1.52,0-3.24.48-5.43.03-.18.1-.81-.33-1.15-.33-.33-.8-.43-1.24-.28l-2.77.79c-.39.08-.8.11-1.19-.19l-1.1-.79c-.32-.24-.68-.36-1.07-.36h-3.41l-.02-.17c-.15-1.67-1.6-2.99-3.29-2.99h-9.23c-1.73,0-3.14,1.28-3.29,2.99v.17h-3.42c-.33,0-.68.13-.99.36l-1.02.79c-.4.3-.78.36-1.21.18l-2.67-.78c-.39-.13-.88-.02-1.25.28-.24.24-.5.64-.33,1.14.49,2.21.64,3.88.48,5.45l-.02.17H1.92ZM46.84,50.1H1.37c-.34,0-.66-.32-.66-.66v-4.18c0-2.5,1.3-4.89,3.39-6.23v-.03l.08-.06c.7-.47,1.57-.8,2.52-.98,11.55-1.82,23.17-1.82,34.55,0,3.47.56,6.08,3.66,6.08,7.21v4.07h.16v.19c0,.34-.32.66-.66.66ZM4.28,39.36c-1.97,1.28-3.2,3.53-3.2,5.9v4.18c0,.13.15.29.29.29h45.46c.07,0,.14-.04.2-.1h-.07v-4.45c0-3.36-2.48-6.3-5.76-6.84-11.34-1.81-22.93-1.81-34.43,0-.87.16-1.67.46-2.31.88-.03.07-.1.12-.17.14ZM.71,42.62v-21.99c0-.66.56-1.21,1.21-1.21h3.74l-.24,8.4c0,1.85.1,3.46.31,4.94l.34,1.01-.06.08c-1.13,1.56-1.82,3.11-2.1,4.74v.08s-.08.04-.08.04c-1.23.82-2.19,1.91-2.78,3.16l-.36.76ZM1.92,19.79c-.45,0-.84.39-.84.84v20.4c.6-1.01,1.45-1.9,2.48-2.6.3-1.62.98-3.18,2.09-4.73l-.29-.86c-.22-1.53-.33-3.16-.33-5.03l.23-8.02H1.92ZM47.5,42.58l-.36-.71c-.7-1.39-1.76-2.54-3.08-3.32l-.07-.04-.02-.08c-.32-1.59-.96-3.07-1.86-4.26l-.05-.07.34-1.27c.27-1.41.39-2.98.39-5.08l-.24-8.32h3.75c.66,0,1.21.56,1.21,1.21v21.95ZM44.32,38.27c1.14.69,2.1,1.64,2.8,2.79v-20.43c0-.45-.39-.84-.84-.84h-3.36l.23,7.94c0,2.13-.12,3.73-.4,5.17l-.3,1.11c.89,1.21,1.53,2.68,1.86,4.26ZM4.42,38.42l.09-.39c1.05-4.61,5.28-7.96,10.05-7.96h4.21v1.53c0,.93.7,1.63,1.63,1.63h7.58c.93,0,1.63-.7,1.63-1.63v-1.53h3.74c3.23,0,6.24,1.49,8.28,4.1.9,1.27,1.48,2.48,1.77,3.7l.09.36-.34-.15c-.56-.24-1.09-.39-1.69-.46-11.43-1.81-23.1-1.81-34.68,0-.65.07-1.34.28-2,.61l-.36.18ZM14.55,30.45c-4.47,0-8.44,3.04-9.59,7.29.59-.25,1.19-.42,1.75-.48,11.61-1.82,23.32-1.82,34.78,0,.5.06.96.17,1.43.35-.3-1.06-.83-2.11-1.61-3.21-1.96-2.51-4.87-3.95-7.98-3.95h-3.36v1.15c0,1.12-.88,2-2,2h-7.58c-1.12,0-2-.88-2-2v-1.15h-3.84ZM41.88,33.74l-.24-.28c-1.98-2.37-4.95-3.72-8.14-3.72h-3.74v-1.61l.06-.06c1-.93,1.61-2.34,1.92-4.47l.02-.11.1-.04c2.45-.92,3.49-3.26,3.04-4.9-.1-.41-.59-1.71-2.56-1.52l-.21.02v-5.13h3.31c.22-.08.5,0,.71.2l1.09.78c.41.34.97.44,1.58.29l2.76-.79c.26-.09.55-.03.87.18.25.24.33.56.23.85-.54,2.32-.7,4.28-.47,5.83l.24,8.55c.07,1.45-.03,3.02-.32,4.93l-.25,1.01ZM30.13,29.36h3.36c3.18,0,6.14,1.3,8.19,3.58l.07-.28c.28-1.87.38-3.41.31-4.84l-.24-8.53c-.24-1.57-.08-3.59.48-5.97.06-.17.01-.33-.11-.46-.19-.12-.36-.16-.52-.11l-2.77.79c-.74.19-1.42.06-1.91-.35l-1.12-.8c-.11-.11-.27-.15-.34-.12l-.08.02h-2.97v4.35c1.67-.09,2.52.87,2.76,1.81.48,1.77-.59,4.29-3.17,5.31-.32,2.11-.94,3.55-1.96,4.52v1.07ZM6.36,33.45l-.27-.67c-.2-1.33-.42-3.05-.33-4.89l.24-8.52c.16-1.64,0-3.62-.47-5.88-.12-.48.09-.75.3-.89.22-.21.53-.28.81-.19l2.68.79c.54.16,1.09.05,1.48-.28l1.03-.79c.28-.19.47-.28.83-.28h3.34v5.15l-.22-.04c-.81-.15-1.46,0-1.97.43-.68.6-.94,1.73-.65,2.81.39,1.55,1.47,2.74,2.96,3.26l.11.04v.12c.1.91.52,3.19,2.47,4.77l.07.06v1.3h-4.29c-3.01,0-5.82,1.24-7.91,3.49l-.2.22ZM6.39,12.74c-.11,0-.22.05-.31.13l-.03.02c-.11.08-.23.2-.16.51.48,2.3.64,4.31.48,5.98l-.24,8.51c-.09,1.81.12,3.51.31,4.78l.04.08c2.14-2.2,4.97-3.4,7.99-3.4h3.92v-.75c-1.92-1.59-2.39-3.83-2.51-4.85-1.56-.58-2.68-1.85-3.09-3.49-.32-1.21-.01-2.49.77-3.19.55-.47,1.24-.66,2.07-.55v-4.33h-2.97c-.27,0-.39.06-.61.2l-1.02.78c-.48.4-1.17.53-1.82.35l-2.68-.79s-.09-.02-.14-.02ZM28.05,32.74h-7.58c-.66,0-1.21-.56-1.21-1.21v-2.99l.3.24c.68.53,1.5.83,2.67.99h.01c.38.08.85.08,1.3.08.55,0,1.12-.06,1.72-.13l.23-.02c1.14-.19,2.46-.48,3.47-1.15l.29-.19v3.19c0,.66-.56,1.21-1.21,1.21ZM19.63,29.28v2.24c0,.45.39.84.84.84h7.58c.45,0,.84-.39.84-.84v-2.5c-1.02.59-2.25.85-3.33,1.03l-.24.03c-.61.07-1.19.13-1.77.13-.47,0-.96,0-1.37-.08-1.07-.14-1.87-.41-2.54-.85ZM23.22,29.43c-.39,0-.76-.03-1.12-.09-5.54-.9-5.6-5.89-5.6-6.11,0-.07-.02-.16-.19-.22-1.51-.4-2.62-1.51-2.97-2.98-.24-.96-.03-1.93.54-2.4.24-.24.58-.36,1.07-.36s.72.06,1.02.12l.25.06s.04.01.04.01c.01,0,.04-.04.06-.06.07-.07.1-.11.1-.18v-.08c0-2.07,1.6-3.81,3.65-3.98,2.57-.25,5.21-.22,7.85.08,2.11.25,3.64,1.92,3.64,3.97v.07s.06.03.08.06h.1c.69-.18,1.3-.13,1.76.14.37.22.62.57.74,1.03.34,1.36-.53,3.67-3.04,4.49-.11.06-.11.09-.11.14-.57,4.5-2.34,5.55-5.84,6.11-.76.1-1.41.17-2.01.17ZM14.95,17.66c-.38,0-.63.08-.81.26-.46.38-.63,1.21-.42,2.03.31,1.33,1.33,2.34,2.71,2.71.29.1.46.31.46.58,0,.2.06,4.89,5.29,5.73.9.15,1.79.09,3.02-.08,3.38-.54,4.98-1.5,5.52-5.76,0-.26.18-.38.34-.46,2.32-.75,3.13-2.83,2.82-4.05-.09-.36-.28-.63-.57-.8-.37-.22-.89-.25-1.49-.09h-.28s-.19,0-.19,0v-.11l-.16-.16v-.23c0-1.86-1.39-3.37-3.31-3.6-2.61-.3-5.23-.33-7.77-.08-1.85.15-3.3,1.73-3.3,3.6v.08c0,.24-.13.36-.21.45-.08.08-.24.25-.51.12l-.19-.04c-.28-.06-.51-.11-.94-.11ZM31.55,15.35l-.35-.54c-.7-1.08-1.91-1.82-3.26-1.97-2.62-.3-5.29-.33-7.93-.08-1.34.15-2.56.88-3.25,1.97l-.35.54v-3.64c0-1.6,1.35-2.95,2.95-2.95h9.23c1.6,0,2.95,1.35,2.95,2.95v3.72ZM23.61,12.22c1.47,0,2.93.08,4.38.25,1.25.14,2.41.75,3.18,1.67v-2.51c0-1.4-1.18-2.57-2.57-2.57h-9.23c-1.4,0-2.57,1.18-2.57,2.57v2.43c.78-.92,1.93-1.53,3.19-1.67,1.21-.11,2.42-.17,3.63-.17Z"/>
  </g>
  <g>
    <path class="cls-1" d="M35.55,6.74h2.92v2.92c0,.24.16.39.39.39h2.45c.24,0,.39-.16.39-.39v-2.92h2.92c.24,0,.39-.16.39-.39v-2.45c0-.24-.16-.39-.39-.39h-2.92V.58c0-.24-.16-.39-.39-.39h-2.45c-.24,0-.39.16-.39.39v2.92h-2.92c-.24,0-.39.16-.39.39v2.45c0,.24.16.39.39.39ZM35.94,4.29h2.92c.24,0,.39-.16.39-.39V.98h1.66v2.92c0,.24.16.39.39.39h2.92v1.66h-2.92c-.24,0-.39.16-.39.39v2.92h-1.66v-2.92c0-.24-.16-.39-.39-.39h-2.92v-1.66Z"/>
    <path class="cls-1" d="M41.31,10.24h-2.45c-.34,0-.58-.24-.58-.58v-2.73h-2.73c-.34,0-.58-.24-.58-.58v-2.45c0-.34.24-.58.58-.58h2.73V.58c0-.34.24-.58.58-.58h2.45c.34,0,.58.24.58.58v2.73h2.73c.34,0,.58.24.58.58v2.45c0,.34-.24.58-.58.58h-2.73v2.73c0,.34-.24.58-.58.58ZM35.55,3.69c-.13,0-.21.07-.21.21v2.45c0,.13.07.21.21.21h3.11v3.11c0,.13.07.21.21.21h2.45c.13,0,.21-.07.21-.21v-3.11h3.11c.13,0,.21-.07.21-.21v-2.45c0-.13-.07-.21-.21-.21h-3.11V.58c0-.13-.07-.21-.21-.21h-2.45c-.13,0-.21.07-.21.21v3.11h-3.11ZM41.1,9.45h-2.03v-3.11c0-.13-.07-.21-.21-.21h-3.11v-2.03h3.11c.13,0,.21-.07.21-.21V.79h2.03v3.11c0,.13.07.21.21.21h3.11v2.03h-3.11c-.13,0-.21.07-.21.21v3.11ZM39.45,9.08h1.28v-2.73c0-.34.24-.58.58-.58h2.73v-1.28h-2.73c-.34,0-.58-.24-.58-.58V1.17h-1.28v2.73c0,.34-.24.58-.58.58h-2.73v1.28h2.73c.34,0,.58.24.58.58v2.73Z"/>
  </g>
</svg>