<?xml version="1.0" encoding="UTF-8"?><svg id="Layer_1" xmlns="http://www.w3.org/2000/svg" xmlns:xlink="http://www.w3.org/1999/xlink" viewBox="0 0 79.81 99.15"><defs><style>.cls-1{fill:url(#linear-gradient-2);}.cls-2{fill:url(#linear-gradient);}</style><linearGradient id="linear-gradient" x1="-619.96" y1="804.51" x2="538.94" y2="-514.18" gradientUnits="userSpaceOnUse"><stop offset="0" stop-color="#0f95e8"/><stop offset="1" stop-color="#0375c6"/></linearGradient><linearGradient id="linear-gradient-2" x1="-648.78" y1="779.19" x2="510.13" y2="-539.5" xlink:href="#linear-gradient"/></defs><path class="cls-2" d="M72.94,99.15c-3.78,0-6.85-3.07-6.85-6.85v-5.81c.03-9.17-5.96-17.28-14.71-19.99l-1.82-.57-6.85,3.93c-6.17,3.57-9.98,10.16-10.01,17.28v4.65c0,3.93-3.13,7.21-7,7.33h-.21c-3.96,0-7.21-3.22-7.21-7.18v-.03c.03-3.1.36-9.2,2.5-15.55,1.1-3.25,3.1-6.7,5.15-9.77-1.16.89-2.59,1.37-4.08,1.37-.3,0-.6-.03-.89-.06l-8.55-1.13c-3.66-.48-6.26-3.84-5.75-7.51.15-1.04.51-2.03,1.1-2.89l7.86-11.62c2.56-6.61,10.04-12.87,12.51-14.8-3.69-7-12.84-14.33-18.08-18.14-2.92-2.14-3.54-6.23-1.4-9.14C10.74-.19,14.71-.84,17.62,1.15c13.05,8.94,20.02,18.29,23.56,24.6,3.34,5.9,4.35,10.22,4.59,11.44l20.64,23.83c7.3,4.2,12.03,11.77,12.63,20.17l.74,10.6c.27,3.78-2.59,7.06-6.37,7.3-.15.06-.3.06-.48.06ZM24.51,54.92c3.25,1.37,4.91,4.97,3.84,8.34,1.67-2.23,3.19-4.02,4.05-4.97l-5.84-6.7-2.06,3.34Z"/><path class="cls-1" d="M12.74,38.59c-2,0-3.93-.48-5.72-1.34-2.8-1.34-5-3.66-6.2-6.52-1.16-2.71-1.1-5.81.21-8.46,1.76-3.54,5.51-5.78,9.8-5.78,2,0,3.93.48,5.72,1.34,2.8,1.34,5,3.66,6.2,6.52,1.16,2.71,1.1,5.81-.18,8.46-1.79,3.54-5.54,5.78-9.83,5.78h0Z"/></svg>