<?xml version="1.0" encoding="UTF-8"?><svg id="Layer_1" xmlns="http://www.w3.org/2000/svg" viewBox="0 0 60.4 58.73"><defs><style>.cls-1{fill:#10416a;}</style></defs><path class="cls-1" d="M38.81,19.05l-1.62-1.08c-1.12,1.68-2.82,2.88-4.78,3.37l-.49.12.47,1.89.49-.12c2.43-.61,4.54-2.09,5.93-4.18Z"/><path class="cls-1" d="M44.65,17.97l-1.62,1.08c1.39,2.09,3.5,3.57,5.93,4.18l.49.12.47-1.89-.49-.12c-1.96-.49-3.66-1.69-4.78-3.37h0Z"/><path class="cls-1" d="M58.45,18.08v-4.44c0-7.52-6.12-13.64-13.64-13.64h-7.79c-3.64,0-7.07,1.42-9.64,4-2.58,2.58-4,6-3.99,9.64v4.44c-1.16.68-1.95,1.92-1.95,3.36,0,2.15,1.75,3.9,3.9,3.9h2.1c.66,4.55,3.56,8.37,7.55,10.31-2.07,1.49-3.62,3.58-4.44,6.05l-.29.87,1.85.62.29-.87c.83-2.5,2.56-4.54,4.87-5.8,1.17.33,2.39.51,3.66.51s2.49-.19,3.66-.51c1.89,1.03,3.39,2.59,4.32,4.5-1.15.19-2.23.69-3.12,1.47-1.15-1.01-2.61-1.56-4.16-1.56-1.97,0-3.86.94-5.04,2.52l-.37.49c-.74.99-1.15,2.22-1.15,3.46,0,.45.05.9.15,1.33h-6.52l-1.26,1.88-3.98-8.96-6.87,12.76-4.78-9.56-2.59,3.89H0v1.95h10.26l1.31-1.96,4.96,9.92,6.77-12.57,3.81,8.57,2.64-3.96h6.35c.31.45.69.87,1.13,1.22l8.55,6.84,8.55-6.84c1.37-1.1,2.16-2.74,2.16-4.5,0-1.24-.41-2.47-1.15-3.46l-.37-.49c-.96-1.28-2.39-2.14-3.95-2.41-.87-2.17-2.31-4.03-4.18-5.38,3.99-1.94,6.89-5.76,7.55-10.31h2.1c2.15,0,3.9-1.75,3.9-3.9,0-1.44-.79-2.68-1.95-3.36h0ZM53.43,44.61l.37.49c.49.65.76,1.47.76,2.29,0,1.17-.52,2.25-1.43,2.98l-7.34,5.87-6.96-5.57h4.22c.4,1.13,1.47,1.95,2.74,1.95,1.61,0,2.92-1.31,2.92-2.92s-1.31-2.92-2.92-2.92c-1.27,0-2.34.82-2.74,1.95h-5.76c-.16-.42-.26-.86-.26-1.33,0-.82.27-1.63.76-2.29l.37-.49c.82-1.09,2.12-1.74,3.48-1.74,1.16,0,2.26.45,3.08,1.28l1.08,1.08,1.08-1.08c.82-.82,1.92-1.28,3.08-1.28,1.36,0,2.66.65,3.48,1.74h0ZM44.81,49.69c0-.54.44-.97.97-.97s.97.44.97.97-.44.97-.97.97-.97-.44-.97-.97ZM25.33,23.38c-1.07,0-1.95-.87-1.95-1.95s.87-1.95,1.95-1.95h1.95v3.9h-1.95ZM52.61,23.38c0,6.45-5.24,11.69-11.69,11.69s-11.69-5.24-11.69-11.69v-7.81c0-.78.46-1.48,1.18-1.79l3.7-1.59c1.26.92,2.79,1.45,4.43,1.45h7.63c1.09,0,2.13-.24,3.09-.68l2.12.85c.74.3,1.22,1.01,1.22,1.81v7.76ZM52.11,12l-.85-.34c.44-.41.84-.87,1.18-1.38l-1.62-1.08c-1.04,1.56-2.78,2.49-4.65,2.49h-7.63c-2.3,0-4.34-1.38-5.19-3.51l-.3-.75-1.81.72.3.74c.27.67.63,1.27,1.05,1.82l-2.95,1.26c-1.44.61-2.36,2.02-2.36,3.58v1.97h-1.95v-3.9c0-3.12,1.22-6.06,3.42-8.27,2.21-2.21,5.14-3.43,8.27-3.43h7.79c6.45,0,11.69,5.24,11.69,11.69v3.9h-1.95v-1.92c0-1.6-.96-3.02-2.45-3.62ZM56.5,23.38h-1.95v-3.9h1.95c1.07,0,1.95.87,1.95,1.95s-.87,1.95-1.95,1.95Z"/><path class="cls-1" d="M43.84,27.28c-.97,0-1.85.54-2.28,1.41l-.1.21c-.21.41-.87.41-1.08,0l-.1-.21c-.44-.87-1.31-1.41-2.28-1.41s-1.85.54-2.28,1.41l-.54,1.08,1.74.87.54-1.08c.21-.41.87-.41,1.08,0l.1.21c.44.87,1.31,1.41,2.28,1.41s1.85-.54,2.28-1.41l.1-.21c.21-.41.87-.41,1.08,0l.54,1.08,1.74-.87-.54-1.08c-.43-.87-1.31-1.41-2.28-1.41h0Z"/><path class="cls-1" d="M7.75,37.02h.1c3.2,0,5.8-2.6,5.8-5.8,0-1.55-.6-3-1.7-4.1l-.25-.25v-1.55h5.85v-1.95h-5.85v-1.95h3.9v-1.95h-3.9v-1.95h5.85v-1.95h-5.85v-1.95h3.9v-1.95h-3.9v-1.95h5.85v-1.95h-5.85v-1.95c0-2.15-1.75-3.9-3.9-3.9s-3.9,1.75-3.9,3.9v21.03l-.25.25c-1.09,1.1-1.7,2.55-1.7,4.1,0,3.2,2.6,5.8,5.8,5.8ZM7.79,3.9c1.07,0,1.95.87,1.95,1.95v1.95h-3.9v-1.95c0-1.07.87-1.95,1.95-1.95ZM5.02,28.5l.82-.82V9.74h3.9v17.94l.82.82c.73.73,1.13,1.69,1.13,2.72,0,2.12-1.73,3.85-3.85,3.85h-.1c-2.12,0-3.85-1.73-3.85-3.85,0-1.03.4-1.99,1.13-2.72Z"/></svg>