<?xml version="1.0" encoding="UTF-8"?>
<svg id="Layer_1" data-name="Layer 1" xmlns="http://www.w3.org/2000/svg" xmlns:xlink="http://www.w3.org/1999/xlink" viewBox="0 0 476.94 508.09">
  <defs>
    <style>
      .cls-1 {
        fill: url(#linear-gradient-2);
      }

      .cls-2 {
        fill: none;
      }

      .cls-3 {
        fill: #eefaff;
      }

      .cls-4 {
        fill: url(#linear-gradient);
      }

      .cls-5 {
        clip-path: url(#clippath);
      }
    </style>
    <clipPath id="clippath">
      <circle class="cls-2" cx="238.47" cy="238.47" r="238.47"/>
    </clipPath>
    <linearGradient id="linear-gradient" x1="138.9" y1="202.29" x2="332.95" y2="202.29" gradientUnits="userSpaceOnUse">
      <stop offset="0" stop-color="#0f95e8"/>
      <stop offset="1" stop-color="#0375c6"/>
    </linearGradient>
    <linearGradient id="linear-gradient-2" x1="70.43" y1="403.97" x2="406.5" y2="403.97" xlink:href="#linear-gradient"/>
  </defs>
  <circle class="cls-3" cx="238.47" cy="238.47" r="238.47"/>
  <g class="cls-5">
    <g>
      <path class="cls-4" d="M235.93,299.31c26.66,0,49.74-9.56,68.6-28.42,18.86-18.86,28.42-41.94,28.42-68.6s-9.56-49.73-28.42-68.6c-18.86-18.86-41.94-28.42-68.6-28.42s-49.74,9.56-68.6,28.42c-18.86,18.86-28.42,41.94-28.42,68.59s9.56,49.74,28.43,68.6c18.86,18.86,41.94,28.42,68.59,28.42Z"/>
      <path class="cls-1" d="M405.69,415.01c-.54-7.85-1.64-16.41-3.26-25.45-1.63-9.11-3.74-17.72-6.26-25.59-2.6-8.13-6.14-16.17-10.52-23.87-4.54-7.99-9.88-14.95-15.86-20.67-6.26-5.99-13.92-10.81-22.79-14.32-8.83-3.49-18.62-5.26-29.09-5.26-4.11,0-8.09,1.69-15.77,6.69-4.73,3.08-10.26,6.65-16.43,10.59-5.28,3.36-12.43,6.51-21.25,9.36-8.61,2.79-17.36,4.2-25.99,4.2s-17.38-1.41-26-4.2c-8.82-2.85-15.97-6-21.24-9.36-6.11-3.91-11.64-7.47-16.44-10.6-7.67-5-11.65-6.69-15.76-6.69-10.47,0-20.26,1.77-29.09,5.27-8.86,3.51-16.52,8.32-22.79,14.32-5.98,5.73-11.32,12.68-15.86,20.67-4.37,7.7-7.91,15.73-10.52,23.87-2.52,7.87-4.62,16.48-6.26,25.59-1.62,9.03-2.72,17.59-3.26,25.46-.53,7.71-.81,15.71-.81,23.79,0,21.03,6.68,38.05,19.87,50.6,13.02,12.39,30.24,18.67,51.19,18.67h193.96c20.95,0,38.17-6.28,51.19-18.67,13.18-12.54,19.87-29.57,19.87-50.61,0-8.12-.28-16.12-.81-23.79Z"/>
    </g>
  </g>
</svg>