<?xml version="1.0" encoding="UTF-8"?>
<svg id="Layer_1" data-name="Layer 1" xmlns="http://www.w3.org/2000/svg" viewBox="0 0 50.86 50.86">
  <defs>
    <style>
      .cls-1 {
        fill: #1865b5;
      }
    </style>
  </defs>
  <g id="Layer_27" data-name="Layer 27">
    <path class="cls-1" d="M29.08,21.6c4.06-2.01,5.71-6.93,3.7-10.99-2.01-4.06-6.93-5.71-10.99-3.7-4.06,2.01-5.71,6.93-3.7,10.99.8,1.6,2.1,2.9,3.7,3.7-7.1,1.69-12.1,8.03-12.11,15.33,0,2.11.43,3.38,1.34,3.98,1.36.88,3.34.06,5.85-1.01s5.4-2.31,8.56-2.31,6.19,1.27,8.56,2.31c1.4.73,2.92,1.2,4.48,1.39.49.02.96-.12,1.37-.38.88-.6,1.34-1.87,1.34-3.98,0-7.3-5.01-13.64-12.11-15.33ZM18.57,14.27c0-3.8,3.08-6.87,6.87-6.87s6.87,3.08,6.87,6.87-3.08,6.87-6.87,6.87h0c-3.79,0-6.86-3.08-6.86-6.87ZM39.12,39.79c-.77.51-2.54-.25-4.6-1.12-2.51-1.08-5.65-2.41-9.08-2.41s-6.56,1.34-9.08,2.45c-2.05.88-3.82,1.64-4.59,1.12-.49-.32-.75-1.32-.75-2.87,0-7.97,6.46-14.43,14.43-14.43s14.43,6.46,14.43,14.43c0,1.52-.28,2.52-.74,2.84ZM25.43,50.86C11.39,50.86,0,39.48,0,25.43S11.39,0,25.43,0s25.43,11.39,25.43,25.43c-.02,14.04-11.39,25.41-25.43,25.43ZM25.43,1.33C12.12,1.33,1.33,12.12,1.33,25.43s10.79,24.1,24.1,24.1,24.1-10.79,24.1-24.1c-.01-13.31-10.8-24.09-24.1-24.1Z"/>
  </g>
</svg>