<?xml version="1.0" encoding="UTF-8"?>
<svg id="Layer_1" data-name="Layer 1" xmlns="http://www.w3.org/2000/svg" viewBox="0 0 50.84 50.83">
  <defs>
    <style>
      .cls-1 {
        fill: #eefaff;
      }
    </style>
  </defs>
  <g id="Layer_27" data-name="Layer 27">
    <path class="cls-1" d="M18.18,13.65c0-4,3.24-7.25,7.25-7.25s7.24,3.25,7.24,7.25-3.24,7.25-7.24,7.25h-.02c-3.99,0-7.23-3.25-7.23-7.25Z"/>
    <path class="cls-1" d="M40.64,37.56c0,1.61-.29,2.66-.78,3-.81.54-2.67-.26-4.85-1.19-2.65-1.14-5.96-2.55-9.57-2.55s-6.92,1.41-9.58,2.58c-2.16.94-4.03,1.73-4.85,1.19-.51-.33-.79-1.38-.79-3.03,0-8.4,6.81-15.21,15.21-15.21s15.21,6.81,15.21,15.21Z"/>
    <path class="cls-1" d="M32.67,13.65c0,4-3.24,7.25-7.24,7.25h-.02c-3.99,0-7.23-3.25-7.23-7.25s3.24-7.25,7.25-7.25,7.24,3.25,7.24,7.25Z"/>
    <path class="cls-1" d="M40.64,37.56c0,1.61-.29,2.66-.78,3-.81.54-2.67-.26-4.85-1.19-2.65-1.14-5.96-2.55-9.57-2.55s-6.92,1.41-9.58,2.58c-2.16.94-4.03,1.73-4.85,1.19-.51-.33-.79-1.38-.79-3.03,0-8.4,6.81-15.21,15.21-15.21s15.21,6.81,15.21,15.21Z"/>
    <path class="cls-1" d="M25.41,0C11.38,0,0,11.38,0,25.41s11.38,25.41,25.41,25.41,25.42-11.38,25.42-25.41C50.82,11.39,39.45.02,25.41,0ZM40.63,41.73c-.43.28-.93.42-1.44.41-1.66-.2-3.25-.7-4.73-1.46-2.5-1.09-5.7-2.43-9.02-2.43s-6.39,1.3-9.03,2.43c-2.64,1.13-4.73,2-6.17,1.06-.96-.63-1.42-1.97-1.42-4.19,0-7.69,5.28-14.38,12.77-16.17-1.69-.84-3.06-2.2-3.91-3.9-2.12-4.28-.37-9.47,3.91-11.59,4.27-2.12,9.46-.38,11.59,3.9,2.12,4.28.37,9.47-3.91,11.59,7.49,1.78,12.77,8.47,12.77,16.17,0,2.23-.47,3.56-1.41,4.19Z"/>
  </g>
</svg>