<?xml version="1.0" encoding="UTF-8"?><svg id="Layer_1" xmlns="http://www.w3.org/2000/svg" viewBox="0 0 66.58 64.09"><defs><style>.cls-1{fill:#10416a;}</style></defs><path class="cls-1" d="M24.03,28.89c.23-.62.42-1.27.55-1.93h3.49c1.54,0,2.89-.8,3.63-2.15.74-1.35.69-2.92-.14-4.22L19.65,1.91c-.76-1.2-2.07-1.91-3.49-1.91s-2.73.72-3.49,1.91L.76,20.59c-.83,1.29-.88,2.87-.14,4.22.74,1.35,2.1,2.15,3.63,2.15h18.34c-.47,1.87-1.45,3.68-2.21,5.56-.12-.19-.25-.39-.4-.59-1.07-1.45-3.11-3.18-6.73-3.18-.54,0-.98.44-.98.98s.44.98.98.98c4.76,0,6,3.69,6.23,4.58-.36,1.54-.54,3.37-.42,5.82.12,2.38-.17,4.94-3.24,5.8-1.84.52-5.73.37-8.93-2.18-3.53-2.81-5.23-7.84-4.9-14.53,0-.17.02-.35.03-.52.03-.54-.37-1-.91-1.04-.54-.04-1,.37-1.04.91-.01.18-.02.36-.03.55-.25,5.12.53,12.08,5.63,16.15,2.56,2.04,5.63,2.85,8.14,2.85.94,0,1.81-.11,2.53-.32,4.98-1.4,4.74-6.2,4.66-7.78-.04-.84-.05-1.59-.02-2.28.91.35,1.71.82,2.37,1.4,1.83,1.61,2.76,4.21,2.76,7.72v15.27c0,.54.44.98.98.98s.98-.44.98-.98v-15.27c0-4.1-1.15-7.18-3.42-9.18-.96-.84-2.12-1.49-3.46-1.94.1-.6.22-1.15.37-1.67,1.62.52,3.02,1.29,4.19,2.31,2.67,2.33,4.03,5.86,4.03,10.48v15.27c0,.54.44.98.98.98s.98-.44.98-.98v-15.27c0-5.21-1.58-9.23-4.69-11.95-.68-.59-1.43-1.12-2.23-1.56,1.98-.57,4.15-1.76,5.05-4.27.18-.51-.08-1.07-.59-1.25-.51-.18-1.07.08-1.25.59-.91,2.51-3.86,3.22-5.65,3.41.47-1.1,1.12-2.47,1.67-3.92h0ZM2.33,23.87c-.39-.71-.36-1.55.07-2.23L14.31,2.96c.41-.64,1.08-1.01,1.85-1.01s1.44.37,1.85,1.01l11.91,18.68c.44.68.46,1.52.07,2.23-.39.71-1.11,1.14-1.92,1.14H4.25c-.81,0-1.53-.43-1.92-1.14Z"/><path class="cls-1" d="M39.49,53.89c-.54,0-.98.44-.98.98v8.25c0,.54.44.98.98.98s.98-.44.98-.98v-8.25c0-.54-.44-.98-.98-.98Z"/><path class="cls-1" d="M66.54,30.11c-.45-9.28-4.26-13.21-7.38-14.88-4.87-2.6-10.48-1.24-13.07.31-2.03,1.22-3.47,3.34-4.07,5.98-.34,1.5-.38,3.13-.15,4.71-2.22-2.49-2.18-6.16-2.18-6.19,0,0,0-.02,0-.03V6.39c0-.54-.44-.98-.98-.98s-.98.44-.98.98v13.61c0,.39.03,5.15,3.28,8.13.51.47,1.08.88,1.71,1.22.33.83.65,1.57.97,2.28-1.48-.51-2.77-1.26-3.86-2.27-3.96-3.65-3.81-9.21-3.8-9.44,0-.01,0-.02,0-.03V6.39c0-.54-.44-.98-.98-.98s-.98.44-.98.98v13.48c-.01.47-.1,6.75,4.43,10.93,1.37,1.26,2.99,2.19,4.85,2.78-1.43.58-2.71,1.35-3.81,2.32-3.11,2.72-4.69,6.74-4.69,11.95v15.27c0,.54.44.98.98.98s.98-.44.98-.98v-15.27c0-4.62,1.35-8.15,4.03-10.48,1.17-1.02,2.58-1.8,4.19-2.31.15.52.27,1.07.37,1.67-1.34.45-2.5,1.09-3.46,1.94-2.27,2-3.42,5.09-3.42,9.18v2.42c0,.54.44.98.98.98s.98-.44.98-.98v-2.42c0-3.51.93-6.11,2.76-7.72.66-.58,1.46-1.05,2.37-1.4.03.69.02,1.44-.02,2.28-.08,1.58-.32,6.37,4.66,7.78.73.21,1.59.32,2.53.32,2.51,0,5.57-.81,8.13-2.85,5.11-4.07,5.88-11.03,5.63-16.15h0ZM59.69,44.73c-3.19,2.54-7.09,2.69-8.93,2.18-3.07-.87-3.36-3.42-3.24-5.8.12-2.46-.06-4.28-.42-5.82.23-.89,1.47-4.58,6.23-4.58.54,0,.98-.44.98-.98s-.44-.98-.98-.98c-3.62,0-5.66,1.73-6.73,3.18-.15.2-.28.39-.4.59-.54-1.32-1.23-2.72-1.83-4.31-1.8-4.78-.03-9.35,2.72-10.99,1.26-.76,3.51-1.49,6-1.49,1.69,0,3.48.34,5.15,1.23,3.83,2.05,6.03,6.63,6.35,13.25.33,6.69-1.37,11.72-4.9,14.53Z"/><path class="cls-1" d="M16.16,19.45c-.54,0-.97.44-.97.97s.44.97.97.97.97-.44.97-.97c0-.54-.44-.97-.97-.97Z"/><path class="cls-1" d="M16.16,7.57c-.54,0-.98.44-.98.98v7.19c0,.54.44.98.98.98s.98-.44.98-.98v-7.19c0-.54-.44-.98-.98-.98Z"/></svg>