<?xml version="1.0" encoding="UTF-8"?><svg id="Layer_1" xmlns="http://www.w3.org/2000/svg" viewBox="0 0 66.89 67.47"><defs><style>.cls-1{fill:#10416a;}</style></defs><path class="cls-1" d="M57.98,56.18c5.76-6.2,8.92-14.25,8.92-22.74,0-8.93-3.48-17.33-9.8-23.65C50.78,3.48,42.38,0,33.44,0S16.11,3.48,9.79,9.8C3.48,16.12,0,24.52,0,33.45c0,8.49,3.16,16.53,8.92,22.74l-.94,1.62c-1.18,2.05-1.18,4.39,0,6.44,1.18,2.05,3.21,3.22,5.58,3.22h39.78c2.36,0,4.39-1.18,5.58-3.22,1.18-2.05,1.18-4.39,0-6.44l-.94-1.62ZM50.43,43.11c1.52-2.67,2.38-5.66,2.53-8.73h12.04c-.22,7.47-3.03,14.53-8.01,20.1l-6.56-11.37h0ZM17.57,41.2c-1.17-2.4-1.79-5.05-1.79-7.75,0-9.74,7.92-17.67,17.66-17.67,6.24,0,11.95,3.25,15.14,8.56l-7.26,3.01-2.3-3.99c-1.18-2.05-3.21-3.22-5.58-3.22s-4.39,1.17-5.58,3.22l-10.3,17.84h0ZM13.93,32.51H1.89c.23-8,3.46-15.26,8.59-20.7l8.51,8.51c-2.96,3.26-4.84,7.51-5.06,12.19h0ZM46.59,18.98c-3.31-3.01-7.6-4.83-12.2-5.05V1.89c8,.23,15.26,3.46,20.7,8.59l-8.5,8.5ZM32.51,13.93c-4.68.22-8.94,2.1-12.19,5.06l-8.51-8.51C17.25,5.35,24.51,2.12,32.51,1.89v12.04s0,0,0,0ZM54.03,24.11c.18-.08.38-.07.57,0,.19.08.33.22.41.4.16.38-.03.82-.41.98l-11.57,4.8-.75-1.3,11.76-4.87h0ZM50.59,29.18c.34,1.39.52,2.82.52,4.26,0,2.7-.62,5.35-1.79,7.75l-5.35-9.27,6.62-2.74h0ZM65,32.51h-12.04c-.07-1.37-.27-2.73-.62-4.05l2.97-1.23c1.33-.55,1.97-2.09,1.42-3.42-.27-.65-.77-1.15-1.42-1.42-.65-.27-1.36-.27-2.01,0l-2.98,1.23c-.7-1.2-1.51-2.31-2.42-3.31l8.5-8.5c5.13,5.44,8.36,12.7,8.59,20.7h0ZM1.89,34.39h12.04c.15,3.07,1.01,6.06,2.53,8.73l-6.56,11.37c-4.98-5.56-7.8-12.62-8.02-20.1h0ZM57.29,63.3c-.84,1.45-2.28,2.28-3.95,2.28H13.56c-1.67,0-3.12-.83-3.95-2.28-.84-1.45-.84-3.11,0-4.57L29.49,24.3c.84-1.45,2.28-2.28,3.95-2.28s3.12.83,3.95,2.28l19.89,34.45c.84,1.45.84,3.11,0,4.57h0ZM35.02,25.67c-.35-.61-.87-.91-1.57-.91s-1.22.3-1.57.91L11.99,60.12c-.35.61-.35,1.2,0,1.82s.87.91,1.57.91h39.78c.71,0,1.22-.3,1.57-.91.35-.61.35-1.2,0-1.82l-19.89-34.45h0ZM13.66,60.97l19.78-34.27,19.79,34.27H13.66s0,0,0,0ZM30.91,35.7c-.46.49-.69,1.11-.65,1.78l.73,11.92c.07,1.15,1.03,2.05,2.18,2.05h.56c1.15,0,2.11-.9,2.18-2.05l.72-11.92c.04-.67-.18-1.29-.65-1.78-.46-.49-1.07-.75-1.74-.75h-1.59c-.68,0-1.28.26-1.74.75h0ZM34.62,36.99c.11.11.15.23.14.39l-.72,11.92c0,.16-.15.29-.31.29h-.56c-.16,0-.3-.13-.31-.29l-.73-11.92c0-.16.03-.27.14-.39.11-.11.22-.16.38-.16h1.59c.16,0,.27.05.38.16h0ZM33.45,53.31c-1.56,0-2.84,1.27-2.83,2.84,0,1.56,1.27,2.84,2.84,2.83,1.56,0,2.84-1.27,2.83-2.84s-1.27-2.84-2.84-2.83h0ZM33.45,57.1c-.53,0-.96-.43-.96-.96s.43-.96.96-.96.96.43.96.96-.43.96-.96.96Z"/></svg>