<?xml version="1.0" encoding="UTF-8"?><svg id="Layer_1" xmlns="http://www.w3.org/2000/svg" xmlns:xlink="http://www.w3.org/1999/xlink" viewBox="0 0 99.15 99.15"><defs><style>.cls-1{fill:url(#linear-gradient);fill-rule:evenodd;}</style><linearGradient id="linear-gradient" x1="-149.69" y1="280.71" x2="1009.21" y2="-1037.98" gradientUnits="userSpaceOnUse"><stop offset="0" stop-color="#0f95e8"/><stop offset="1" stop-color="#0375c6"/></linearGradient></defs><path class="cls-1" d="M74.62,0c-13.55,0-24.53,10.98-24.53,24.53s10.98,24.53,24.53,24.53,24.53-10.98,24.53-24.53S88.17,0,74.62,0ZM74.62,44.52c-11.04,0-19.99-8.95-19.99-19.99s8.95-19.99,19.99-19.99,19.99,8.95,19.99,19.99-8.95,19.99-19.99,19.99ZM22.5,89.45l-6,7.66h5.19c.56,0,1.02.46,1.02,1.02s-.46,1.02-1.02,1.02h-6.08c-1.31,0-2.11-1.53-1.27-2.6l6-7.66h-5.19c-.56,0-1.02-.46-1.02-1.02s.46-1.02,1.02-1.02h6.08c1.31,0,2.11,1.53,1.27,2.6ZM8.49,71.99l-6,7.66h5.19c.56,0,1.02.46,1.02,1.02s-.46,1.02-1.02,1.02H1.62c-1.31,0-2.11-1.53-1.27-2.6l6-7.66H1.15c-.56,0-1.02-.46-1.02-1.02s.46-1.02,1.02-1.02h6.08c1.31,0,2.11,1.53,1.27,2.6ZM90.59,69.39c.31.45.29,1.03-.05,1.45-1.08,1.36-2.23,2.65-3.45,3.89-.32-1.67-.42-3.45-.8-5.02.98-.24,1.96-.5,2.94-.8.52-.16,1.07.03,1.37.48h0ZM35.57,71.92c-.73,3.74-1.49,7.66-1.42,12.48-16.76-7.66-27.5-24.37-27.5-42.81,0-15.62,7.69-30.12,20.58-38.9.45-.31,1.03-.29,1.45.05s.58.9.38,1.4c-3.91,10.02-4.39,21.27-1.38,31.59,1.31,4.5,3.25,8.72,5.71,12.58,4.07,8.74,3.96,14.43,2.18,23.6h0ZM89.97,84.33c-.38,2.91-2.02,6.01-4.87,7.03-1.47.52-2.73.08-3.85-.93-1.86-1.68-2.98-4.49-3.16-6.95-.16-2.3-.13-4-.11-5.46.05-2.85.08-4.83-1.18-8.02-.21-.53-.8-.78-1.32-.57-.53.21-.78.8-.57,1.32,1.12,2.83,1.09,4.63,1.04,7.23-.02,1.52-.05,3.3.11,5.63.06.89.22,1.77.46,2.63.17.62-.16,1.27-.77,1.49-1.04.37-2.33.94-3.65,1.79-1.5.97-3.05,2.3-4.34,4.13-1,1.41-2.3,2.6-3.95,3.2-1.12.41-2.29.56-3.43.18-1.73-.58-2.97-2.24-3.86-3.75-2.27-3.89-2.03-7.99-1.59-12.3.31-3.06.64-6.21-.15-9.96-.11-.55-.65-.91-1.21-.79s-.91.65-.79,1.21c.72,3.44.41,6.44.12,9.34-.38,3.72-.59,7.08.53,10.56.12.36.07.72-.13,1.03s-.5.51-.88.56c-5.04.64-9.52,2.93-11.85,4.31-.58.34-1.33.15-1.68-.42-1.79-2.98-2.49-7.72-2.66-10.84-.28-5.35.55-9.62,1.33-13.67,2.12-10.94,1.67-18.34-4.06-28.14,2.57.19,7.33.78,11.78,2.65,3.55,1.49,6.02,3.75,8.38,5.91,4.09,3.74,7.85,7.18,15.97,6.45,3.72-.34,7.15.94,9.79,3.16,2.8,2.36,4.71,5.79,5.16,9.48.28,2.34.61,4.61,1.44,6.68.72,1.8,1.79,3.4,3.48,4.71.36.28.53.69.47,1.13h0ZM74.62,6.59c-9.91,0-17.94,8.03-17.94,17.94s8.03,17.94,17.94,17.94,17.94-8.03,17.94-17.94-8.03-17.94-17.94-17.94ZM60.54,25.55h-.59c-.56,0-1.02-.46-1.02-1.02s.46-1.02,1.02-1.02h.59c.56,0,1.02.46,1.02,1.02s-.46,1.02-1.02,1.02ZM73.6,9.86c0-.56.46-1.02,1.02-1.02s1.02.46,1.02,1.02v.59c0,.56-.46,1.02-1.02,1.02s-1.02-.46-1.02-1.02v-.59ZM63.52,13.44c.4-.4,1.05-.4,1.45,0l.42.42c.4.4.4,1.05,0,1.45s-1.05.4-1.45,0l-.42-.42c-.4-.4-.4-1.05,0-1.45ZM65.39,35.21l-.42.42c-.4.4-1.05.4-1.45,0s-.4-1.05,0-1.45l.42-.42c.4-.4,1.05-.4,1.45,0s.4,1.04,0,1.45ZM75.64,39.21c0,.56-.46,1.02-1.02,1.02s-1.02-.46-1.02-1.02v-.59c0-.56.46-1.02,1.02-1.02s1.02.46,1.02,1.02v.59ZM81.22,31.14c-.4.4-1.05.4-1.45,0l-4.8-4.8c-1.13.22-2.2-.64-2.2-1.81,0-.64.33-1.2.82-1.53v-8.37c0-.56.46-1.02,1.02-1.02s1.02.46,1.02,1.02v8.37c.61.41.93,1.14.78,1.89l4.8,4.8c.4.4.4,1.04,0,1.44h0ZM85.72,35.63c-.4.4-1.05.4-1.45,0l-.42-.42c-.4-.4-.4-1.05,0-1.45s1.05-.4,1.45,0l.42.42c.4.4.4,1.05,0,1.45ZM85.72,14.88l-.42.42c-.4.4-1.05.4-1.45,0s-.4-1.05,0-1.45l.42-.42c.4-.4,1.05-.4,1.45,0,.4.4.4,1.05,0,1.45ZM89.29,25.56h-.59c-.56,0-1.02-.46-1.02-1.02s.46-1.02,1.02-1.02h.59c.56,0,1.02.46,1.02,1.02s-.46,1.02-1.02,1.02Z"/></svg>