<?xml version="1.0" encoding="UTF-8"?><svg id="Layer_1" xmlns="http://www.w3.org/2000/svg" xmlns:xlink="http://www.w3.org/1999/xlink" viewBox="0 0 78.97 99.32"><defs><style>.cls-1{fill:url(#linear-gradient-2);}.cls-2{fill:url(#linear-gradient-4);}.cls-3{fill:url(#linear-gradient-3);}.cls-4{fill:url(#linear-gradient-5);}.cls-5{fill:url(#linear-gradient);}</style><linearGradient id="linear-gradient" x1="-777.32" y1="1008.83" x2="381.58" y2="-309.86" gradientUnits="userSpaceOnUse"><stop offset="0" stop-color="#0f95e8"/><stop offset="1" stop-color="#0375c6"/></linearGradient><linearGradient id="linear-gradient-2" x1="-789.88" y1="997.8" x2="369.02" y2="-320.9" xlink:href="#linear-gradient"/><linearGradient id="linear-gradient-3" x1="-811.61" y1="978.7" x2="347.29" y2="-339.99" xlink:href="#linear-gradient"/><linearGradient id="linear-gradient-4" x1="-789.86" y1="997.81" x2="369.04" y2="-320.88" xlink:href="#linear-gradient"/><linearGradient id="linear-gradient-5" x1="-820.79" y1="970.64" x2="338.11" y2="-348.06" xlink:href="#linear-gradient"/></defs><path class="cls-5" d="M40.41,55.83l3.61,2.1.57-.21c1.36-1.83-.31-1.57-1.39-2.37-.57-.43-2.4-2.35-2.63-2.92-.42-1.03-.3-10.14-.18-11.88.15-2.31,1.14-7.86,3.08-9.26,2.56-1.86,5.95.52,5.57,3.56,4.75-.2,8.11,2.93,8.02,7.71,3.94-.13,7.83,2.29,8.94,6.17h-4.47c-.73,0-1.75-1.82-1.91-1.86-1.39-.34-1.98.38-1.28,1.66,1.43,2.66,5.72,2.56,8.28,2.05.21,1.76-.37,3.41-.89,5.06,3.03,1.78,5.66,4.11,5.82,7.9-3.02.3-6.47-5.49-8.25-5.81-1.09-.2-3.17.6-2.21,1.92.72,1,1.27-.03,2.12.33.48.21,1.31,1.5,1.86,1.87,0,.3-2.19,1.8-2.65,1.98-1.42.55-3.21,0-2.87,2.16,2.25,1.71,5.84-2.27,6.96-2.37.86-.08,3.59,2.24,5.03,1.8.26.82-.35,1.85-.24,2.55s1.28,1.86,1.64,2.68c.57,1.3.85,2.91.77,4.32-1.25-.07-2.54.13-3.78-.07-1.08-.18-3.77-2.34-4.21-.97-.74,2.28,6.07,3.91,7.68,2.89-.45,2.21-1.8,4.25-3.72,5.45.62,1.66.46,6.81-1.21,7.68-.84.44-3.13-1.87-3.46-2.73-.98-2.58,2.01-4.16.37-5.02-1.43-.74-1.91,1.83-2.46,2.19-.71.45-3.2-.6-3.72-1.24-.58-.71-.5-4.01-2.16-2.81-.87.62.18,3.29,0,3.54-1.44.22-6.29,3.29-5.09,4.98.89,1.25,2.45-1.27,3.16-1.81,2.99-2.27,4.2-1.34,7.51-.53l1.54,3.09c.94,1.49,4.08,1.63,1.25,3.11-1.85.97-3.84.72-5.85.78.1,1.86-2.72,5.55-4.52,5.52-2-.03.1-5.7-2.41-4.9-1.8.58,0,5.01-.2,5.2-5.7-.32-12.14-4.93-12.03-11.1.81,1.41,6.22,2.6,6.35,3.53.12.82-.96,1.86.85,1.96,3.73-4.33-1.95-4.5-4.23-5.85-.35-.21-2.98-2.68-2.98-2.89v-29.15ZM53.6,48.35c.26-.25.34-.73.16-1.06l-3.77-5.45c.77-1.7,4.77-1.55,4.26-3.36-.68-2.41-5.02,1.72-5.72,1.89-.85.2-4.51-1.5-5.51.36-1.07,2,2.11,1.19,2.78,1.22,1.44.07,2.39.98,3.24,2.03.83,1.01,3.01,5.89,4.56,4.39ZM47.77,48.16c-.49-.3-1.66.18-1.77.77s1.63,3.66,1.78,4.6c.24,1.5-.85,5.47-.46,6.01,1.28,1.82,2.53-2.12,2.34-3.1,1.15,1.37,3.14.46,3.81.65,1.27.35,1.59,4.36,2.56,4.54l.99-.3c.45-1.82-.71-3.26-1.19-4.89,1.24-.4,2.82,1.41,3.56,0,.74-1.42-2.15-2.15-3.11-2.17-1.72-.04-3.29,1.43-4.88.59-1.75-.92-3.22-6.45-3.63-6.7ZM59.57,78.93c1.27.82,1.87-.47,1.74-1.57-.59-5.04-6.66-2.83-9.04-5.78-1.66-2.06-.64-4.39-1.36-6.66l-1.43.16-.18,2.59c-.23.72-2.78.65-3.45.45-.58-.18-1.57-2.57-2.54-1.19-1.7,2.42,4.37,4.29,6.02,3.1.32,1.42.7,2.62,1.84,3.59-.7,1.99-4.09,3.35-4.49,5.35-.26,1.3,1.36,4.15,2.76,3.68,1.75-.59-.31-2.08-.57-2.76-.63-1.63,3.78-3.31,3.9-5.2,1.59.58,5.39.63,6.2,2.21.23.44.4,1.92.58,2.04Z"/><path class="cls-1" d="M12.95,48.74c1.11-3.88,5-6.22,8.94-6.17-.08-4.79,3.27-7.91,8.02-7.71-.31-2.94,2.68-5.3,5.36-3.65,2.18,1.34,3.13,6.92,3.3,9.35.12,1.73.24,10.84-.18,11.88-.28.7-2.13,2.53-2.81,3.05-.92.7-2.1.29-1.66,2,.13.5,1.1.42,1.48.32,1.3-.34,1.94-1.64,3.16-1.96v29.15c0,.21-2.62,2.68-2.98,2.89-2.28,1.35-7.96,1.52-4.23,5.85l.85-.23c.54-.41-.07-1.28,0-1.74.13-.93,5.55-2.12,6.35-3.53.11,6.17-6.33,10.79-12.03,11.1.28-1.15,1.31-4.72-.2-5.2-2.46-.79-.52,4.87-2.41,4.9-1.8.03-4.62-3.67-4.52-5.53-2.06-.03-4.17.13-6.05-.89-2.53-1.38.67-1.62,1.44-3l1.54-3.09c3.3-.85,4.53-1.67,7.52.53.72.53,2.25,3.09,3.15,1.82,1.2-1.69-3.65-4.76-5.09-4.98-.28-.38,1.62-4.89-1.51-3.31.11,2.66-1.92,3.97-4.37,3.82-.16-1.52-3.11-3.53-3.09-1.25,0,.87,2.01,1.42,1,4.08-.31.82-2.59,3.17-3.46,2.73-1.56-.8-1.88-6.08-1.21-7.68-1.84-1.24-3.28-3.24-3.72-5.45,1.6.96,8.46-.51,7.69-2.89-.44-1.37-3.13.79-4.21.97-.71.12-3.3.28-3.65-.21-.38-1.39.27-3.14.88-4.4.33-.69,1.29-1.62,1.4-2.01.27-.93-.71-2.17.05-2.71l4.74-1.94c1.05.91,5.92,3.9,6.96,2.38,1.11-1.63-2.14-1.88-2.87-2.16-.45-.17-2.65-1.67-2.65-1.98.55-.37,1.37-1.66,1.86-1.87.84-.36,1.39.67,2.12-.33.96-1.32-1.12-2.12-2.21-1.92-1.77.32-5.23,6.11-8.25,5.81.17-3.79,2.8-6.11,5.82-7.9-.25-1.05-2-5.18.1-4.99,2.91.26,7.46.49,7.52-3.48-1.69-1.46-2.31,1.56-3.42,1.56h-4.47ZM25.37,48.35c.18.19.49.26.74.33,1.98-.06,3.38-6.58,7.06-6.74.67-.03,3.85.77,2.78-1.22-.99-1.85-4.66-.15-5.51-.36-.71-.17-5.04-4.3-5.72-1.89-.51,1.81,3.48,1.67,4.26,3.36-.96,1.32-1.74,2.75-2.63,4.11-.48.73-2,1.38-.98,2.41ZM29.3,56.45c-.46,1.24,1.69,5.19,2.44,2.88.29-.89-.86-4-.56-5.79.15-.94,1.89-4.01,1.78-4.6-.11-.64-1.39-1.28-1.9-.43-1.03,1.74-2.1,6.81-4.66,6.7-1.18-.05-2.39-1-3.99-.89-1.15.08-4.17,1.17-2.53,2.47,1.01.71,2.01-.72,3.26-.33-.48,1.62-1.64,3.07-1.19,4.89,2.36,1.27,1.76-3.14,3.35-4.13.39-.24,3.08.53,4-.76ZM29.94,68.15l-.46-3.08-1.42-.16c-.97.68,1.15,5.98-2.94,7.85-3.16,1.45-8.13.4-7.39,5.92,2.4,1.21,1.61-.82,2.37-1.99.87-1.34,4.61-1.46,6.1-2.01.65,2.14,2.81,2.82,4.02,4.51.27,1.04-2.07,1.81-1.18,2.98,1.17,1.56,2.86-.89,3.18-2.03.79-2.86-3.59-4.16-4.36-6.57,1.11-.96,1.47-2.15,1.79-3.54,1.8.81,6.58.03,6.18-2.61-.36-2.38-2.36.6-2.7.7-.86.26-2.22-.04-3.17.04Z"/><polygon class="cls-3" points="46.27 0 42.26 8.02 50.28 8.02 33.47 28.07 38.25 14.19 32.08 14.19 38.87 0 46.27 0"/><path class="cls-2" d="M78.97,12.96l-.19.64-7.21,4.3c-.29.38,5.87,3.58,6.38,3.94.27.19.57-.05.4.68l-24.68,8.64,11.41-9.26-.19-.63c-1.37-.73-3.59-1.67-4.74-2.61-.36-.29-.4-.32,0-.6l12.25-8.13c1.5-.37,4.83,2.82,6.55,3.04Z"/><path class="cls-4" d="M13.88,21.29l11.41,9.86L.62,22.51c-.15-.72.09-.49.4-.69.54-.35,6.66-3.53,6.39-3.93L0,13.42c1.38-.87,5.29-3.92,6.77-3.39l12.35,8.33-5.24,2.94Z"/></svg>