<?xml version="1.0" encoding="UTF-8"?><svg id="Layer_1" xmlns="http://www.w3.org/2000/svg" xmlns:xlink="http://www.w3.org/1999/xlink" viewBox="0 0 96.25 99.57"><defs><style>.cls-1{fill:url(#linear-gradient-13);}.cls-2{fill:url(#linear-gradient-2);}.cls-3{fill:url(#linear-gradient-10);}.cls-4{fill:url(#linear-gradient-12);}.cls-5{fill:url(#linear-gradient-4);}.cls-6{fill:url(#linear-gradient-3);}.cls-7{fill:url(#linear-gradient-5);}.cls-8{fill:url(#linear-gradient-8);}.cls-9{fill:url(#linear-gradient-7);}.cls-10{fill:url(#linear-gradient-9);}.cls-11{fill:url(#linear-gradient-11);}.cls-12{fill:url(#linear-gradient-6);}.cls-13{fill:url(#linear-gradient);}</style><linearGradient id="linear-gradient" x1="-471.12" y1="623.17" x2="687.78" y2="-695.52" gradientUnits="userSpaceOnUse"><stop offset="0" stop-color="#0f95e8"/><stop offset="1" stop-color="#0375c6"/></linearGradient><linearGradient id="linear-gradient-2" x1="-462.69" y1="630.58" x2="696.21" y2="-688.12" xlink:href="#linear-gradient"/><linearGradient id="linear-gradient-3" x1="-443.88" y1="647.1" x2="715.02" y2="-671.59" xlink:href="#linear-gradient"/><linearGradient id="linear-gradient-4" x1="-447.37" y1="644.04" x2="711.53" y2="-674.65" xlink:href="#linear-gradient"/><linearGradient id="linear-gradient-5" x1="-441.16" y1="649.5" x2="717.74" y2="-669.19" xlink:href="#linear-gradient"/><linearGradient id="linear-gradient-6" x1="-458.94" y1="633.87" x2="699.96" y2="-684.82" xlink:href="#linear-gradient"/><linearGradient id="linear-gradient-7" x1="-436.39" y1="653.69" x2="722.51" y2="-665" xlink:href="#linear-gradient"/><linearGradient id="linear-gradient-8" x1="-443.01" y1="647.87" x2="715.89" y2="-670.82" xlink:href="#linear-gradient"/><linearGradient id="linear-gradient-9" x1="-483.29" y1="612.47" x2="675.61" y2="-706.22" xlink:href="#linear-gradient"/><linearGradient id="linear-gradient-10" x1="-472.36" y1="622.08" x2="686.54" y2="-696.61" xlink:href="#linear-gradient"/><linearGradient id="linear-gradient-11" x1="-486.43" y1="609.72" x2="672.48" y2="-708.98" xlink:href="#linear-gradient"/><linearGradient id="linear-gradient-12" x1="-491.55" y1="605.21" x2="667.35" y2="-713.48" xlink:href="#linear-gradient"/><linearGradient id="linear-gradient-13" x1="-481.01" y1="614.48" x2="677.9" y2="-704.21" xlink:href="#linear-gradient"/></defs><path class="cls-13" d="M19.91,46.47h19.91v13.28h-19.91v-13.28Z"/><path class="cls-2" d="M43.15,46.47h3.32v13.28h-3.32v-13.28Z"/><path class="cls-6" d="M50.38,65.08l-.34-2.02h-23.49v23.23c0,3.66,2.98,6.64,6.64,6.64h49.79c3.66,0,6.64-2.98,6.64-6.64v-23.23h-.98l-2.34,10.15v2.86c0,3.56-2.1,6.75-5.31,8.17l-.28.85c-.9,2.7-3.42,4.52-6.28,4.52-2.52,0-4.79-1.4-5.92-3.66l-.29-.58,2.97-1.48.29.58c.56,1.12,1.69,1.82,2.95,1.82,1.42,0,2.68-.91,3.13-2.26l.79-2.38.79-.26c2.3-.77,3.84-2.91,3.84-5.33v-1.58l-11.32-1.42-1.09.55c-.53.27-.86.8-.86,1.39,0,.41.17.81.45,1.1l.72.72-2.35,2.35-.72-.72c-.91-.91-1.43-2.16-1.43-3.45,0-1.86,1.03-3.53,2.7-4.36l.83-.41,1.54-7.17h-1.99l-.34,2.02c-.77,4.6-4.7,7.93-9.37,7.93s-8.6-3.34-9.37-7.93h0ZM72.63,79.66c1.26-.63,2.05-1.9,2.05-3.32h3.32c0,2.68-1.49,5.09-3.89,6.29l-.35.17-1.49-2.97.35-.17ZM39.83,89.61h-3.32v-3.32h3.32v3.32ZM49.79,86.29h-3.32v-3.32h3.32v3.32ZM59.74,89.61h-3.32v-3.32h3.32v3.32ZM66.38,86.29h-3.32v-3.32h3.32v3.32ZM60.71,76.34c1.96,0,3.8.76,5.18,2.15l-2.35,2.35c-.76-.76-1.76-1.17-2.83-1.17h-.29c-1.07,0-2.08.42-2.83,1.17l-2.83,2.83-2.44-2.44c-.99-.99-2.37-1.56-3.77-1.56-1.79,0-3.45.89-4.44,2.37l-2.05,3.08-3.01-1.51c-2.26-1.13-5.13-.67-6.92,1.12l-1.08,1.08-2.35-2.35,1.08-1.08c1.76-1.76,4.1-2.73,6.59-2.73,1.44,0,2.88.34,4.17.98l.39.2.43-.65c1.61-2.41,4.3-3.85,7.2-3.85,2.28,0,4.51.92,6.12,2.53l.1.1.49-.49c1.38-1.38,3.22-2.15,5.18-2.15h.29Z"/><path class="cls-5" d="M92.89,29.88c.03-.13.05-.27.05-.4,0-.88-.63-1.62-1.5-1.77l-6.79-1.13c-.1-.01-.19-.02-.3-.02h-.24c-.84,0-1.58.6-1.76,1.42l-3.77,17.58,10.21,2.04,4.09-17.72Z"/><path class="cls-7" d="M88.05,50.83l-10.16-2.03-2.34,10.94h10.45l2.05-8.91Z"/><path class="cls-12" d="M53.11,59.74v-13.28h-3.32v13.28h3.32Z"/><path class="cls-9" d="M85.23,63.06h-10.39l-1.47,6.88,10,1.25,1.87-8.12Z"/><path class="cls-8" d="M92.93,63.06v23.23c0,5.49-4.47,9.96-9.96,9.96h-49.79c-5.49,0-9.96-4.47-9.96-9.96v-23.23h-3.32v24.89c0,6.4,5.21,11.62,11.62,11.62h53.1c6.4,0,11.62-5.21,11.62-11.62v-24.89h-3.32Z"/><path class="cls-10" d="M0,46.47h16.59v13.28H0v-13.28Z"/><path class="cls-3" d="M56.42,13.91c0,.89-.57,1.67-1.41,1.95l-4.87,1.62c-2.2.73-3.68,2.78-3.68,5.1,0,2.05,1.14,3.89,2.97,4.81l2.08,1.04c.98.49,1.59,1.48,1.59,2.57,0,1.41-1.01,2.6-2.4,2.83l-2.51.42c-2.81.47-5.26,2.27-6.53,4.82l2.97,1.49c.8-1.61,2.34-2.74,4.11-3.03l2.51-.42c3-.5,5.17-3.07,5.17-6.11,0-2.36-1.31-4.48-3.42-5.54l-2.08-1.04c-.7-.35-1.14-1.06-1.14-1.84,0-.89.57-1.67,1.41-1.95l4.87-1.62c2.2-.73,3.68-2.78,3.68-5.1,0-2.05-1.14-3.89-2.97-4.81l-1.26-.63-1.49,2.97,1.27.63c.7.35,1.14,1.05,1.14,1.84h0Z"/><path class="cls-11" d="M42.32,11.62h.44c2.68,0,5.37-.63,7.77-1.83l-1.49-2.97c-1.94.97-4.12,1.48-6.29,1.48h-.44c-1.37,0-2.49-1.12-2.49-2.49s1.12-2.49,2.49-2.49h7.47V0h-7.47c-3.2,0-5.81,2.61-5.81,5.81s2.61,5.81,5.81,5.81h0Z"/><path class="cls-4" d="M27.94,24.87l.54-3.27-6.72-1.12c-1.07-.18-1.85-1.1-1.85-2.18s.82-2.04,1.9-2.19l3.1-.44c3.83-.55,6.97-3.17,8.19-6.84l-3.15-1.05c-.82,2.47-2.94,4.24-5.52,4.6l-3.1.44c-2.71.39-4.75,2.74-4.75,5.48s1.94,5.01,4.62,5.46l6.72,1.12Z"/><path class="cls-1" d="M31.13,24.84l4.32,1.08c.62.16,1.06.72,1.06,1.36,0,.69-.49,1.27-1.17,1.38l-3.62.6c-3,.5-5.17,3.07-5.17,6.11,0,2.36,1.31,4.48,3.42,5.54l.81.41,1.48-2.97-.81-.41c-.98-.49-1.59-1.48-1.59-2.57,0-1.41,1.01-2.6,2.4-2.83l3.62-.6c2.28-.38,3.94-2.34,3.94-4.66,0-2.17-1.47-4.05-3.57-4.58l-4.32-1.08-.81,3.22Z"/></svg>