<?xml version="1.0" encoding="UTF-8"?><svg id="Layer_1" xmlns="http://www.w3.org/2000/svg" viewBox="0 0 63.37 64.11"><defs><style>.cls-1{fill:#10416a;}</style></defs><path class="cls-1" d="M63.36,13.82c0-.09-.02-.19-.05-.27-.01-.03-.02-.07-.03-.1-.05-.12-.12-.22-.21-.31L50.23.31c-.09-.09-.2-.16-.31-.21-.03-.01-.06-.02-.1-.03-.09-.03-.18-.05-.28-.06-.02,0-.04,0-.06,0H17.43c-2.95,0-5.34,2.39-5.34,5.34v7.86C4.74,16.45,0,23.72,0,31.74s4.74,15.3,12.09,18.54v8.48c0,2.95,2.39,5.34,5.34,5.34h40.6c2.95,0,5.34-2.39,5.34-5.34V13.89s-.01-.04-.01-.07ZM59.72,12.82h-8.11c-.59,0-1.07-.48-1.07-1.07V3.65l9.17,9.17ZM2.16,31.74c0-4.82,1.91-9.44,5.31-12.85s8.03-5.32,12.85-5.31c.61,0,1.21.03,1.8.09,8.26.82,14.91,7.14,16.13,15.36.14.9.22,1.81.22,2.72,0,3.42-.96,6.77-2.79,9.67-1.45,2.31-3.4,4.26-5.72,5.71-5.6,3.52-12.66,3.71-18.45.51-5.78-3.2-9.38-9.29-9.38-15.89ZM32.73,47.79c.15-.11.29-.23.43-.34.53-.42,1.03-.88,1.51-1.35.48-.48.93-.99,1.35-1.51.12-.14.23-.29.34-.43.13-.17.27-.33.39-.5l9.11,9.12c.6.6.94,1.41.94,2.26s-.34,1.66-.94,2.26c-1.26,1.22-3.26,1.22-4.52,0l-9.12-9.1c.17-.13.33-.26.5-.39ZM58.03,61.97H17.43c-1.77,0-3.21-1.44-3.21-3.21v-7.65c.07.02.14.04.2.06.17.05.34.09.52.14.4.11.8.21,1.21.29.2.04.4.08.6.12.41.07.82.13,1.23.18.18.02.37.05.55.06.59.05,1.19.08,1.79.08,3.53,0,7-.92,10.06-2.68l9.45,9.44c1.33,1.45,3.34,2.06,5.25,1.58,1.91-.48,3.4-1.97,3.88-3.87.48-1.91-.12-3.92-1.57-5.25l-9.44-9.45c1.76-3.06,2.68-6.53,2.68-10.06,0-.68-.03-1.35-.1-2.01-.46-4.67-2.52-9.03-5.84-12.34-3.8-3.82-8.97-5.96-14.36-5.94-.6,0-1.2.03-1.79.08-.18.02-.37.04-.55.06-.41.05-.82.1-1.23.18-.2.04-.41.07-.61.12-.4.08-.8.18-1.2.29-.18.05-.35.09-.53.14-.07.02-.13.03-.2.06v-7.03c0-1.77,1.44-3.21,3.21-3.21h30.99v9.62c0,1.77,1.44,3.21,3.21,3.21h9.62v43.81c0,1.77-1.43,3.21-3.21,3.21Z"/><path class="cls-1" d="M44.14,7.48c0-.59-.48-1.07-1.07-1.07h-23.51c-.59,0-1.07.48-1.07,1.07s.48,1.07,1.07,1.07h23.51c.59,0,1.07-.48,1.07-1.07Z"/><path class="cls-1" d="M55.89,25.64h-12.82c-.59,0-1.07.48-1.07,1.07s.48,1.07,1.07,1.07h12.82c.59,0,1.07-.48,1.07-1.07s-.48-1.07-1.07-1.07Z"/><path class="cls-1" d="M55.89,32.05h-12.82c-.59,0-1.07.48-1.07,1.07s.48,1.07,1.07,1.07h12.82c.59,0,1.07-.48,1.07-1.07s-.48-1.07-1.07-1.07Z"/><path class="cls-1" d="M56.96,39.53c0-.59-.48-1.07-1.07-1.07h-13.89c-.59,0-1.07.48-1.07,1.07s.48,1.07,1.07,1.07h13.89c.59,0,1.07-.48,1.07-1.07Z"/><path class="cls-1" d="M56.96,45.94c0-.59-.48-1.07-1.07-1.07h-9.62c-.59,0-1.07.48-1.07,1.07s.48,1.07,1.07,1.07h9.62c.59,0,1.07-.48,1.07-1.07Z"/><path class="cls-1" d="M44.14,13.89c0-.59-.48-1.07-1.07-1.07h-8.55c-.59,0-1.07.48-1.07,1.07s.48,1.07,1.07,1.07h8.55c.59,0,1.07-.48,1.07-1.07Z"/><path class="cls-1" d="M56.96,20.3c0-.59-.48-1.07-1.07-1.07h-16.03c-.59,0-1.07.48-1.07,1.07s.48,1.07,1.07,1.07h16.03c.59,0,1.07-.48,1.07-1.07Z"/><path class="cls-1" d="M16.36,26.71h7.48c.59,0,1.07-.48,1.07-1.07s-.48-1.07-1.07-1.07h-7.48c-.59,0-1.07.48-1.07,1.07s.48,1.07,1.07,1.07Z"/><path class="cls-1" d="M29.18,32.05c0-.59-.48-1.07-1.07-1.07H12.09c-.59,0-1.07.48-1.07,1.07s.48,1.07,1.07,1.07h16.03c.59,0,1.07-.48,1.07-1.07Z"/><path class="cls-1" d="M23.84,37.4h-7.48c-.59,0-1.07.48-1.07,1.07s.48,1.07,1.07,1.07h7.48c.59,0,1.07-.48,1.07-1.07s-.48-1.07-1.07-1.07Z"/><path class="cls-1" d="M27.93,45.84c2.61-1.39,4.77-3.48,6.23-6.05.08-.15.18-.29.26-.44.04-.08.07-.16.11-.23.16-.31.32-.62.46-.94.14-.32.25-.62.36-.94.03-.09.07-.18.11-.27,2.72-7.9-1.09-16.56-8.75-19.9-7.66-3.34-16.6-.23-20.54,7.13-1.24,2.32-1.89,4.91-1.88,7.55,0,5.65,2.96,10.88,7.81,13.77,4.85,2.89,10.86,3.02,15.83.33h0ZM13.66,43.93c-1.16-.63-2.23-1.43-3.16-2.37-.65-.65-1.23-1.36-1.74-2.12-.25-.38-.48-.77-.7-1.16-3.22-6.07-1.51-13.58,4.01-17.67,5.52-4.09,13.2-3.53,18.07,1.32,4.31,4.35,5.28,11.01,2.39,16.42h0c-1.27,2.39-3.23,4.34-5.61,5.62-4.14,2.25-9.13,2.24-13.26-.02h0Z"/><path class="cls-1" d="M58.03,51.29c-.59,0-1.07.48-1.07,1.07v4.27c0,.59-.48,1.07-1.07,1.07h-4.27c-.59,0-1.07.48-1.07,1.07s.48,1.07,1.07,1.07h4.27c1.77,0,3.21-1.44,3.21-3.21v-4.27c0-.59-.48-1.07-1.07-1.07Z"/></svg>