<?xml version="1.0" encoding="UTF-8"?><svg id="Layer_1" xmlns="http://www.w3.org/2000/svg" viewBox="0 0 72.49 66.76"><defs><style>.cls-1{fill:#10416a;}</style></defs><path class="cls-1" d="M36.09,66.75c-.65,0-1.2-.46-1.3-1.1l-4.82-29.82h-5.74c-.62,0-1.17-.43-1.3-1.03l-6.14-27.62-6.54,27.71c-.14.6-.67,1.02-1.28,1.02H1.01c-.71-.17-1.15-.88-.98-1.58.11-.49.49-.86.98-.98h7.02L15.66,1C15.8.41,16.33,0,16.94,0c.62,0,1.15.43,1.28,1.03l7.02,32.31h5.79c.65,0,1.2.46,1.3,1.1l3.72,22.8,3.72-22.8c.1-.64.65-1.11,1.3-1.1h5.93l7.02-19.17c.18-.51.67-.85,1.21-.86.54,0,1.03.33,1.25.82l7.54,19.29h7.17c.73,0,1.32.59,1.32,1.32s-.59,1.32-1.32,1.32h-8.03c-.54,0-1.03-.32-1.23-.82l-6.52-16.96-6.19,16.82c-.2.52-.69.86-1.25.86h-5.74l-4.82,29.82c-.15.59-.69,1-1.3.98h0Z"/></svg>