<?xml version="1.0" encoding="UTF-8"?>
<svg id="Layer_1" data-name="Layer 1" xmlns="http://www.w3.org/2000/svg" xmlns:xlink="http://www.w3.org/1999/xlink" viewBox="0 0 114.13 114.13">
  <defs>
    <style>
      .cls-1 {
        fill: url(#linear-gradient-2);
      }

      .cls-2 {
        fill: url(#linear-gradient-4);
      }

      .cls-3 {
        fill: url(#linear-gradient-3);
      }

      .cls-4 {
        fill: #eefaff;
      }

      .cls-5 {
        fill: url(#linear-gradient);
      }
    </style>
    <linearGradient id="linear-gradient" x1="20.84" y1="62.34" x2="93.01" y2="62.34" gradientUnits="userSpaceOnUse">
      <stop offset="0" stop-color="#0f95e8"/>
      <stop offset="1" stop-color="#0375c6"/>
    </linearGradient>
    <linearGradient id="linear-gradient-2" x1="40.02" y1="83.08" x2="54.81" y2="83.08" xlink:href="#linear-gradient"/>
    <linearGradient id="linear-gradient-3" x1="59.04" y1="83.08" x2="73.83" y2="83.08" xlink:href="#linear-gradient"/>
    <linearGradient id="linear-gradient-4" x1="44.68" y1="31.05" x2="69.17" y2="31.05" xlink:href="#linear-gradient"/>
  </defs>
  <circle class="cls-4" cx="57.06" cy="57.06" r="57.06"/>
  <g>
    <path class="cls-5" d="M90.9,87.67h-2.86v-52.76c0-1.17-.95-2.11-2.11-2.11h-12.53v7.46c0,3.5-2.85,6.34-6.34,6.34h-20.26c-3.5,0-6.34-2.85-6.34-6.34v-7.46h-12.53c-1.17,0-2.11.95-2.11,2.11v52.76h-2.86c-1.17,0-2.11.95-2.11,2.11s.95,2.11,2.11,2.11h12.84v-19.74c0-1.17.95-2.11,2.11-2.11h38.03c1.17,0,2.11.95,2.11,2.11v19.74h12.84c1.17,0,2.11-.95,2.11-2.11s-.95-2.11-2.11-2.11h0ZM42.8,65.8h-6.26c-1.17,0-2.11-.95-2.11-2.11s.95-2.11,2.11-2.11h6.26c1.17,0,2.11.95,2.11,2.11s-.95,2.11-2.11,2.11ZM42.8,57.33h-6.26c-1.17,0-2.11-.95-2.11-2.11s.95-2.11,2.11-2.11h6.26c1.17,0,2.11.95,2.11,2.11s-.95,2.11-2.11,2.11ZM60.05,65.8h-6.26c-1.17,0-2.11-.95-2.11-2.11s.95-2.11,2.11-2.11h6.26c1.17,0,2.11.95,2.11,2.11s-.95,2.11-2.11,2.11ZM60.05,57.33h-6.26c-1.17,0-2.11-.95-2.11-2.11s.95-2.11,2.11-2.11h6.26c1.17,0,2.11.95,2.11,2.11s-.95,2.11-2.11,2.11ZM77.31,65.8h-6.26c-1.17,0-2.11-.95-2.11-2.11s.95-2.11,2.11-2.11h6.26c1.17,0,2.11.95,2.11,2.11s-.95,2.11-2.11,2.11ZM77.31,57.33h-6.26c-1.17,0-2.11-.95-2.11-2.11s.95-2.11,2.11-2.11h6.26c1.17,0,2.11.95,2.11,2.11s-.95,2.11-2.11,2.11Z"/>
    <path class="cls-1" d="M54.81,74.27h-14.79v17.63h14.79v-17.63Z"/>
    <path class="cls-3" d="M59.04,74.27v17.63h14.79v-17.63h-14.79Z"/>
    <path class="cls-2" d="M46.8,42.37h20.26c1.17,0,2.11-.95,2.11-2.11v-18.41c0-1.17-.95-2.11-2.11-2.11h-20.26c-1.17,0-2.11.95-2.11,2.11v18.41c0,1.17.95,2.11,2.11,2.11h0ZM52.44,29.68h2.37v-2.3c0-1.17.95-2.11,2.11-2.11s2.11.95,2.11,2.11v2.3h2.37c1.17,0,2.11.95,2.11,2.11s-.95,2.11-2.11,2.11h-2.37v2.3c0,1.17-.95,2.11-2.11,2.11s-2.11-.95-2.11-2.11v-2.3h-2.37c-1.17,0-2.11-.95-2.11-2.11s.95-2.11,2.11-2.11h0Z"/>
  </g>
</svg>