<?xml version="1.0" encoding="UTF-8"?><svg id="Layer_1" xmlns="http://www.w3.org/2000/svg" xmlns:xlink="http://www.w3.org/1999/xlink" viewBox="0 0 581.62 581.75"><defs><style>.cls-1,.cls-2,.cls-3,.cls-4,.cls-5,.cls-6,.cls-7,.cls-8,.cls-9,.cls-10,.cls-11{fill-rule:evenodd;}.cls-1,.cls-12{fill:#0a95ed;}.cls-2{fill:#00549b;}.cls-3{fill:#1865b5;}.cls-4{fill:#fff;}.cls-5{fill:#f5916f;}.cls-6{fill:#34aefc;}.cls-13{fill:#dfefff;}.cls-7{fill:url(#linear-gradient-2);}.cls-14{fill:url(#linear-gradient);opacity:.2;}.cls-8{fill:#ed7d57;}.cls-15{fill:#f0f8ff;}.cls-16{clip-path:url(#clippath);}.cls-9{fill:#f9af79;}.cls-10{fill:#a4ccec;}.cls-11{fill:#263c84;}</style><linearGradient id="linear-gradient" x1="0" y1="290.88" x2="581.62" y2="290.88" gradientUnits="userSpaceOnUse"><stop offset="0" stop-color="#0f95e8"/><stop offset="1" stop-color="#0375c6"/></linearGradient><clipPath id="clippath"><circle class="cls-14" cx="290.81" cy="290.88" r="290.81"/></clipPath><linearGradient id="linear-gradient-2" x1="76.58" y1="451.15" x2="517.89" y2="451.15" xlink:href="#linear-gradient"/></defs><circle class="cls-14" cx="290.81" cy="290.88" r="290.81"/><g class="cls-16"><path class="cls-7" d="M125.37,166.12h343.73c26.83,0,48.79,21.95,48.79,48.79v472.49c0,26.84-21.95,48.79-48.79,48.79H125.37c-26.83,0-48.79-21.95-48.79-48.79V214.91c0-26.83,21.96-48.79,48.79-48.79Z"/><path class="cls-3" d="M125.37,179.91h343.73c19.25,0,35,15.75,35,35v472.49c0,19.25-15.75,35-35,35H125.37c-19.25,0-35-15.75-35-35V214.91c0-19.25,15.75-35,35-35Z"/><rect class="cls-15" x="51.67" y="255.29" width="487.43" height="356.6" transform="translate(-140.53 725.52) rotate(-89.55)"/><path class="cls-6" d="M211.85,144.59h60.45v-12.74c0-13.72,11.22-24.94,24.94-24.94h0c13.71,0,24.93,11.22,24.93,24.94v12.74h60.45c8.29,0,15.07,6.78,15.07,15.07v28.7c0,8.29-6.78,15.07-15.07,15.07h-170.77c-8.29,0-15.07-6.78-15.07-15.07v-28.7c0-8.29,6.78-15.07,15.07-15.07h0ZM297.24,121.81c-6.09,0-11.03,4.94-11.03,11.03s4.94,11.03,11.03,11.03,11.03-4.94,11.03-11.03-4.94-11.03-11.03-11.03Z"/><rect class="cls-12" x="147.74" y="229.43" width="298.99" height="37.15" rx="7" ry="7"/><path class="cls-1" d="M281.02,294.9h157.45c4.38,0,7.96,3.58,7.96,7.96h0c0,4.38-3.58,7.96-7.96,7.96h-157.45c-4.38,0-7.96-3.58-7.96-7.96h0c0-4.38,3.58-7.96,7.96-7.96Z"/><path class="cls-1" d="M281.02,321.87h157.45c4.38,0,7.96,3.58,7.96,7.96h0c0,4.38-3.58,7.96-7.96,7.96h-157.45c-4.38,0-7.96-3.58-7.96-7.96h0c0-4.38,3.58-7.96,7.96-7.96Z"/><path class="cls-1" d="M281.02,348.86h157.45c4.38,0,7.96,3.58,7.96,7.96h0c0,4.38-3.58,7.96-7.96,7.96h-157.45c-4.38,0-7.96-3.58-7.96-7.96h0c0-4.38,3.58-7.96,7.96-7.96Z"/><path class="cls-1" d="M281.02,375.83h157.45c4.38,0,7.96,3.58,7.96,7.96h0c0,4.38-3.58,7.96-7.96,7.96h-157.45c-4.38,0-7.96-3.58-7.96-7.96h0c0-4.38,3.58-7.96,7.96-7.96Z"/><path class="cls-1" d="M167.05,432.89h260.37c4.38,0,7.96,3.58,7.96,7.96h0c0,4.38-3.58,7.96-7.96,7.96H167.05c-4.38,0-7.96-3.58-7.96-7.96h0c0-4.38,3.58-7.96,7.96-7.96Z"/><path class="cls-1" d="M167.05,459.87h260.37c4.38,0,7.96,3.58,7.96,7.96h0c0,4.38-3.58,7.96-7.96,7.96H167.05c-4.38,0-7.96-3.58-7.96-7.96h0c0-4.38,3.58-7.96,7.96-7.96Z"/><path class="cls-1" d="M167.05,486.84h260.37c4.38,0,7.96,3.58,7.96,7.96h0c0,4.38-3.58,7.96-7.96,7.96H167.05c-4.38,0-7.96-3.58-7.96-7.96h0c0-4.38,3.58-7.96,7.96-7.96Z"/><path class="cls-1" d="M167.05,513.83h260.37c4.38,0,7.96,3.58,7.96,7.96h0c0,4.38-3.58,7.96-7.96,7.96H167.05c-4.38,0-7.96-3.58-7.96-7.96h0c0-4.38,3.58-7.96,7.96-7.96Z"/><rect class="cls-13" x="147.89" y="292.68" width="101.73" height="101.72"/><path class="cls-6" d="M219.94,348.82c5.73,1.28,12.97,17.22,16.52,27.43,1.78,4.24,3.03,11.22,3.72,18.16h-21.64c.79-19.74,1.41-45.59,1.41-45.59Z"/><path class="cls-3" d="M232.71,366.75c-3.75-8.5-8.65-17-12.77-17.93,0,0-.15,6.04-.39,14.5.79,9.39,1.87,20.98,2.82,31.08h11.67c-1.34-6.88-2.14-15.88-1.33-27.66Z"/><path class="cls-6" d="M198.86,345.29s-6.94,3.49-13.02,7.23c-3.39,2.09-6.89,8.43-5.92,9.55.67.76,2.56-.55,2.04-.29-2.16,1.1-.5,16.93,2.12,32.62h46.3c.14-1.98.36-4.08.69-6.3,3.11-21.11-9.52-39.33-11.13-39.29-2.36-.64-12.3-3.62-12.21-3.53h-8.87Z"/><path class="cls-3" d="M199.23,394.41c.17-2.02.42-3.87.37-5.22-.19-4.54-5.13-15.88-19.68-27.13l-1.36,2.68c-.47,4.67,1.53,17.16,4.16,29.66h16.51Z"/><path class="cls-6" d="M180.2,359.69c-5.85,18.7-4.94,17-8.7,28.54-.61,1.89-1.31,4.01-1.95,6.18h17.36c1.12-3.6,2.41-8.99,3.13-16.15,1.42-14.24-8.43-20.4-9.83-18.57Z"/><path class="cls-8" d="M211.66,347.58c-.14-.57-.23-.99-.23-1.21,0-1.69,4.71-19.09,4.71-19.09l-10.52-4.67-2.15,7.86c1.88,8.12,5.27,13.53,8.19,17.11Z"/><path class="cls-11" d="M217.24,309.7s-14.81-16.83-22.09-5.59c0,0-5.6,2.51-7.38,12.2-1.81,9.89,5.54,19.95,8.87,18.01,2.13-1.25,3.88,2.5,3.88,2.5l16.72-27.12Z"/><path class="cls-11" d="M196.66,302.32s-2.14-7.66-13.4-4.93c0,0,5.4-.83,6.94,1.21,0,0-4.35-1.85-6.99-.13-2.65,1.72-2.93,7.28-2.49,8.95.45,1.68,3.56,6.61,5.53,6.55,1.97-.05,4.25-1.84,4.25-1.84l6.16-9.81Z"/><path class="cls-9" d="M198.83,345.75c-.3-1.67,1.37-4.61,1.07-13.93l.73.12,12.19,2.06s.28,9.91.38,13.51c.07,3-14.6.9-14.37-1.76Z"/><path class="cls-8" d="M212.82,334.01s.11,3.59.2,7.19c-6.79,0-10.83-5.86-12.39-9.25l12.19,2.06Z"/><path class="cls-11" d="M199.34,330.65s-3.71-5.51-4.7-10.3c-.7-3.41.69-16.17,13.51-14.7,0,0,3.72.26,7.28,2.52,2.83,1.8,6.94,5.73,2.78,16.95l-1.06,3.78-17.8,1.75Z"/><path class="cls-9" d="M198.85,328.06c-.29-10-2.56-16.64,7.68-17.52,10.24-.88,12.34,2.88,13.25,6.19,7.45,28.88-20.39,26.1-20.92,11.33Z"/><path class="cls-11" d="M213.83,310.09c-3.18,3.59-7.82,17.82-18.07,18-2.84.05-2.86-3.01-2.36-4.03,0,0,5.06-4.25,5.93-11.46,0,0,11.03-8.01,14.5-2.51Z"/><path class="cls-11" d="M212.76,311.07s3.36,2.53,4.23,5.05c.87,2.52,2.45,7.79,3.97,7.57,0,0,2.97-9.05-.88-13.46-6.05-9.75-8.61-2.49-7.32.83Z"/><path class="cls-11" d="M212.5,310.81s-2.79,12.37-11.19,16.54c0,0,8.3-7.79,8.8-15.92.5-8.13,2.39-.62,2.39-.62Z"/><path class="cls-3" d="M198.8,345.39c.03.4,1.59,1.49,3.53,2.04,1.47.41,3.18.73,4.83.85,1.62.13,3.16.08,4.32-.23.94-.25,1.58-.66,1.68-1.26l1.72.52c-.23,1.42-1.32,2.04-2.94,2.47-1.37.37-3.12.43-4.92.29-1.77-.14-3.61-.48-5.19-.92-2.63-.75-4.44-1.58-4.87-2.88l1.83-.89Z"/><path class="cls-11" d="M213.06,307.05c-1.49-.32-2.17-1.01-2.04-2.05,1.6-1.51,3.39-2.18,5.36-1.99-1.02.41-2.13,1.76-3.33,4.04Z"/><path class="cls-11" d="M210.25,307.63c1.35.71,2.31.62,2.88-.28-.26-2.19-1.21-3.84-2.85-4.96.52.97.51,2.72-.04,5.23Z"/><path class="cls-2" d="M216.15,323.01c.38.02.7-.43.73-1,.02-.57-.26-1.05-.63-1.07-.37-.02-.7.42-.72.99-.03.57.26,1.05.63,1.07Z"/><path class="cls-2" d="M210.61,321.36c-3.5-1-3.04-.86-5.75,1,.92-1.99,2.57-2.68,4.41-2.27.86.19,1.01.14,1.35,1.27Z"/><path class="cls-2" d="M208.6,323.39c-.37.04-.7-.4-.74-.97-.04-.57.22-1.06.59-1.09.37-.04.7.39.74.96.04.57-.22,1.06-.59,1.09Z"/><path class="cls-2" d="M213.94,321.21c3.14-1.65,2.73-1.43,5.56-.11-1.16-1.79-2.81-2.15-4.48-1.41-.78.35-.93.34-1.08,1.51Z"/><path class="cls-5" d="M213.34,323.89c-.01-.17-.15-.28-.3-.27-.14.02-.25.17-.23.34.14,1.38.41,2.36.61,3.12.12.45.22.82.25,1.13.05.43.04.66-.05.76-.1.11-.34.15-.73.19l-.8.08c-.14,0-.25.16-.24.32,0,.17.14.29.29.28l.8-.08c.52-.05.84-.13,1.06-.38.22-.25.26-.63.2-1.25-.04-.36-.15-.75-.27-1.23-.2-.73-.45-1.68-.59-3.01Z"/><path class="cls-4" d="M209.46,332.92c3.49.7,6.17.01,5.3.32-.92.98-3.32.91-5.3-.32Z"/><path class="cls-10" d="M216.12,320.95c-.07,0-.11.19-.1.4.02.22.09.38.15.38.07,0,.11-.19.1-.4-.02-.21-.09-.38-.15-.38Z"/><path class="cls-10" d="M208.69,321.45c-.07,0-.11.19-.09.4.01.22.08.38.15.38.07,0,.11-.19.09-.4-.01-.21-.08-.38-.15-.38Z"/></g></svg>