<?xml version="1.0" encoding="UTF-8"?>
<svg id="Layer_1" data-name="Layer 1" xmlns="http://www.w3.org/2000/svg" viewBox="0 0 855.1 237.5">
  <defs>
    <style>
      .cls-1 {
        fill: #33b725;
      }

      .cls-2 {
        fill: #1c70b0;
      }
    </style>
  </defs>
  <g>
    <path class="cls-2" d="M302.5,105.7h-38.7c-17.8,0-24.7,8.9-24.7,32.6v21.2c0,23.7,6.9,32.6,24.7,32.6h38.7c1.3,0,2-.9,2-2.7v-11.9c0-1.8-.7-2.7-2-2.7h-38.7c-9.2,0-11.8-3.7-11.8-16.5v-2.1h49.9c1.3,0,1.9-.9,1.9-2.8v-9.9c0-1.9-.6-2.8-1.9-2.8h-49.9v-1.2c0-12.9,2.6-16.7,11.8-16.7h38.7c1.3,0,2-.9,2-2.7v-11.9c0-1.9-.7-2.7-2-2.7h0v.2Z"/>
    <path class="cls-2" d="M362.7,105.7h-41.3c-1.8,0-2.6,1.2-2.6,3.7v79c0,2.5.9,3.7,2.6,3.7h41.3c19.2,0,27-10.7,27-34.8v-16.8c0-24.1-7.9-34.8-27-34.8h0ZM376.1,155.6c0,14.5-3.4,19.2-13.8,19.2h-28.9c-.8,0-1.1-.5-1.1-1.6v-48.5c0-1.2.4-1.7,1.1-1.7h28.9c10.4,0,13.8,4.7,13.8,19.2v13.5h0v-.1Z"/>
    <path class="cls-2" d="M454.8,105.7h-47c-1.7,0-2.6,1.2-2.6,3.7v80c0,1.9.7,2.7,2,2.7h9c1.3,0,1.9-.9,1.9-2.7v-23.8h36.6c13.5,0,19-8.8,19-25.5v-8.9c0-16.7-5.4-25.4-18.8-25.4h0l-.1-.1ZM460.1,138.6c0,7.4-2.2,10.9-8.2,10.9h-33.8v-25.1c0-1.1.4-1.5,1.1-1.5h32.6c6,0,8.2,3.6,8.2,10.9v4.7h0l.1.1Z"/>
    <path class="cls-2" d="M542.6,163c9.3-2.3,13.2-10.6,13.2-24.6v-7.3c0-16.7-5.4-25.4-18.8-25.4h-47c-1.8,0-2.6,1.2-2.6,3.7v80c0,1.9.7,2.7,2,2.7h9c1.3,0,1.9-.9,1.9-2.7v-24.5h28.5l13.9,25.6c.5,1.1,1,1.6,2.5,1.6h11.4c1.6,0,1.7-2.2,1.2-3.1l-15.1-26.1h0l-.1.1ZM542.2,138.5c0,7.4-2.2,11-8.2,11h-33.8v-25.7c0-1,.4-1.5,1.1-1.5h32.6c6,0,8.2,3.6,8.2,11v5.2h.1Z"/>
    <path class="cls-2" d="M632.1,105.7h-38.7c-17.8,0-24.7,8.9-24.7,32.6v21.2c0,23.7,6.9,32.6,24.7,32.6h38.7c1.3,0,2-.9,2-2.7v-11.9c0-1.8-.7-2.7-2-2.7h-38.7c-9.2,0-11.8-3.7-11.8-16.5v-2.1h49.9c1.3,0,1.9-.9,1.9-2.8v-9.9c0-1.9-.6-2.8-1.9-2.8h-49.9v-1.2c0-12.9,2.6-16.7,11.8-16.7h38.7c1.3,0,2-.9,2-2.7v-11.9c0-1.9-.7-2.7-2-2.7h0v.2Z"/>
    <path class="cls-2" d="M692.3,105.7h-41.3c-1.8,0-2.6,1.2-2.6,3.7v79c0,2.5.9,3.7,2.6,3.7h41.3c19.2,0,27-10.7,27-34.8v-16.8c0-24.1-7.9-34.8-27-34.8h0ZM705.7,155.6c0,14.5-3.4,19.2-13.8,19.2h-28.9c-.8,0-1.1-.5-1.1-1.6v-48.5c0-1.2.4-1.7,1.1-1.7h28.9c10.4,0,13.8,4.7,13.8,19.2v13.5h0v-.1Z"/>
    <path class="cls-2" d="M832.7,105.7h-68.8c-1.3,0-2,.9-2,2.8v12.3c0,1.9.7,2.9,2,2.9h27.6v65.8c0,1.8.6,2.7,2,2.7h9.7c1.3,0,2-.9,2-2.7v-65.8h27.6c1.3,0,2-1,2-2.9v-12.3c0-1.9-.7-2.8-2-2.8h-.1Z"/>
    <rect class="cls-2" x="734.7" y="120" width="14.3" height="72.1" rx="2.7" ry="2.7"/>
    <circle class="cls-1" cx="741.9" cy="105.4" r="7.2"/>
    <path class="cls-1" d="M113.4,50.8c2-5.5,4.9-10.6,8.6-14.9,3.7-4.3,8.1-8,13-10.8,2.5-1.4,5-2.6,7.7-3.5s5.5-1.7,8.4-2.1c2.9-.5,5.8-.7,8.8-.7s6,.3,9,.8c6,1.1,12.1,3.2,17.7,6.2s5.6,3.3,8.2,5.3l1,.8.5.4c.2.1.3.3.5.4.6.5,1.3,1.1,1.9,1.6l1.8,1.7.2.2.2.2.4.4.9.9c.6.6,1.2,1.2,1.7,1.9l.8.9.8,1c1,1.3,2.1,2.6,3.1,4.1,2,2.8,3.8,5.5,5.9,9,2.9,4.8,6.2,10.5,9.8,18.5,2.1,4.9,3.4,8.4,6,15.6,2.1,6,3.8,11.1,4.9,14.8,1.7,6.2,3.5,12.4,5.2,18.6-.7-11.2-2.2-23.9-5.4-37.8-1.3-5.9-2.8-12.3-5.8-20.7-5.7-16-12.3-26-14.2-28.7-2.4-3.6-4.6-6.3-6.1-8.2l-.3-.3-2.2-2.3c-.8-.7-1.6-1.4-2.3-2.2-.2-.2-.4-.4-.6-.5l-.6-.5-1.2-1c-3.3-2.7-6.7-5.1-10.2-7.2l-2.7-1.5-2.7-1.4c-1.8-.9-3.7-1.7-5.6-2.4-3.7-1.5-7.6-2.6-11.4-3.5-3.8-.8-7.7-1.3-11.5-1.5s-7.6,0-11.2.4c-3.7.5-7.3,1.3-10.8,2.4s-6.8,2.5-10,4.2c-6.4,3.4-12.1,7.8-16.9,13.3-4.9,5.4-8.7,11.9-11.5,19-1.4,3.6-2.5,7.3-3.3,11.2s-1.3,7.9-1.4,11.9v6.8c-3.2-1.5-6.4-2.7-9.6-3.7-1.1-.3-2.2-.7-3.3-.9l-1.7-.4-1.7-.4-.8-.2c-.3,0-.6,0-.8-.1l-2.1-.4c-.4,0-.8-.1-1.2-.2-.6,0-1.2-.2-1.8-.2-4.4-.5-8.8-.5-13.1-.1s-8.5,1.2-12.5,2.4c-4,1.2-7.9,2.8-11.5,4.8-.9.5-1.8,1-2.7,1.6-.4.3-.9.5-1.3.8l-1.3.8c-.8.6-1.7,1.2-2.5,1.8-.4.3-.8.6-1.2,1l-1.2,1c-3.2,2.7-6.1,5.7-8.6,9-2.6,3.3-4.8,6.9-6.7,10.8-1.9,3.9-3.4,8-4.6,12.3C0,119.9-.7,129.2.4,138.7c1.1,9.4,3.9,19,8.3,27.8,1.1,2.2,2.3,4.4,3.6,6.5.6,1.1,1.3,2.1,2,3.1l.5.8.3.4.3.4,1,1.4,1,1.4c.3.5.7.9,1.1,1.4l1.1,1.4.5.7c.2.2.4.5.6.7l2.2,2.7,2.3,2.7c6.3,7,13.3,13.3,20.8,18.6,4.6,3.2,8.2,5.3,11.5,7.2,16.9,9.6,34.1,14,34.1,14,1,.3,2.5.7,4.2,1.1,4.6,1.1,12.6,2.6,24.7,3,13.7.4,24.3-.9,31.6-1.8,3.5-.4,13.2-1.8,24.8-4.5,14.4-3.4,34.6-9.6,57.7-21.5-18.2,4.6-36.7,8.8-55.5,12.7-1.2.2-2.4.5-3.6.7-7.4,1.5-19.4,3.7-31.3,4.8-4.3.4-7.5.6-10.4.6-6.4.1-11.8-.2-15.6-.6-2.8-.3-6.9-.8-11.7-1.8-5-1-9.1-2.2-12.2-3.2-6.6-2.2-11.7-4.6-15.9-6.6-1.9-.9-3.8-1.8-5.9-2.9-6.4-3.3-12.8-6.7-20.2-12.4-3.2-2.4-6.2-5-9-7.8-2.9-2.8-5.6-5.7-8.2-8.8l-1.9-2.4-1.8-2.4c-.2-.2-.3-.4-.5-.6l-.4-.6-.9-1.2c-.3-.4-.6-.8-.9-1.2l-.8-1.3-.8-1.3-.2-.3-.2-.3-.4-.6c-.5-.8-1-1.6-1.5-2.5-.9-1.6-1.8-3.3-2.6-5.1-1.3-2.8-2.4-5.6-3.2-8.5h68.8c1.5,0,2.7-.9,3.1-2.3l.3-1,3.7,17.3c.3,1.4,1.6,2.4,3.1,2.4h0c1.5,0,2.7-1,3-2.3l6.8-27.8,22.9,52.4c.4,0,.7.1,1,.2.3.2.6.3,1.1.3h9.1c1.3,0,2-.9,2-2.7v-64.7c0-.9.2-1.2.7-1.2h.8c.6,0,1,.2,1.2,1l18,55.5c2.9,8.9,5.4,12.1,11.4,12.1h4.3c6,0,8.5-3.2,11.4-12.1l18-55.5c.2-.7.5-1,1.2-1h.4c.5,0,.7.4.7,1.2v64.7c0,1.9.6,2.7,2,2.7h9.1c1.3,0,2-.9,2-2.7v-71.6c0-9.5-1.6-13-7.8-13h-9.5c-5.2,0-7,1.6-9.4,9.5l-18.4,59.9c-.3.9-.6,1.1-1.2,1.1h-1.1c-.6,0-1-.3-1.2-1.1l-18.4-59.9c-2.4-7.9-4.2-9.5-9.5-9.5h-9.7c-6.3,0-7.9,3.5-7.9,13v52.6l-18.7-49.1c-.2-1.5-1.4-2.6-3-2.6-1.5,0-2.9.9-3.3,2.3l-7.7,31.3-3.6-16.8c-.3-1.4-1.6-2.4-3-2.4-1.5,0-2.8.9-3.2,2.3l-3,11.6H17.4c-.4-2.3-.8-4.6-1-6.8-.6-7.2,0-14.3,2-20.9.9-3.3,2.2-6.4,3.7-9.3s3.3-5.7,5.3-8.2c2-2.5,4.3-4.8,6.8-6.9l.9-.8c.4-.3,1-.7,1.3-1,.5-.4,1-.8,1.6-1.1l1-.6c.3-.2.7-.4,1-.6.7-.4,1.4-.8,2.1-1.2,2.8-1.5,5.8-2.7,8.9-3.6,3.1-.9,6.3-1.5,9.6-1.8s6.6-.2,10,.1c3.4.4,6.7,1.1,10.1,2.1,3.3,1,6.6,2.4,9.8,4,3.2,1.6,6.2,3.6,9.1,5.8l19.6,14.8-6.9-23.4c-1.8-6.1-2.6-12.4-2.5-18.6.1-6.2,1.3-12.1,3.3-17.6h0l.3-.3Z"/>
  </g>
  <g>
    <path d="M845.1,103.7c-5,0-9-4-9-9s4-9,9-9,9,4,9,9-4,9-9,9ZM845.1,87.2c-4.1,0-7.5,3.4-7.5,7.5s3.4,7.5,7.5,7.5,7.5-3.4,7.5-7.5-3.4-7.5-7.5-7.5Z"/>
    <g>
      <path d="M843.3,92v.9h-1.5v4.7h-1.1v-4.7h-1.5v-.9h4.1Z"/>
      <path d="M850.3,92v5.6h-1.1v-3.7l-1.5,3.7h-.9l-1.5-3.7v3.7h-1.1v-5.6h1.3l1.8,4.2,1.8-4.2h1.3-.1Z"/>
    </g>
  </g>
</svg>